<svg width="1362" height="811" viewBox="0 0 1362 811" fill="none" xmlns="http://www.w3.org/2000/svg">
<g opacity="0.2">
<path d="M19.0178 639.273C12.7996 636.012 7.6876 630.979 4.32811 624.812C0.968617 618.645 -0.487498 611.62 0.143859 604.625C0.775216 597.63 3.46569 590.979 7.87514 585.514C12.2846 580.048 18.215 576.013 24.9166 573.919C31.6182 571.825 38.79 571.765 45.5253 573.748C52.2607 575.731 58.2571 579.667 62.7565 585.059C67.2559 590.451 70.0561 597.056 70.8032 604.039C71.5504 611.023 70.2108 618.071 66.9539 624.293C62.5714 632.627 55.0652 638.883 46.08 641.691C37.0947 644.499 27.3633 643.629 19.0178 639.273Z" fill="#F8B42B"/>
<path d="M775.186 125.227C782.213 125.209 789.088 127.278 794.939 131.172C800.79 135.065 805.355 140.608 808.054 147.099C810.754 153.589 811.467 160.735 810.104 167.632C808.74 174.528 805.362 180.865 800.396 185.839C795.43 190.813 789.1 194.2 782.208 195.573C775.315 196.946 768.171 196.241 761.679 193.549C755.188 190.857 749.641 186.298 745.741 180.449C741.842 174.601 739.765 167.727 739.773 160.697C739.797 151.285 743.55 142.267 750.209 135.618C756.868 128.97 765.89 125.233 775.298 125.227" fill="#7EB421"/>
<path d="M1341.89 69.7862C1348.74 73.6996 1354.27 79.5561 1357.8 86.6154C1361.32 93.6746 1362.67 101.62 1361.67 109.446C1360.68 117.273 1357.39 124.629 1352.22 130.586C1347.05 136.543 1340.23 140.832 1332.62 142.912C1325.02 144.992 1316.96 144.769 1309.48 142.272C1302 139.774 1295.43 135.114 1290.6 128.88C1285.76 122.646 1282.88 115.119 1282.33 107.25C1281.77 99.3801 1283.56 91.5219 1287.46 84.6683C1292.71 75.4809 1301.39 68.7536 1311.6 65.9633C1321.8 63.1731 1332.7 64.548 1341.89 69.7862Z" fill="#F8B42B"/>
<path d="M1282.39 387.263C1278.42 394.087 1272.51 399.581 1265.42 403.047C1258.33 406.514 1250.37 407.799 1242.55 406.74C1234.72 405.68 1227.39 402.324 1221.47 397.095C1215.56 391.867 1211.33 385.001 1209.31 377.365C1207.3 369.73 1207.59 361.669 1210.16 354.201C1212.73 346.734 1217.45 340.195 1223.73 335.413C1230.01 330.63 1237.57 327.818 1245.45 327.333C1253.33 326.848 1261.17 328.711 1267.99 332.687C1277.12 338.03 1283.76 346.773 1286.46 357.001C1289.15 367.229 1287.69 378.111 1282.39 387.263Z" fill="#EE5426"/>
</g>
<path opacity="0.2" d="M56.1523 555.129L132.421 426.859C155.671 387.757 212.278 387.742 235.549 426.831L435.949 763.447C451.681 789.873 485.465 799.172 512.504 784.519V784.519C540.823 769.172 550.938 733.509 534.893 705.579L277.204 257.008C262.332 231.121 270.869 198.095 296.422 182.656V182.656C322.37 166.979 356.114 175.297 371.803 201.238L518.631 444.004C542.126 482.851 598.584 482.541 621.65 443.438L722.719 272.102C745.83 232.923 802.429 232.706 825.841 271.705L1009.21 577.17C1025.46 604.237 1060.54 613.058 1087.66 596.895V596.895C1114.52 580.883 1123.58 546.283 1108.01 519.16L867.897 100.935C853.056 75.0839 861.858 42.1009 887.605 27.0815V27.0815C913.313 12.0852 946.303 20.6069 961.532 46.1776L1106.74 290.001C1130.24 329.454 1187.54 328.965 1210.36 289.117L1286.47 156.211" stroke="#4682EB" stroke-width="14"/>
</svg>
