<svg width="667" height="324" viewBox="0 0 667 324" fill="none" xmlns="http://www.w3.org/2000/svg">
<g opacity="0.2">
<path d="M164 281.548C164.014 286.987 162.413 292.308 159.4 296.838C156.387 301.368 152.097 304.904 147.073 306.998C142.049 309.092 136.516 309.65 131.174 308.603C125.832 307.555 120.921 304.948 117.062 301.112C113.203 297.276 110.569 292.383 109.493 287.051C108.418 281.719 108.949 276.189 111.019 271.158C113.09 266.128 116.607 261.824 121.125 258.791C125.644 255.758 130.962 254.132 136.405 254.118C143.704 254.104 150.71 256.985 155.884 262.128C161.058 267.271 163.977 274.256 164 281.548Z" fill="#F8B42B"/>
<path d="M639.413 0.000141144C644.853 -0.0170555 650.175 1.5794 654.708 4.58759C659.24 7.59577 662.778 11.8805 664.875 16.8999C666.972 21.9193 667.533 27.4477 666.487 32.786C665.442 38.1243 662.836 43.0325 659.001 46.8899C655.165 50.7473 650.272 53.3806 644.94 54.4566C639.607 55.5326 634.076 55.0031 629.045 52.9349C624.013 50.8668 619.709 47.3529 616.675 42.8379C613.641 38.3229 612.014 33.0095 612 27.5698C611.991 20.2821 614.871 13.288 620.009 8.12017C625.148 2.95236 632.125 0.0323792 639.413 0.000141144Z" fill="#EE5426"/>
<path d="M639 77.7059L639 261.676C639 292.231 614.231 317 583.676 317V317C553.122 317 528.353 292.231 528.353 261.676V173.618C528.353 141.585 502.385 115.618 470.353 115.618H464.588C432.556 115.618 406.588 141.585 406.588 173.618V229.076C406.588 270.706 364.031 298.78 325.761 282.395L141.181 203.37C102.911 186.985 60.3529 215.059 60.3529 256.689V264.323C60.3529 293.416 36.7689 317 7.67642 317V317C-21.416 317 -45.0001 293.416 -45.0001 264.323V183.618" stroke="#4682EB" stroke-width="14"/>
</g>
</svg>
