<svg width="620" height="247" viewBox="0 0 620 247" fill="none" xmlns="http://www.w3.org/2000/svg">
<g opacity="0.2">
<path d="M482 203.842C481.986 209.281 483.587 214.602 486.6 219.132C489.613 223.662 493.903 227.198 498.927 229.292C503.951 231.386 509.484 231.945 514.826 230.897C520.168 229.849 525.079 227.243 528.938 223.406C532.797 219.57 535.431 214.677 536.507 209.345C537.582 204.013 537.051 198.483 534.981 193.452C532.91 188.422 529.393 184.118 524.875 181.085C520.356 178.052 515.038 176.426 509.595 176.412C502.296 176.398 495.29 179.279 490.116 184.422C484.942 189.566 482.023 196.55 482 203.842Z" fill="#F8B42B"/>
<path d="M7 6.10352e-05L7 183.971C7 214.525 31.7692 239.294 62.3235 239.294V239.294C92.8779 239.294 117.647 214.525 117.647 183.971V95.9119C117.647 63.8793 143.615 37.9119 175.647 37.9119H181.412C213.444 37.9119 239.412 63.8793 239.412 95.9119V151.37C239.412 193 281.969 221.074 320.239 204.689L504.819 125.664C543.089 109.279 585.647 137.353 585.647 178.983V186.618C585.647 215.71 609.231 239.294 638.324 239.294V239.294C667.416 239.294 691 215.71 691 186.618V105.912" stroke="#4682EB" stroke-width="14"/>
</g>
</svg>
