<svg width="290" height="324" viewBox="0 0 290 324" fill="none" xmlns="http://www.w3.org/2000/svg">
<g opacity="0.2">
<path d="M262.413 0.000141144C267.853 -0.0170555 273.175 1.5794 277.708 4.58759C282.24 7.59577 285.778 11.8805 287.875 16.8999C289.972 21.9193 290.533 27.4477 289.487 32.786C288.442 38.1243 285.836 43.0325 282.001 46.8899C278.165 50.7473 273.272 53.3806 267.94 54.4566C262.607 55.5326 257.076 55.0031 252.045 52.9349C247.013 50.8668 242.709 47.3529 239.675 42.8379C236.641 38.3229 235.014 33.0095 235 27.5698C234.991 20.2821 237.871 13.288 243.009 8.12017C248.148 2.95236 255.125 0.0323792 262.413 0.000141144Z" fill="#EE5426"/>
<path d="M262 77.7059L262 261.676C262 292.231 237.231 317 206.676 317V317C176.122 317 151.353 292.231 151.353 261.676V173.618C151.353 141.585 125.385 115.618 93.3529 115.618H87.5883C55.5557 115.618 29.5882 141.585 29.5882 173.618V229.076C29.5882 270.706 -12.9695 298.78 -51.2394 282.395L-235.819 203.37C-274.089 186.985 -316.647 215.059 -316.647 256.689V264.323C-316.647 293.416 -340.231 317 -369.324 317V317C-398.416 317 -422 293.416 -422 264.323V183.618" stroke="#4682EB" stroke-width="14"/>
</g>
</svg>
