<svg width="565" height="288" viewBox="0 0 565 288" fill="none" xmlns="http://www.w3.org/2000/svg">
<path opacity="0.2" fill-rule="evenodd" clip-rule="evenodd" d="M2.32859e-05 20.7687C23.5047 24.0417 41.5978 44.2219 41.5978 68.6279L41.5978 222.128C41.5978 258.026 70.6993 287.128 106.598 287.128L112.362 287.128C148.261 287.128 177.362 258.026 177.362 222.128L177.362 65.5065C177.362 26.4709 219.426 1.90689 253.424 21.089L431.652 121.649C472.75 144.837 523.598 115.143 523.598 67.9551L523.598 65.9809C523.598 42.1958 541.778 22.6569 565 20.5018L565 6.45514C534.037 8.64645 509.598 34.4597 509.598 65.9809L509.598 67.9551C509.598 104.427 470.296 127.378 438.532 109.456L260.303 8.89588C216.973 -15.5518 163.362 15.7552 163.362 65.5065L163.362 222.128C163.362 250.294 140.529 273.128 112.362 273.128L106.598 273.128C78.4312 273.128 55.5978 250.294 55.5978 222.128L55.5978 68.6279C55.5978 36.48 31.2572 10.017 2.4519e-05 6.66307L2.32859e-05 20.7687Z" fill="#4682EB"/>
</svg>
