<svg width="438" height="181" viewBox="0 0 438 181" fill="none" xmlns="http://www.w3.org/2000/svg">
<path d="M27.6361 147.408C19.0095 128.805 7.93926 103.506 2.66636 83.9358M2.66636 83.9358C2.05805 81.6811 19.5738 82.3214 20.3788 82.4192C38.0384 84.5463 54.8778 88.9192 71.9444 93.7443M2.66636 83.9358C70.5877 172.275 179.808 199.912 248.848 160.608C255.69 156.712 263.134 152.465 270.167 147.574M270.167 147.574C281.368 139.785 291.528 130.362 296.565 118.124C301.214 106.83 302.511 90.1586 294.611 80.1147C279.853 61.353 249.831 71.4044 243.996 93.6587C238.868 113.215 251.58 140.187 270.167 147.574ZM270.167 147.574C270.559 147.73 270.954 147.877 271.351 148.015C367.217 181.356 439.037 86.05 435.243 3.0799" stroke="#4682EB" stroke-width="5" stroke-miterlimit="1.5" stroke-linecap="round" stroke-linejoin="round"/>
</svg>
