<svg width="129" height="43" viewBox="0 0 129 43" fill="none" xmlns="http://www.w3.org/2000/svg">
<g clip-path="url(#clip0_2_476)">
<path d="M85.1431 19.437H88.8964V35.1939H85.172V27.0945L80.6968 35.1939H77.6076L73.1324 27.0945V35.1939H69.408V19.437H73.1613L79.1666 30.2459L85.1431 19.437Z" fill="#4682EB"/>
<path d="M107.779 35.1644H104.054V25.5925L95.5371 35.1644H92.4189V19.437H96.1434V28.8617L104.516 19.437H107.779V35.1644Z" fill="#4682EB"/>
<path d="M125.593 21.1456C126.401 21.9702 127.007 22.8833 127.441 23.9435C127.874 24.9743 128.105 26.0935 128.105 27.2422C128.105 28.4202 127.874 29.5394 127.441 30.5702C127.007 31.6011 126.372 32.5435 125.593 33.3682C124.784 34.1928 123.889 34.8113 122.85 35.2531C121.839 35.6949 120.742 35.9011 119.587 35.9011C117.855 35.9011 116.267 35.4004 114.824 34.4285V42.999H111.099V27.2422V19.4374H115.95C117.104 18.8778 118.317 18.5833 119.587 18.5833C120.742 18.5833 121.839 18.8189 122.85 19.2607C123.889 19.7024 124.784 20.3209 125.593 21.1456ZM119.587 32.1017C120.251 32.1017 120.858 31.9839 121.435 31.7189C122.013 31.4833 122.532 31.1298 122.965 30.688C123.399 30.2463 123.745 29.7161 124.005 29.1271C124.265 28.538 124.38 27.8901 124.38 27.2422C124.38 26.5648 124.265 25.9463 124.005 25.3572C123.745 24.7682 123.399 24.238 122.965 23.8257C122.532 23.3839 122.013 23.06 121.435 22.7949C120.858 22.5298 120.223 22.412 119.587 22.412C118.952 22.412 118.317 22.5298 117.74 22.7949C117.162 23.06 116.643 23.4134 116.238 23.8257C115.805 24.2675 115.488 24.7682 115.228 25.3572C114.968 25.9463 114.852 26.5942 114.852 27.2422C114.852 27.9196 114.968 28.538 115.228 29.1271C115.488 29.7161 115.834 30.2463 116.238 30.688C116.671 31.1298 117.162 31.4833 117.74 31.7189C118.317 31.9839 118.923 32.1017 119.587 32.1017Z" fill="#4682EB"/>
<path d="M82.2845 1.73718H84.652V11.7509H69.321V1.73718H71.6885V9.33581H75.7883V1.73718H78.1558V9.33581H82.2845V1.73718Z" fill="#4682EB"/>
<path d="M88.7227 7.53924V11.7509H86.3552V1.73718H88.7227V5.86047L91.7542 1.73718H94.6992L91.0613 6.68513L94.728 11.7214H91.812L88.7227 7.53924Z" fill="#4682EB"/>
<path d="M99.6362 12.1928C98.9433 12.1928 98.2793 12.0455 97.673 11.7804C97.0666 11.5154 96.5181 11.1325 96.085 10.6612C95.6231 10.19 95.2766 9.63042 95.0168 9.01193C94.7569 8.39344 94.6125 7.71604 94.6125 6.97974C94.6125 6.24344 94.7569 5.56604 95.0168 4.94755C95.2766 4.2996 95.6231 3.76946 96.085 3.29823C96.547 2.827 97.0666 2.44412 97.673 2.17905C98.2793 1.91398 98.9433 1.76672 99.6362 1.76672C100.329 1.76672 100.993 1.91398 101.6 2.17905C102.206 2.44412 102.754 2.827 103.187 3.29823C103.649 3.76946 103.996 4.32905 104.256 4.94755C104.516 5.59549 104.66 6.27289 104.66 6.97974C104.66 7.71604 104.516 8.39344 104.256 9.01193C103.996 9.63042 103.649 10.19 103.187 10.6612C102.726 11.1325 102.206 11.5154 101.6 11.7804C100.993 12.0455 100.329 12.1928 99.6362 12.1928ZM99.6362 4.15234C99.2609 4.15234 98.9144 4.2407 98.5969 4.38796C98.2793 4.53522 97.9905 4.74138 97.7596 5.00645C97.4997 5.27152 97.3265 5.56604 97.1821 5.89001C97.0378 6.21398 96.98 6.59686 96.98 6.97974C96.98 7.36261 97.0378 7.74549 97.1821 8.06946C97.3265 8.39344 97.4997 8.71741 97.7596 8.95302C98.0194 9.21809 98.2793 9.42426 98.5969 9.57152C98.9144 9.71878 99.2609 9.80713 99.6362 9.80713C100.012 9.80713 100.358 9.71878 100.676 9.57152C100.993 9.42426 101.282 9.21809 101.513 8.95302C101.773 8.68796 101.946 8.39344 102.09 8.06946C102.235 7.74549 102.292 7.36261 102.292 6.97974C102.292 6.59686 102.235 6.21398 102.09 5.89001C101.946 5.56604 101.773 5.24207 101.513 5.00645C101.253 4.74138 100.993 4.53522 100.676 4.38796C100.358 4.2407 100.012 4.15234 99.6362 4.15234Z" fill="#4682EB"/>
<path d="M105.122 11.957L104.718 9.60088C105.382 9.48307 105.902 9.1591 106.277 8.59951C106.652 8.06937 106.941 7.45088 107.143 6.77348C107.345 6.09609 107.461 5.38924 107.518 4.68239C107.576 3.97554 107.605 3.3865 107.605 2.94472V1.73718H115.574V11.7509H113.206V4.15225H110.001C109.886 6.00773 109.539 7.53924 108.962 8.77622C108.558 9.65978 108.038 10.3961 107.374 10.9262C106.71 11.4564 105.959 11.8098 105.122 11.957Z" fill="#4682EB"/>
<path d="M124.726 2.73812H126.95V11.7504H126.112L125.015 10.9847C124.582 11.3676 124.062 11.6915 123.514 11.8977C122.965 12.1039 122.388 12.2217 121.782 12.2217C121.089 12.2217 120.425 12.0744 119.818 11.8094C119.212 11.5443 118.663 11.1614 118.23 10.6902C117.768 10.2189 117.422 9.65935 117.162 9.04086C116.902 8.42237 116.758 7.74497 116.758 7.00867C116.758 6.27237 116.902 5.59497 117.162 4.97648C117.422 4.32853 117.768 3.79839 118.23 3.32716C118.692 2.85593 119.212 2.47305 119.818 2.20798C120.425 1.94291 121.089 1.79565 121.782 1.79565C122.33 1.79565 122.85 1.88401 123.341 2.06072C123.86 2.17853 124.322 2.41415 124.726 2.73812ZM121.81 9.77716C122.186 9.77716 122.532 9.6888 122.85 9.54154C123.167 9.39428 123.456 9.18812 123.687 8.92305C123.947 8.65798 124.12 8.36346 124.264 8.03949C124.409 7.71552 124.467 7.33264 124.467 6.94976C124.467 6.56689 124.409 6.18401 124.264 5.86004C124.12 5.53606 123.947 5.21209 123.687 4.97648C123.427 4.71141 123.167 4.50524 122.85 4.35798C122.532 4.21072 122.186 4.12237 121.81 4.12237C121.435 4.12237 121.089 4.21072 120.771 4.35798C120.453 4.50524 120.165 4.71141 119.934 4.97648C119.674 5.24154 119.501 5.53606 119.356 5.86004C119.212 6.18401 119.154 6.56689 119.154 6.94976C119.154 7.33264 119.212 7.71552 119.356 8.03949C119.501 8.36346 119.674 8.68743 119.934 8.92305C120.194 9.18812 120.453 9.39428 120.771 9.54154C121.089 9.71826 121.435 9.77716 121.81 9.77716Z" fill="#4682EB"/>
<path d="M14.436 0.294434C16.9479 0.294434 18.9978 2.38553 18.9978 4.94786C18.9978 7.51019 16.9479 9.60128 14.436 9.60128C11.9242 9.60128 9.87427 7.51019 9.87427 4.94786C9.87427 2.38553 11.9242 0.294434 14.436 0.294434Z" fill="#EE5426"/>
<path d="M28.8718 -0.000610352C31.3837 -0.000610352 33.4336 2.09049 33.4336 4.65281C33.4336 7.21514 31.3837 9.30624 28.8718 9.30624C26.36 9.30624 24.3101 7.21514 24.3101 4.65281C24.3101 2.09049 26.36 -0.000610352 28.8718 -0.000610352Z" fill="#7EB421"/>
<path d="M43.3074 0.294434C45.8192 0.294434 47.8691 2.38553 47.8691 4.94786C47.8691 7.51019 45.8192 9.60128 43.3074 9.60128C40.7955 9.60128 38.7456 7.51019 38.7456 4.94786C38.7456 2.38553 40.7955 0.294434 43.3074 0.294434Z" fill="#F8B42B"/>
<path d="M56.7333 30.0121L49.0823 16.4052C48.0718 14.6676 46.224 13.5189 44.1163 13.5189C41.72 13.5189 39.6701 15.021 38.8039 17.1415L30.46 37.8169C30.2001 38.4059 29.6227 38.8182 28.9298 38.8182C28.2368 38.8182 27.6305 38.3765 27.3707 37.7874L23.9061 29.2758L21.3076 33.8703L23.5596 39.4073C24.4258 41.5278 26.4757 43.0299 28.872 43.0299C31.2684 43.0299 33.3183 41.5573 34.1844 39.4367L42.5284 18.7614C42.7882 18.1429 43.3945 17.7011 44.0875 17.7011C44.6938 17.7011 45.2135 18.0251 45.5022 18.4963L53.1532 32.0737C53.4708 32.6922 53.644 33.3991 53.644 34.1354C53.644 36.6977 51.5941 38.7888 49.0823 38.7888C47.4077 38.7888 45.9353 37.8463 45.1269 36.4621L40.7961 28.7456L38.8328 33.6347L41.5756 38.5826C43.077 41.2333 45.8775 43.0004 49.0823 43.0004C53.875 43.0004 57.7438 39.0539 57.7438 34.1648C57.7438 32.6628 57.3685 31.2491 56.7333 30.0121Z" fill="#4682EB"/>
<path d="M27.3705 18.6436L27.3993 18.5847C27.6881 18.084 28.2366 17.7306 28.8429 17.7306C29.4781 17.7306 30.0267 18.084 30.3154 18.6141L33.5202 24.3278L35.4834 19.4388L33.8666 16.4936C32.8561 14.7265 31.0083 13.5484 28.8718 13.5484C26.7353 13.5484 24.8875 14.7265 23.877 16.4641L12.6747 36.3737V36.4032C11.8952 37.8463 10.3938 38.8182 8.66154 38.8182C6.14969 38.8182 4.0998 36.7271 4.0998 34.1648C4.0998 33.3696 4.3019 32.6333 4.64836 31.9559L12.155 18.5552C12.4437 18.0251 12.9923 17.7011 13.6275 17.7011C14.2915 17.7011 14.8979 18.1134 15.1577 18.7025L17.2653 23.8566L19.8349 19.2915L18.911 17.0826C18.016 14.9915 15.995 13.5189 13.5986 13.5189C11.4621 13.5189 9.58544 14.7265 8.6038 16.4936L1.09713 29.8648V29.8943C0.404205 31.1607 0 32.6039 0 34.1648C0 39.0539 3.86882 43.0004 8.66154 43.0004C11.8952 43.0004 14.7246 41.1744 16.226 38.4943L27.3705 18.6436Z" fill="#4682EB"/>
</g>
<defs>
<clipPath id="clip0_2_476">
<rect width="128.104" height="43" fill="white"/>
</clipPath>
</defs>
</svg>
