<svg width="32" height="30" viewBox="0 0 32 30" fill="none" xmlns="http://www.w3.org/2000/svg">
<path d="M13.5 29.2024C14.6046 29.2024 15.5 28.307 15.5 27.2024C15.5 26.0978 14.6046 25.2024 13.5 25.2024C12.3954 25.2024 11.5 26.0978 11.5 27.2024C11.5 28.307 12.3954 29.2024 13.5 29.2024Z" stroke="#4682EB" stroke-linecap="round" stroke-linejoin="round"/>
<path d="M25.262 29.2024C26.3665 29.2024 27.262 28.307 27.262 27.2024C27.262 26.0978 26.3665 25.2024 25.262 25.2024C24.1574 25.2024 23.262 26.0978 23.262 27.2024C23.262 28.307 24.1574 29.2024 25.262 29.2024Z" stroke="#4682EB" stroke-linecap="round" stroke-linejoin="round"/>
<path d="M1 1H6.42858L10.0657 19.1722C10.1898 19.797 10.5297 20.3583 11.026 20.7577C11.5222 21.1572 12.1431 21.3694 12.78 21.3572H25.9715C26.6084 21.3694 27.2293 21.1572 27.7255 20.7577C28.2217 20.3583 28.5616 19.797 28.6857 19.1722L30.8572 7.78572H7.78572" stroke="#4682EB" stroke-linecap="round" stroke-linejoin="round"/>
</svg>
