<svg width="444" height="324" viewBox="0 0 444 324" fill="none" xmlns="http://www.w3.org/2000/svg">
<g opacity="0.2">
<path d="M416.413 0.000141144C421.853 -0.0170555 427.175 1.5794 431.708 4.58759C436.24 7.59577 439.778 11.8805 441.875 16.8999C443.972 21.9193 444.533 27.4477 443.487 32.786C442.442 38.1243 439.836 43.0325 436.001 46.8899C432.165 50.7473 427.272 53.3806 421.94 54.4566C416.607 55.5326 411.076 55.0031 406.045 52.9349C401.013 50.8668 396.709 47.3529 393.675 42.8379C390.641 38.3229 389.014 33.0095 389 27.5698C388.991 20.2821 391.871 13.288 397.009 8.12017C402.148 2.95236 409.125 0.0323792 416.413 0.000141144Z" fill="#EE5426"/>
<path d="M416 77.7059L416 261.676C416 292.231 391.231 317 360.676 317V317C330.122 317 305.353 292.231 305.353 261.676V173.618C305.353 141.585 279.385 115.618 247.353 115.618H241.588C209.556 115.618 183.588 141.585 183.588 173.618V229.076C183.588 270.706 141.031 298.78 102.761 282.395L-81.8194 203.37C-120.089 186.985 -162.647 215.059 -162.647 256.689V264.323C-162.647 293.416 -186.231 317 -215.324 317V317C-244.416 317 -268 293.416 -268 264.323V183.618" stroke="#4682EB" stroke-width="14"/>
</g>
</svg>
