<svg width="647" height="628" viewBox="0 0 647 628" fill="none" xmlns="http://www.w3.org/2000/svg">
<g opacity="0.2">
<path d="M14.7311 495.178C9.91451 492.651 5.95477 488.753 3.35253 483.976C0.750286 479.199 -0.377614 473.758 0.111432 468.339C0.600478 462.921 2.68451 457.769 6.10004 453.536C9.51557 449.302 14.1092 446.177 19.3002 444.555C24.4913 442.933 30.0465 442.887 35.2637 444.423C40.4809 445.958 45.1257 449.007 48.6108 453.184C52.096 457.36 54.2651 462.476 54.8438 467.886C55.4226 473.295 54.3849 478.755 51.8622 483.574C48.4675 490.03 42.6532 494.876 35.6933 497.051C28.7334 499.226 21.1954 498.552 14.7311 495.178Z" fill="#F8B42B"/>
<path d="M600.452 97.0001C605.895 96.9863 611.22 98.5889 615.753 101.605C620.285 104.621 623.82 108.914 625.911 113.942C628.003 118.97 628.555 124.505 627.499 129.847C626.443 135.189 623.826 140.097 619.979 143.95C616.133 147.802 611.229 150.427 605.891 151.49C600.552 152.553 595.018 152.007 589.99 149.922C584.961 147.837 580.665 144.305 577.644 139.775C574.623 135.245 573.015 129.92 573.022 124.475C573.04 117.185 575.947 110.199 581.105 105.049C586.263 99.8991 593.251 97.0047 600.539 97.0001" fill="#7EB421"/>
</g>
<path opacity="0.2" d="M43.4961 430L101.264 332.845C119.864 301.564 165.149 301.551 183.766 332.822L337.684 591.362C349.87 611.832 376.04 619.034 396.984 607.684V607.684C418.92 595.796 426.755 568.172 414.326 546.538L214.721 199.077C203.202 179.025 209.814 153.443 229.608 141.485V141.485C249.707 129.341 275.845 135.784 287.998 155.878L400.409 341.74C419.205 372.817 464.371 372.569 482.824 341.286L558.514 212.975C577.002 181.632 622.282 181.458 641.011 212.658L781.729 447.073C794.314 468.039 821.489 474.872 842.495 462.352V462.352C863.304 449.949 870.321 423.148 858.259 402.139L672.27 78.1833C660.774 58.1596 667.591 32.6111 687.535 20.9772V20.9772C707.448 9.36112 733.002 15.962 744.799 35.769L855.944 222.391C874.742 253.954 920.581 253.563 938.837 221.683L996.496 121" stroke="#4682EB" stroke-width="14"/>
</svg>
