<svg width="667" height="628" viewBox="0 0 667 628" fill="none" xmlns="http://www.w3.org/2000/svg">
<g opacity="0.2">
<path d="M14.7311 495.178C9.91451 492.651 5.95477 488.753 3.35253 483.976C0.750286 479.199 -0.377614 473.758 0.111432 468.339C0.600478 462.921 2.68451 457.769 6.10004 453.536C9.51557 449.302 14.1092 446.177 19.3002 444.555C24.4913 442.933 30.0465 442.887 35.2637 444.423C40.4809 445.958 45.1257 449.007 48.6108 453.184C52.096 457.36 54.2651 462.476 54.8438 467.886C55.4226 473.295 54.3849 478.755 51.8622 483.574C48.4675 490.03 42.6532 494.876 35.6933 497.051C28.7334 499.226 21.1954 498.552 14.7311 495.178Z" fill="#F8B42B"/>
<path d="M600.453 97.0001C605.896 96.9863 611.221 98.5889 615.754 101.605C620.286 104.621 623.821 108.914 625.912 113.942C628.004 118.97 628.556 124.505 627.5 129.847C626.444 135.189 623.827 140.097 619.98 143.95C616.134 147.802 611.23 150.427 605.892 151.49C600.553 152.553 595.019 152.007 589.991 149.922C584.962 147.837 580.666 144.305 577.645 139.775C574.624 135.245 573.016 129.92 573.022 124.475C573.041 117.185 575.948 110.199 581.106 105.049C586.264 99.8991 593.252 97.0047 600.54 97.0001" fill="#7EB421"/>
</g>
<path opacity="0.2" d="M43.4971 430L101.265 332.845C119.865 301.564 165.15 301.551 183.767 332.822L337.685 591.362C349.871 611.832 376.041 619.034 396.985 607.684V607.684C418.921 595.796 426.755 568.172 414.327 546.538L214.722 199.077C203.203 179.025 209.815 153.443 229.609 141.485V141.485C249.708 129.341 275.846 135.784 287.999 155.878L400.41 341.74C419.206 372.817 464.372 372.569 482.825 341.286L558.515 212.975C577.003 181.632 622.283 181.458 641.012 212.658L781.73 447.073C794.315 468.039 821.49 474.872 842.496 462.352V462.352C863.305 449.949 870.322 423.148 858.26 402.139L672.271 78.1833C660.775 58.1596 667.592 32.6111 687.536 20.9772V20.9772C707.449 9.36112 733.003 15.962 744.8 35.769L855.945 222.391C874.742 253.954 920.582 253.563 938.838 221.683L996.497 121" stroke="#4682EB" stroke-width="14"/>
</svg>
