<svg width="578" height="324" viewBox="0 0 578 324" fill="none" xmlns="http://www.w3.org/2000/svg">
<g opacity="0.2">
<path d="M503 42.4519C502.986 37.013 504.587 31.6921 507.6 27.1621C510.613 22.6321 514.903 19.0965 519.927 17.0024C524.951 14.9083 530.484 14.3497 535.826 15.3972C541.168 16.4448 546.079 19.0515 549.938 22.8877C553.797 26.7239 556.431 31.6173 557.507 36.949C558.582 42.2808 558.051 47.8115 555.981 52.8417C553.91 57.8719 550.393 62.1758 545.875 65.209C541.356 68.2421 536.038 69.8685 530.595 69.8823C523.296 69.8962 516.29 67.0151 511.116 61.8719C505.942 56.7287 503.023 49.744 503 42.4519Z" fill="#F8B42B"/>
<path d="M27.587 324C22.1473 324.017 16.8247 322.421 12.2924 319.412C7.76015 316.404 4.22185 312.119 2.12507 307.1C0.0282837 302.081 -0.532786 296.552 0.51283 291.214C1.55845 285.876 4.16377 280.967 7.99926 277.11C11.8348 273.253 16.7281 270.619 22.0603 269.543C27.3926 268.467 32.9241 268.997 37.9554 271.065C42.9866 273.133 47.2915 276.647 50.3254 281.162C53.3594 285.677 54.9862 290.991 55 296.43C55.0093 303.718 52.1291 310.712 46.9906 315.88C41.8522 321.048 34.8746 323.968 27.587 324Z" fill="#EE5426"/>
<path d="M28 246.294L28 62.3236C28 31.7692 52.7692 7.00003 83.3235 7.00003V7.00003C113.878 7.00003 138.647 31.7692 138.647 62.3235V150.382C138.647 182.415 164.615 208.382 196.647 208.382H202.412C234.444 208.382 260.412 182.415 260.412 150.382V94.9239C260.412 53.2941 302.969 25.2204 341.239 41.6051L525.819 120.63C564.089 137.015 606.647 108.941 606.647 67.3114V59.6765C606.647 30.5841 630.231 7.00003 659.324 7.00003V7.00003C688.416 7.00003 712 30.5841 712 59.6765V140.382" stroke="#4682EB" stroke-width="14"/>
</g>
</svg>
