<svg width="674" height="430" viewBox="0 0 674 430" fill="none" xmlns="http://www.w3.org/2000/svg">
<g opacity="0.2">
<path d="M636 237.57C635.986 232.131 637.587 226.81 640.6 222.28C643.613 217.75 647.903 214.214 652.927 212.12C657.951 210.026 663.484 209.467 668.826 210.515C674.168 211.562 679.079 214.169 682.938 218.005C686.797 221.842 689.431 226.735 690.507 232.067C691.582 237.398 691.051 242.929 688.981 247.959C686.91 252.99 683.393 257.293 678.875 260.327C674.356 263.36 669.038 264.986 663.595 265C656.296 265.014 649.29 262.133 644.116 256.99C638.942 251.846 636.023 244.862 636 237.57Z" fill="#F8B42B"/>
<path d="M181.587 400C176.147 400.017 170.825 398.421 166.292 395.412C161.76 392.404 158.222 388.119 156.125 383.1C154.028 378.081 153.467 372.552 154.513 367.214C155.558 361.876 158.164 356.967 161.999 353.11C165.835 349.253 170.728 346.619 176.06 345.543C181.393 344.467 186.924 344.997 191.955 347.065C196.987 349.133 201.291 352.647 204.325 357.162C207.359 361.677 208.986 366.991 209 372.43C209.009 379.718 206.129 386.712 200.991 391.88C195.852 397.048 188.875 399.968 181.587 400Z" fill="#EE5426"/>
<path d="M7 286.988L7 103.017C7 72.4628 31.7692 47.6936 62.3235 47.6936V47.6936C92.8779 47.6936 117.647 72.4628 117.647 103.017V256.517C117.647 288.55 143.615 314.517 175.647 314.517H181.412C213.444 314.517 239.412 288.55 239.412 256.517V99.8958C239.412 55.5023 287.249 27.5667 325.913 49.3816L504.141 149.942C540.572 170.497 585.647 144.174 585.647 102.344V100.37C585.647 71.2776 609.231 47.6936 638.324 47.6936V47.6936C667.416 47.6936 691 71.2776 691 100.37V429.929" stroke="#4682EB" stroke-width="14"/>
</g>
</svg>
