<svg width="577" height="404" viewBox="0 0 577 404" fill="none" xmlns="http://www.w3.org/2000/svg">
<g opacity="0.2">
<path d="M55.0497 27.4304C55.0635 32.8694 53.4627 38.1903 50.4497 42.7203C47.4367 47.2502 43.1469 50.7858 38.1227 52.8799C33.0985 54.9741 27.5656 55.5327 22.2237 54.4851C16.8818 53.4375 11.9707 50.8308 8.11157 46.9946C4.25244 43.1584 1.61853 38.2651 0.542965 32.9333C-0.532608 27.6015 -0.00153732 22.0708 2.06898 17.0406C4.1395 12.0104 7.65649 7.70656 12.1752 4.67337C16.6939 1.64018 22.0114 0.0138474 27.4553 4.95911e-05C34.7539 -0.0138321 41.7596 2.86724 46.9335 8.01044C52.1075 13.1536 55.0266 20.1384 55.0497 27.4304Z" fill="#F8B42B"/>
<path d="M537.463 3.9291C542.903 3.9119 548.225 5.50835 552.757 8.51654C557.29 11.5247 560.828 15.8095 562.925 20.8288C565.022 25.8482 565.583 31.3767 564.537 36.715C563.491 42.0532 560.886 46.9615 557.051 50.8189C553.215 54.6763 548.322 57.3096 542.989 58.3856C537.657 59.4616 532.126 58.932 527.094 56.8639C522.063 54.7957 517.758 51.2819 514.724 46.7669C511.69 42.2518 510.064 36.9384 510.05 31.4987C510.041 24.2111 512.921 17.2169 518.059 12.0491C523.198 6.88132 530.175 3.96133 537.463 3.9291Z" fill="#EE5426"/>
<path d="M712.05 116.941L712.05 300.912C712.05 331.466 687.281 356.235 656.726 356.235V356.235C626.172 356.235 601.403 331.466 601.403 300.912V147.412C601.403 115.379 575.435 89.4119 543.403 89.4119H537.638C505.606 89.4119 479.638 115.379 479.638 147.412V304.033C479.638 348.427 431.801 376.362 393.137 354.547L214.909 253.987C178.478 233.432 133.403 259.755 133.403 301.585V303.559C133.403 332.651 109.819 356.235 80.7262 356.235V356.235C51.6338 356.235 28.0497 332.651 28.0497 303.559V67" stroke="#4682EB" stroke-width="14"/>
</g>
</svg>
