<svg width="545" height="247" viewBox="0 0 545 247" fill="none" xmlns="http://www.w3.org/2000/svg">
<g opacity="0.2">
<path d="M329 42.5696C328.986 37.1306 330.587 31.8097 333.6 27.2797C336.613 22.7498 340.903 19.2142 345.927 17.1201C350.951 15.0259 356.484 14.4673 361.826 15.5149C367.168 16.5625 372.079 19.1692 375.938 23.0054C379.797 26.8416 382.431 31.7349 383.507 37.0667C384.582 42.3985 384.051 47.9292 381.981 52.9594C379.91 57.9896 376.393 62.2934 371.875 65.3266C367.356 68.3598 362.038 69.9862 356.595 70C349.296 70.0138 342.29 67.1328 337.116 61.9896C331.942 56.8464 329.023 49.8616 329 42.5696Z" fill="#F8B42B"/>
<path d="M-0.413025 139C-5.85272 139.017 -11.1753 137.421 -15.7076 134.412C-20.2398 131.404 -23.7781 127.119 -25.8749 122.1C-27.9717 117.081 -28.5328 111.552 -27.4872 106.214C-26.4416 100.876 -23.8362 95.9675 -20.0007 92.1101C-16.1652 88.2527 -11.2719 85.6194 -5.93966 84.5434C-0.607422 83.4674 4.92414 83.9969 9.95538 86.0651C14.9866 88.1332 19.2915 91.6471 22.3254 96.1621C25.3594 100.677 26.9862 105.991 27 111.43C27.0093 118.718 24.1291 125.712 18.9906 130.88C13.8522 136.048 6.87457 138.968 -0.413025 139Z" fill="#EE5426"/>
<path d="M-146 246.412L-146 62.4413C-146 31.8869 -121.231 7.11771 -90.6765 7.11771V7.11771C-60.1221 7.11771 -35.3529 31.8869 -35.3529 62.4412V150.5C-35.3529 182.533 -9.38544 208.5 22.6471 208.5H28.4117C60.4443 208.5 86.4118 182.533 86.4118 150.5V95.0416C86.4118 53.4117 128.969 25.3381 167.239 41.7228L351.819 120.748C390.089 137.133 432.647 109.059 432.647 67.4291V59.7942C432.647 30.7018 456.231 7.11771 485.324 7.11771V7.11771C514.416 7.11771 538 30.7018 538 59.7942V140.5" stroke="#4682EB" stroke-width="14"/>
</g>
</svg>
