<svg width="619" height="247" viewBox="0 0 619 247" fill="none" xmlns="http://www.w3.org/2000/svg">
<g opacity="0.2">
<path d="M216 203.842C216.014 209.281 214.413 214.602 211.4 219.132C208.387 223.662 204.097 227.198 199.073 229.292C194.049 231.386 188.516 231.945 183.174 230.897C177.832 229.849 172.921 227.243 169.062 223.406C165.203 219.57 162.569 214.677 161.493 209.345C160.418 204.013 160.949 198.483 163.019 193.452C165.09 188.422 168.607 184.118 173.125 181.085C177.644 178.052 182.962 176.426 188.405 176.412C195.704 176.398 202.71 179.279 207.884 184.422C213.058 189.566 215.977 196.55 216 203.842Z" fill="#F8B42B"/>
<path d="M517.413 107.412C522.853 107.395 528.175 108.991 532.708 111.999C537.24 115.008 540.778 119.292 542.875 124.312C544.972 129.331 545.533 134.86 544.487 140.198C543.442 145.536 540.836 150.444 537.001 154.302C533.165 158.159 528.272 160.792 522.94 161.868C517.607 162.944 512.076 162.415 507.045 160.347C502.013 158.279 497.709 154.765 494.675 150.25C491.641 145.735 490.014 140.421 490 134.982C489.991 127.694 492.871 120.7 498.009 115.532C503.148 110.364 510.125 107.444 517.413 107.412Z" fill="#EE5426"/>
<path d="M691 6.10352e-05L691 183.971C691 214.525 666.231 239.294 635.676 239.294V239.294C605.122 239.294 580.353 214.525 580.353 183.971V95.9119C580.353 63.8793 554.385 37.9119 522.353 37.9119H516.588C484.556 37.9119 458.588 63.8793 458.588 95.9119V151.37C458.588 193 416.031 221.074 377.761 204.689L193.181 125.664C154.911 109.279 112.353 137.353 112.353 178.983V186.618C112.353 215.71 88.7689 239.294 59.6764 239.294V239.294C30.584 239.294 6.99994 215.71 6.99994 186.618V105.912" stroke="#4682EB" stroke-width="14"/>
</g>
</svg>
