<svg width="568" height="404" viewBox="0 0 568 404" fill="none" xmlns="http://www.w3.org/2000/svg">
<g opacity="0.2">
<path d="M385.463 3.9291C390.903 3.9119 396.225 5.50835 400.757 8.51654C405.29 11.5247 408.828 15.8095 410.925 20.8288C413.022 25.8482 413.583 31.3767 412.537 36.715C411.491 42.0532 408.886 46.9615 405.051 50.8189C401.215 54.6763 396.322 57.3096 390.989 58.3856C385.657 59.4616 380.126 58.932 375.094 56.8639C370.063 54.7957 365.758 51.2819 362.724 46.7669C359.69 42.2518 358.064 36.9384 358.05 31.4987C358.041 24.2111 360.921 17.2169 366.059 12.0491C371.198 6.88132 378.175 3.96133 385.463 3.9291Z" fill="#EE5426"/>
<path d="M560.05 116.941L560.05 300.912C560.05 331.466 535.281 356.235 504.726 356.235V356.235C474.172 356.235 449.403 331.466 449.403 300.912V147.412C449.403 115.379 423.435 89.4119 391.403 89.4119H385.638C353.606 89.4119 327.638 115.379 327.638 147.412V304.033C327.638 348.427 279.801 376.362 241.137 354.547L62.9087 253.987C26.4775 233.432 -18.5973 259.755 -18.5973 301.585V303.559C-18.5973 332.651 -42.1813 356.235 -71.2738 356.235V356.235C-100.366 356.235 -123.95 332.651 -123.95 303.559V67" stroke="#4682EB" stroke-width="14"/>
</g>
</svg>
