<svg width="57" height="54" viewBox="0 0 57 54" fill="none" xmlns="http://www.w3.org/2000/svg">
<path d="M57 22.2831C56.715 23.443 55.9773 24.3192 55.2039 25.1924C52.3984 28.3634 49.6212 31.5594 46.8187 34.7377C46.6825 34.8818 46.5809 35.0544 46.5215 35.2428C46.4621 35.4312 46.4465 35.6304 46.4758 35.8256C46.8142 39.4744 47.1274 43.1261 47.448 46.7778C47.5282 47.6907 47.6262 48.6022 47.6781 49.5166C47.8652 52.7978 44.8786 54.8971 41.8193 53.6225C37.5948 51.8584 33.3762 50.084 29.1635 48.2993C28.9769 48.2105 28.7724 48.1643 28.5653 48.1643C28.3582 48.1643 28.1538 48.2105 27.9671 48.2993C23.7545 50.087 19.5359 51.8609 15.3113 53.6211C12.7389 54.681 9.94531 53.3462 9.51484 50.7323C9.33523 49.6533 9.51484 48.5051 9.60984 47.3952C9.90672 43.7788 10.1917 40.1609 10.5836 36.5533C10.6949 35.5242 10.407 34.8245 9.73453 34.0762C6.94094 30.9669 4.21414 27.8004 1.4532 24.6676C0.884687 24.0237 0.393359 23.3445 0.206328 22.4977C0.188516 22.4154 0.07125 22.3507 0 22.286V20.9629C0.0917253 20.8658 0.167822 20.7552 0.225625 20.6351C0.706563 18.9607 1.81688 17.9581 3.51797 17.5685C8.00227 16.5394 12.4836 15.5104 16.9709 14.4945C17.1482 14.4613 17.3156 14.3887 17.4606 14.2823C17.6055 14.1759 17.7243 14.0384 17.808 13.88C20.1623 9.98135 22.5254 6.08756 24.8974 2.19868C26.2155 0.0361698 28.7568 -0.651829 30.7637 0.678606C31.3382 1.07662 31.8221 1.58943 32.1842 2.18398C34.5859 6.07091 36.9609 9.98577 39.3166 13.9021C39.4043 14.0575 39.5263 14.1911 39.6737 14.2929C39.821 14.3948 39.9897 14.4622 40.1672 14.4901C44.654 15.5035 49.1383 16.5326 53.6201 17.5773C55.3895 17.986 56.5102 19.0474 56.9154 20.8262C56.9362 20.8759 56.9647 20.9221 57 20.9629V22.2831ZM11.6182 49.8591C11.6016 50.1208 11.6453 50.3829 11.7461 50.6253C11.8469 50.8678 12.0022 51.0844 12.2001 51.2586C12.9155 51.9231 13.7127 51.9025 14.5751 51.5409C18.9451 49.6989 23.3255 47.8774 27.6895 46.0207C27.9618 45.8926 28.2594 45.8261 28.5609 45.8261C28.8623 45.8261 29.1599 45.8926 29.4322 46.0207C33.8329 47.8828 38.2405 49.7341 42.655 51.5747C44.2344 52.2318 45.5703 51.3057 45.453 49.6018C45.3462 48.0288 45.1903 46.4602 45.0537 44.8887C44.7717 41.6212 44.4877 38.3527 44.2017 35.0832C44.178 34.8745 44.2004 34.6633 44.2673 34.464C44.3342 34.2647 44.444 34.0823 44.5891 33.9292C45.741 32.6355 46.8736 31.3286 48.0151 30.0261C50.0764 27.6739 52.1382 25.3193 54.2005 22.9623C54.864 22.2008 54.9501 21.3878 54.4973 20.6336C54.1352 20.0265 53.5414 19.8104 52.8927 19.6619C48.2808 18.6093 43.6733 17.5406 39.0584 16.5056C38.7708 16.4501 38.4992 16.332 38.2633 16.1599C38.0274 15.9878 37.833 15.766 37.6942 15.5104C35.2569 11.4686 32.8077 7.43319 30.3466 3.40416C29.3728 1.80322 27.7326 1.80469 26.7573 3.40416C24.2834 7.46945 21.8144 11.5367 19.3503 15.6059C19.228 15.8305 19.0575 16.0259 18.8508 16.1783C18.6441 16.3307 18.4063 16.4364 18.1539 16.488C13.4143 17.5641 8.68211 18.6637 3.94398 19.7442C3.07266 19.9442 2.53383 20.4514 2.36164 21.3084C2.2132 22.0435 2.57687 22.608 3.04594 23.1416C6.18391 26.7081 9.31792 30.2775 12.448 33.8498C12.6199 34.0277 12.7498 34.2411 12.8284 34.4748C12.9069 34.7084 12.9321 34.9564 12.9022 35.2008C12.7894 36.2946 12.7137 37.3912 12.6172 38.4879C12.2966 42.169 11.97 45.856 11.6182 49.8591Z" fill="#4682EB"/>
<path d="M23.7708 24.872C20.2855 21.5276 21.0143 16.8262 23.5897 14.4344C26.4101 11.8132 30.5396 11.772 33.4044 14.3212C34.1316 14.9883 34.7124 15.7966 35.1106 16.6956C35.5087 17.5946 35.7158 18.5652 35.7189 19.5469C35.7219 20.5287 35.5209 21.5005 35.1284 22.4019C34.7358 23.3034 34.1601 24.1152 33.4371 24.7868C34.1511 25.2998 34.9378 25.7541 35.5865 26.3568C36.1998 26.9196 36.692 27.5994 37.0335 28.3552C37.3751 29.111 37.5589 29.9274 37.574 30.7553C37.5993 31.4522 37.6008 32.149 37.5874 32.8458C37.5726 33.6264 37.1569 34.0454 36.3836 34.0469C31.1615 34.0528 25.9395 34.0528 20.7175 34.0469C20.0569 34.0469 19.5508 33.6867 19.5567 33.1104C19.5686 31.8697 19.5077 30.5966 19.769 29.3985C20.2395 27.2404 21.6927 25.7806 23.7708 24.872ZM28.5386 14.6549C27.5645 14.6581 26.6131 14.9472 25.8047 15.4856C24.9964 16.024 24.3673 16.7877 23.9969 17.68C23.6265 18.5724 23.5315 19.5535 23.7239 20.4993C23.9162 21.4451 24.3873 22.3132 25.0776 22.994C25.7679 23.6748 26.6465 24.1377 27.6023 24.3242C28.5581 24.5107 29.5483 24.4125 30.4477 24.042C31.3472 23.6714 32.1156 23.0451 32.6558 22.2423C33.1961 21.4394 33.484 20.496 33.4831 19.5312C33.4849 18.8886 33.3581 18.252 33.1099 17.6583C32.8618 17.0645 32.4974 16.5253 32.0376 16.0719C31.5778 15.6185 31.0319 15.2598 30.4313 15.0166C29.8308 14.7733 29.1875 14.6504 28.5386 14.6549ZM35.3133 31.8256C35.6815 29.2779 33.9492 26.864 31.5089 26.7038C29.5319 26.5726 27.5483 26.5726 25.5714 26.7038C23.1415 26.8728 21.3394 29.4161 21.8204 31.8256H35.3133Z" fill="#F8B42B"/>
<path d="M28.5295 42.7497C26.4217 42.7497 24.3124 42.7586 22.2031 42.7497C21.2635 42.7497 20.6683 41.8574 21.1641 41.1459C21.3615 40.8607 21.8112 40.5828 22.1482 40.5799C26.4202 40.5431 30.6937 40.5505 34.9673 40.5593C35.1161 40.5523 35.2647 40.5754 35.4042 40.6273C35.5437 40.6791 35.671 40.7586 35.7784 40.8608C35.8858 40.9631 35.971 41.0859 36.0288 41.2219C36.0866 41.3578 36.1159 41.5041 36.1147 41.6516C36.1147 42.2837 35.6323 42.7483 34.9183 42.7512C32.7852 42.7556 30.6581 42.7497 28.5295 42.7497Z" fill="#4682EB"/>
<path d="M21.2846 38.4218C20.5825 38.4218 19.8804 38.4321 19.1798 38.4218C18.3797 38.4071 17.8795 37.9573 17.8928 37.2942C17.9062 36.6312 18.3857 36.2328 19.1709 36.227C20.5751 36.2181 21.9788 36.2181 23.3821 36.227C24.1524 36.227 24.6438 36.668 24.6467 37.3119C24.6497 37.9558 24.1495 38.4027 23.3895 38.4189C22.6889 38.4336 21.9867 38.4218 21.2846 38.4218Z" fill="#4682EB"/>
<path d="M35.8282 36.2241C36.5704 36.2241 37.3052 36.2109 38.0429 36.2241C38.7435 36.2403 39.2007 36.6652 39.2171 37.2811C39.2234 37.4287 39.1991 37.576 39.1456 37.7138C39.092 37.8517 39.0105 37.9771 38.9059 38.0825C38.8014 38.1878 38.6761 38.2707 38.5379 38.3261C38.3996 38.3814 38.2514 38.4081 38.1023 38.4043C36.5902 38.4317 35.0766 38.4317 33.5616 38.4043C33.4171 38.4053 33.2739 38.3778 33.1403 38.3234C33.0067 38.2691 32.8853 38.189 32.7832 38.0878C32.6811 37.9865 32.6004 37.8662 32.5457 37.7338C32.491 37.6014 32.4635 37.4595 32.4646 37.3164C32.4646 36.7122 32.9322 36.2477 33.6121 36.23C34.3498 36.208 35.089 36.2256 35.8282 36.2241Z" fill="#4682EB"/>
<path d="M28.5325 36.2329C28.8228 36.2278 29.1033 36.337 29.3123 36.5366C29.5214 36.7362 29.6418 37.0098 29.6473 37.2973C29.6434 37.5936 29.522 37.8766 29.3093 38.0851C29.0965 38.2936 28.8096 38.4109 28.5103 38.4116C28.2207 38.4024 27.9463 38.2815 27.7455 38.0747C27.5447 37.8679 27.4335 37.5915 27.4356 37.3046C27.4344 37.1623 27.462 37.0212 27.5169 36.8897C27.5718 36.7581 27.6528 36.6388 27.7551 36.5389C27.8574 36.4389 27.9789 36.3603 28.1125 36.3078C28.246 36.2552 28.3889 36.2298 28.5325 36.2329Z" fill="#4682EB"/>
</svg>
