<svg width="57" height="58" viewBox="0 0 57 58" fill="none" xmlns="http://www.w3.org/2000/svg">
<path d="M30.33 0.00748799L31.8618 0.209709C32.6157 0.311571 33.0655 0.808891 32.9853 1.46051C32.9052 2.11212 32.3367 2.5091 31.6035 2.4312C25.2332 1.72416 19.3305 3.09478 14.0274 6.71985C7.45227 11.2137 3.43597 17.4767 2.58403 25.4594C1.39665 36.5608 5.65488 45.276 14.9431 51.2783C24.4036 57.3915 37.2064 56.2216 45.6338 48.7662C50.5422 44.4221 53.567 39.0115 54.4887 32.4863C55.4712 25.5253 53.895 19.141 49.9099 13.3708C49.8579 13.2944 49.803 13.221 49.7436 13.1461C49.6871 13.1041 49.6264 13.068 49.5626 13.0383C49.5626 13.4277 49.573 13.7708 49.5626 14.1123C49.5359 14.7639 49.0891 15.2298 48.4924 15.2463C48.3479 15.2511 48.2038 15.2268 48.0686 15.175C47.9334 15.1231 47.8097 15.0447 47.7048 14.9442C47.5998 14.8437 47.5157 14.7232 47.4573 14.5897C47.3989 14.4561 47.3673 14.3122 47.3644 14.1662C47.3328 12.7282 47.3328 11.2896 47.3644 9.8506C47.3778 9.17802 47.8468 8.76009 48.5266 8.7541C49.896 8.74112 51.266 8.74112 52.6364 8.7541C53.3266 8.7541 53.7807 9.21996 53.7852 9.8566C53.7896 10.4932 53.3399 10.9591 52.6557 10.9846C52.1243 11.004 51.593 10.9846 50.9741 10.9846C51.1076 11.1868 51.1878 11.3231 51.2813 11.4504C54.5956 15.9338 56.485 20.958 56.908 26.5394C56.9299 26.7028 56.9606 26.8648 57 27.0248V30.5C56.8516 31.6445 56.7314 32.7949 56.5295 33.9304C53.5002 50.9427 35.976 61.4195 19.663 55.9789C8.78213 52.3583 1.04638 42.4328 0.203338 31.0378C0.18998 30.8566 0.0697584 30.6828 0 30.506V26.9109C0.0858787 26.76 0.153167 26.599 0.20037 26.4316C0.403708 25.1044 0.522446 23.7607 0.794058 22.4485C3.09163 11.3381 12.4823 2.28589 23.5947 0.441901C24.6499 0.266639 25.7141 0.142307 26.7753 0L30.33 0.00748799Z" fill="#4682EB"/>
<path d="M28.5639 9.40571C25.1012 9.53753 21.8967 10.4333 18.9298 12.1949C18.7695 12.2893 18.6137 12.3911 18.4504 12.4765C17.8448 12.7956 17.2185 12.6458 16.9023 12.111C16.821 11.9841 16.7672 11.8411 16.7445 11.6916C16.7218 11.5421 16.7307 11.3895 16.7706 11.2437C16.8106 11.098 16.8807 10.9624 16.9763 10.846C17.0719 10.7295 17.1909 10.6348 17.3253 10.5681C18.6344 9.87757 19.9302 9.12709 21.3105 8.62077C32.0444 4.69311 43.737 9.91052 48.1482 20.5446C53.383 33.1649 45.3905 47.6577 32.0221 49.8043C20.5238 51.6438 9.95916 44.2304 7.7269 32.6646C6.68794 27.2539 7.69276 22.1609 10.5247 17.4438C10.9269 16.7772 11.5473 16.5795 12.1143 16.9135C12.7079 17.2625 12.8341 17.9186 12.4111 18.6182C10.2931 22.1219 9.30611 25.9268 9.66529 30.0117C10.3273 37.5195 14.0037 43.068 20.8207 46.1642C32.034 51.2573 44.6914 44.5659 47.179 32.398C49.2316 22.3616 42.5987 12.0976 32.6722 9.99291C31.3171 9.7083 29.9338 9.59744 28.5639 9.40571Z" fill="#4682EB"/>
<path d="M32.3842 28.5287C32.3115 30.3263 31.5783 31.5381 30.0926 32.2332C29.4137 32.5449 28.6582 32.6451 27.9227 32.521C27.1871 32.397 26.5049 32.0542 25.9635 31.5366C24.7761 30.3907 24.4451 28.9901 24.9705 27.4397C25.1189 26.9903 25.0566 26.7432 24.7405 26.4346C23.6377 25.3545 22.5587 24.2505 21.4752 23.151C21.0804 22.7511 20.9661 22.2792 21.2377 21.7714C21.4826 21.31 21.9071 21.0958 22.4013 21.2232C22.6984 21.3187 22.9669 21.4882 23.182 21.716C24.2705 22.7855 25.344 23.8686 26.4028 24.9651C26.6388 25.2077 26.8288 25.2766 27.1672 25.1343C27.6029 24.946 28.072 24.8489 28.546 24.8489C29.02 24.8489 29.4891 24.946 29.9248 25.1343C30.2885 25.2841 30.4814 25.1943 30.7308 24.9411C33.0264 22.6073 35.3289 20.2804 37.6383 17.9606C38.3611 17.2326 38.989 17.1292 39.5114 17.661C40.0339 18.1928 39.9359 18.8279 39.2146 19.5529C36.9388 21.8498 34.6585 24.1467 32.3738 26.4436C32.077 26.7431 31.9107 26.9903 32.1259 27.4472C32.307 27.8052 32.3263 28.2561 32.3842 28.5287ZM30.1445 28.692C30.1403 28.3739 30.0426 28.0643 29.8638 27.8023C29.685 27.5404 29.4332 27.3379 29.1402 27.2206C28.8473 27.1034 28.5264 27.0765 28.2183 27.1436C27.9102 27.2106 27.6288 27.3684 27.4097 27.5971C27.1906 27.8258 27.0438 28.115 26.9878 28.428C26.9318 28.7411 26.9692 29.0638 27.0952 29.3554C27.2212 29.6469 27.4302 29.8942 27.6956 30.0657C27.961 30.2372 28.271 30.3253 28.5861 30.3188C28.7949 30.3177 29.0015 30.2744 29.1936 30.1916C29.3857 30.1088 29.5594 29.988 29.7046 29.8365C29.8498 29.6849 29.9635 29.5056 30.039 29.3091C30.1146 29.1125 30.1504 28.9027 30.1445 28.692Z" fill="#F8B42B"/>
<path d="M43.6701 29.838C43.4311 29.838 43.1907 29.8499 42.9517 29.838C42.6725 29.8309 42.4064 29.7167 42.2077 29.5186C42.0089 29.3206 41.8924 29.0535 41.8818 28.7718C41.8712 28.4901 41.9673 28.2149 42.1507 28.0023C42.334 27.7896 42.5907 27.6554 42.8686 27.627C43.4015 27.582 43.9372 27.582 44.4701 27.627C44.7479 27.6552 45.0045 27.7891 45.188 28.0015C45.3714 28.2139 45.4678 28.4888 45.4576 28.7704C45.4474 29.052 45.3314 29.319 45.133 29.5173C44.9347 29.7156 44.669 29.8303 44.3899 29.838C44.151 29.8499 43.9105 29.8395 43.6701 29.838Z" fill="#F8B42B"/>
<path d="M29.6457 43.9786C29.6457 44.2213 29.665 44.464 29.6457 44.7036C29.5849 45.3492 29.1203 45.7777 28.5133 45.7657C27.9062 45.7537 27.4639 45.3163 27.4402 44.6572C27.4238 44.2078 27.4253 43.7584 27.4402 43.318C27.4595 42.6529 27.8854 42.199 28.4791 42.1676C29.0728 42.1361 29.5923 42.587 29.6472 43.2536C29.6635 43.4933 29.6472 43.7374 29.6457 43.9786Z" fill="#F8B42B"/>
<path d="M29.6696 13.4697C29.6696 13.7108 29.6815 13.9535 29.6696 14.1947C29.6636 14.4673 29.5566 14.7278 29.3699 14.9249C29.1831 15.122 28.93 15.2415 28.6604 15.2597C28.3809 15.2888 28.1013 15.2059 27.882 15.0288C27.6626 14.8516 27.521 14.5946 27.4878 14.313C27.4334 13.7577 27.4309 13.1985 27.4804 12.6428C27.5039 12.3603 27.6373 12.0987 27.8515 11.9153C28.0658 11.732 28.3433 11.6418 28.6233 11.6646C29.2169 11.6871 29.634 12.114 29.6711 12.7431C29.6845 12.9783 29.6696 13.221 29.6696 13.4697Z" fill="#F8B42B"/>
<path d="M13.4559 27.5835C13.6771 27.5835 13.9012 27.5745 14.1194 27.5835C14.7398 27.6135 15.1821 28.0329 15.2192 28.6156C15.2309 28.7601 15.2142 28.9056 15.17 29.0435C15.1257 29.1815 15.0548 29.3092 14.9614 29.4194C14.868 29.5296 14.7539 29.62 14.6257 29.6854C14.4974 29.7508 14.3576 29.7899 14.2144 29.8005C13.6996 29.841 13.1825 29.841 12.6678 29.8005C12.5244 29.7924 12.384 29.7554 12.255 29.6917C12.126 29.6279 12.011 29.5388 11.9166 29.4295C11.8223 29.3202 11.7506 29.1929 11.7057 29.0552C11.6609 28.9175 11.6438 28.7721 11.6556 28.6276C11.6838 28.0374 12.1172 27.6135 12.7376 27.579C12.9765 27.5745 13.2095 27.5835 13.4559 27.5835Z" fill="#F8B42B"/>
<path d="M37.34 2.27833C37.3295 2.57104 37.2056 2.8479 36.9949 3.04933C36.7843 3.25076 36.5036 3.36065 36.2135 3.35536C35.9237 3.34014 35.6506 3.21413 35.4496 3.00294C35.2486 2.79174 35.1349 2.51122 35.1315 2.21841C35.1362 2.06881 35.1704 1.92165 35.2319 1.78547C35.2934 1.6493 35.3811 1.5268 35.4899 1.42508C35.5987 1.32337 35.7264 1.24446 35.8657 1.19293C36.0049 1.1414 36.1529 1.11827 36.301 1.12489C36.4446 1.13082 36.5856 1.16549 36.7158 1.22687C36.846 1.28824 36.9628 1.3751 37.0594 1.48241C37.1561 1.58971 37.2307 1.71533 37.2788 1.85196C37.327 1.98859 37.3478 2.13352 37.34 2.27833Z" fill="#4682EB"/>
<path d="M15.4447 14.3685C15.4455 14.6613 15.3316 14.9426 15.1279 15.1511C14.9241 15.3595 14.6469 15.4783 14.3568 15.4814C14.2085 15.4827 14.0615 15.454 13.9244 15.3971C13.7872 15.3403 13.6627 15.2564 13.5581 15.1504C13.4534 15.0444 13.3708 14.9184 13.315 14.7797C13.2593 14.6411 13.2315 14.4926 13.2332 14.343C13.2469 14.0508 13.3707 13.775 13.5793 13.5719C13.7879 13.3689 14.0655 13.2541 14.3553 13.251C14.6453 13.2576 14.9212 13.378 15.1246 13.5866C15.328 13.7953 15.4429 14.0757 15.4447 14.3685Z" fill="#F8B42B"/>
</svg>
