<svg width="57" height="58" viewBox="0 0 57 58" fill="none" xmlns="http://www.w3.org/2000/svg">
<path d="M8.04057 28.5526C8.10398 26.9283 8.87397 26.0186 10.5483 26.0232C10.0954 24.3927 10.0592 22.8431 10.5363 21.2995C10.5363 21.2812 10.5363 21.2614 10.5498 21.2446C11.0526 20.0942 11.4557 18.959 11.5101 17.6424C11.5539 16.4859 12.3389 15.5823 13.3671 15.0063C13.5118 14.9323 13.6358 14.8228 13.7276 14.6878C13.8194 14.5528 13.8761 14.3967 13.8925 14.2338C14.4074 11.491 16.8366 9.81481 19.5678 10.307C19.6793 10.3185 19.7919 10.3064 19.8985 10.2715C20.0051 10.2366 20.1033 10.1797 20.1869 10.1043C22.5814 7.56725 25.6599 7.09792 28.7927 8.84112C28.9104 8.75731 29.0448 8.66435 29.1762 8.56683C29.9913 7.96558 31.0033 7.70154 32.005 7.82873C33.0068 7.95592 33.9224 8.46474 34.5646 9.25102C34.7418 9.44886 34.9845 9.57457 35.247 9.60453C39.1816 9.86052 41.9566 12.137 43.03 15.9876C43.0695 16.0935 43.13 16.19 43.2079 16.2712C43.2858 16.3525 43.3794 16.4167 43.483 16.46C45.5876 17.2402 46.6037 19.151 46.0753 21.3711C46.0232 21.5299 46.0232 21.7014 46.0753 21.8602C46.772 23.1332 46.9973 24.6147 46.7109 26.0399C48.2947 26.1055 48.9092 27.0746 48.9952 28.5526C49.5614 28.5526 50.0853 28.5526 50.6092 28.5526C51.9227 28.5694 52.5719 29.1271 52.818 30.4315C54.1808 37.513 55.5462 44.5924 56.9141 51.6698C57.3504 53.9265 56.0958 55.4884 53.8145 55.4899C47.4311 55.4899 41.0472 55.4899 34.6627 55.4899C34.4717 55.4769 34.2803 55.5077 34.1027 55.58C33.9252 55.6523 33.7662 55.7643 33.6376 55.9074C32.7227 56.8522 31.4907 57.1264 30.2542 57.3078C28.6115 57.5661 26.9328 57.4622 25.3337 57.003C24.4943 56.7562 23.7258 56.3813 23.1204 55.6987C22.9845 55.5463 22.6554 55.5113 22.4138 55.5113C16.0485 55.5021 9.68473 55.5113 3.31944 55.4945C2.81292 55.5047 2.30826 55.4295 1.82626 55.272C0.49009 54.7874 -0.224042 53.3932 0.0628184 51.8984C1.44881 44.6858 2.84084 37.4764 4.23891 30.2699C4.45028 29.1759 5.14478 28.5938 6.25146 28.5679C6.82971 28.5389 7.41098 28.5526 8.04057 28.5526ZM42.2797 33.6085C42.5484 34.2729 42.8639 34.8687 43.0255 35.5026C43.1766 36.0477 43.2126 36.6187 43.1312 37.1787C42.9274 38.317 42.1921 39.0743 41.0975 39.4034C40.0029 39.7326 38.9672 39.475 38.1911 38.6415C37.422 37.829 36.4617 37.2262 35.3995 36.8892C34.7365 36.6766 34.104 36.3769 33.5183 35.9978C32.9144 35.5925 32.1882 35.1262 31.9436 34.5121C31.4907 33.3861 30.7071 33.0996 29.688 33.0371C29.4791 33.0102 29.2671 33.0524 29.0841 33.1575C25.992 35.5056 22.1752 34.8641 20.0374 31.6337C19.9754 31.5553 19.8966 31.4922 19.8069 31.4492C19.7171 31.4061 19.6189 31.3843 19.5195 31.3853C16.2312 31.9136 13.5966 30.8327 11.6158 28.1428C11.2292 27.6216 10.7567 27.966 10.3339 28.0224C10.192 28.0422 10.0093 28.3378 9.97763 28.5313C9.07175 33.9397 8.17443 39.3501 7.28567 44.7626C7.04863 46.1995 6.82065 47.6364 6.57456 49.1571C13.5815 46.8714 20.5296 46.8867 27.5335 49.1571V39.4431C27.5335 38.6812 27.5244 37.9193 27.5335 37.1574C27.5456 36.4336 27.923 36.0009 28.5073 36.007C29.0916 36.013 29.4434 36.4443 29.4645 37.1787C29.4645 37.3494 29.4645 37.5216 29.4645 37.6922V49.1647C36.479 46.8897 43.4271 46.8882 50.4295 49.1647C49.2594 42.0685 48.1075 35.0713 46.957 28.0925C45.9998 27.8548 45.6118 28.0026 45.3959 28.8544C44.9297 30.7536 43.8292 32.4326 42.2797 33.6085ZM44.638 23.4892C44.3979 23.6278 44.1926 23.835 43.9721 23.8518C43.6249 23.8792 43.1659 23.8945 42.9455 23.6994C42.725 23.5044 42.6345 23.0244 42.6767 22.6953C42.7069 22.4621 43.027 22.2275 43.2655 22.0675C44.0099 21.5677 44.3994 20.8957 44.268 19.9951C44.0461 18.4714 42.5046 17.7902 41.1216 18.5856C40.5177 18.9331 39.9953 18.8569 39.6828 18.3739C39.3703 17.8908 39.5182 17.3072 40.1146 16.9323C40.4302 16.7343 40.7714 16.5804 41.0945 16.4097C40.5766 13.5145 37.5993 11.523 35.4871 11.6525C35.4644 11.7759 35.4494 11.9085 35.4146 12.0334C35.3719 12.2415 35.2574 12.4275 35.0915 12.5584C34.9256 12.6892 34.7191 12.7565 34.5088 12.7481C34.0135 12.7481 33.695 12.4921 33.5712 12.0075C33.5373 11.8404 33.5126 11.6715 33.4972 11.5016C33.4282 11.0194 33.1901 10.5781 32.8261 10.258C32.4622 9.9378 31.9966 9.76 31.5138 9.75687C31.031 9.75373 30.5631 9.92546 30.1952 10.2409C29.8272 10.5563 29.5835 10.9944 29.5083 11.4757C29.4826 11.6449 29.4736 11.817 29.4358 11.9831C29.393 12.2191 29.2622 12.4295 29.0704 12.5711C28.8787 12.7128 28.6404 12.775 28.4047 12.745C28.1758 12.7284 27.9618 12.6248 27.8057 12.4551C27.6496 12.2854 27.5631 12.0623 27.5637 11.8308C27.5543 11.5079 27.5925 11.1854 27.6769 10.8738C27.763 10.5691 27.6679 10.4167 27.4112 10.2918C26.8628 9.99247 26.2597 9.8092 25.6388 9.75313C25.0178 9.69706 24.3921 9.76938 23.7998 9.96566C22.2824 10.4563 21.2241 11.4742 20.753 13.0041C20.5447 13.6821 20.0419 14.1286 19.4606 13.9625C18.8794 13.7964 18.6786 13.2905 18.8869 12.4753C18.9005 12.3907 18.9066 12.305 18.905 12.2193C17.4194 12.0334 15.9534 13.1336 15.8598 14.4867L16.2282 14.5751C17.1007 14.7691 17.8797 15.2623 18.4325 15.9709C18.8009 16.4417 18.7692 16.9918 18.3706 17.3514C17.972 17.711 17.433 17.6882 17.0118 17.2676C16.9317 17.1884 16.8608 17.0954 16.7838 17.0146C16.4972 16.7079 16.1212 16.5014 15.7104 16.4252C15.2995 16.349 14.8753 16.4071 14.4995 16.591C14.1283 16.7621 13.8177 17.0435 13.6092 17.3974C13.4007 17.7514 13.3041 18.1611 13.3324 18.5719C13.3701 19.3201 13.7717 19.8306 14.3485 20.2588C14.453 20.3326 14.5417 20.427 14.6092 20.5363C14.6766 20.6456 14.7215 20.7675 14.7411 20.8947C14.7607 21.022 14.7546 21.1519 14.7232 21.2767C14.6918 21.4015 14.6357 21.5186 14.5583 21.621C14.408 21.8192 14.1877 21.9513 13.9432 21.9896C13.6988 22.0279 13.4492 21.9696 13.2463 21.8267C13.0289 21.6896 12.8311 21.522 12.5715 21.3284C11.7713 23.5242 11.9977 25.5356 13.4139 27.326C14.8935 29.1957 16.8683 29.8357 19.2055 29.4593C19.2613 28.8498 19.2055 28.4704 18.4959 28.2921C17.208 27.9645 16.278 26.7043 16.1934 25.4152C16.1436 24.6716 16.4411 24.216 17.0178 24.1444C17.6323 24.0682 18.0112 24.4385 18.1154 25.211C18.2196 25.9836 18.674 26.4102 19.444 26.4895C19.6433 26.0826 19.817 25.662 20.048 25.2704C20.1581 25.0925 20.3228 24.9557 20.517 24.8809C20.7112 24.8061 20.9243 24.7973 21.1239 24.856C21.3235 24.9146 21.4987 25.0374 21.6228 25.2058C21.7469 25.3741 21.8131 25.5787 21.8114 25.7885C21.8008 26.0384 21.6604 26.2914 21.5517 26.5291C20.8602 28.0346 20.9387 29.4913 21.8869 30.8475C23.3619 32.9548 26.3196 33.1849 28.157 31.3457C28.5345 30.9694 28.9119 30.6936 29.4509 30.8977C31.0408 31.5072 32.6426 31.5194 34.2732 31.0821C34.8666 30.9297 35.3784 31.2345 35.5037 31.7678C35.629 32.3011 35.3406 32.7628 34.7715 32.9335C34.3442 33.0615 33.9048 33.1484 33.3477 33.2824C33.621 33.572 33.8007 33.8462 34.0528 34.0123C34.5109 34.3435 35.006 34.6191 35.5279 34.8336C37.0482 35.3822 38.5082 35.9902 39.5907 37.2869C39.8927 37.645 40.3683 37.6618 40.7895 37.4164C41.2107 37.1711 41.3934 36.7582 41.2636 36.298C41.0899 35.7068 40.8242 35.143 40.6023 34.5792C39.95 34.7483 39.3944 34.9236 38.8222 35.0363C38.7016 35.0593 38.5777 35.0577 38.4577 35.0317C38.3378 35.0056 38.2242 34.9556 38.1236 34.8847C38.023 34.8137 37.9375 34.7231 37.8721 34.6184C37.8067 34.5136 37.7627 34.3966 37.7427 34.2744C37.6929 34.0393 37.7339 33.7939 37.8574 33.5882C37.9809 33.3826 38.1775 33.2324 38.407 33.1682C38.5837 33.1087 38.7739 33.0859 38.9551 33.0386C40.3322 32.7094 41.5517 31.904 42.4019 30.7621C42.3195 30.7561 42.2368 30.7561 42.1543 30.7621C40.3199 31.1476 38.6471 30.8078 37.1282 29.6772C36.9863 29.5705 36.713 29.5736 36.5243 29.6162C35.0613 29.9438 33.6104 29.3587 32.854 28.1138C32.4766 27.4921 32.5385 26.9374 33.0246 26.6083C33.5108 26.2792 34.015 26.4102 34.4574 27.0228C34.9632 27.7252 35.6924 27.937 36.3749 27.579C37.0271 27.2392 37.2641 26.5321 36.9984 25.7184C36.7765 25.0388 36.9803 24.5177 37.5465 24.3196C38.0673 24.1383 38.558 24.4187 38.8101 25.0586C39.2435 26.1619 39.0819 27.2102 38.4855 28.1991C39.7915 29.2444 41.8675 29.1942 43.2897 28.1031C44.7119 27.0121 45.2781 25.0769 44.638 23.4892ZM33.9365 50.0028C34.0166 51.0237 34.1192 51.9837 34.157 52.9513C34.1766 53.4222 34.3397 53.5486 34.7971 53.5471C41.1232 53.5339 47.4482 53.5308 53.7722 53.538C54.8804 53.538 55.2337 53.0808 55.0223 51.9959C53.8265 45.8134 52.6333 39.631 51.4426 33.4485C51.2524 32.4687 51.0546 31.492 50.8674 30.5534H49.3364C50.3268 36.5814 51.2992 42.5531 52.2956 48.5232C52.5976 50.3518 51.3686 51.4991 49.6097 50.946C46.5367 49.9701 43.3361 49.4642 40.1146 49.4451C38.0421 49.4289 35.9729 49.6167 33.9365 50.0059V50.0028ZM23.0902 49.9312C21.6196 49.7788 20.1868 49.567 18.748 49.4893C14.8658 49.2846 10.9789 49.7878 7.27359 50.975C5.71548 51.4641 4.4231 50.3319 4.6858 48.7213C5.47996 43.8544 6.29373 38.989 7.10147 34.122C7.29775 32.935 7.48647 31.7465 7.68274 30.5351H6.17295C6.12313 30.7545 6.0733 30.9374 6.03858 31.1217C5.14176 35.7591 4.24595 40.3959 3.35115 45.0323C2.89318 47.3972 2.43672 49.7626 1.98177 52.1285C1.88514 52.6237 1.89873 53.1159 2.40451 53.3673C2.69787 53.4899 3.01431 53.5461 3.33152 53.5319C9.60018 53.541 15.8688 53.541 22.1375 53.5319C22.2482 53.5521 22.3618 53.549 22.4712 53.5227C22.6101 53.4496 22.8154 53.3292 22.8275 53.218C22.9286 52.1666 22.9996 51.1076 23.0902 49.9342V49.9312ZM25.0031 50.3883C24.8989 51.6073 24.8521 52.7014 24.7011 53.7848C24.6121 54.4187 24.8264 54.7402 25.3866 54.9383C27.3318 55.641 29.4536 55.6695 31.4167 55.0191C32.383 54.7143 32.4056 54.6153 32.2939 53.5821C32.2682 53.3383 32.2622 53.09 32.241 52.8447C32.1731 52.0584 32.1006 51.2706 32.0206 50.3792C31.0498 50.722 30.156 51.007 29.2894 51.3559C29.0517 51.4616 28.7951 51.517 28.5354 51.5185C28.2757 51.5201 28.0185 51.4679 27.7796 51.3651C26.8888 51.0115 25.9784 50.7312 25.0031 50.3929V50.3883Z" fill="#4682EB"/>
<path d="M21.3795 4.34913C21.3101 4.99978 21.1153 5.33958 20.6548 5.47215C20.1943 5.60472 19.7822 5.47215 19.598 5.05464C19.145 4.07638 18.7344 3.07373 18.366 2.06347C18.215 1.64291 18.3901 1.22844 18.8189 0.996831C19.2477 0.765218 19.7248 0.765212 19.9377 1.16292C20.4887 2.24632 20.9477 3.38611 21.3795 4.34913Z" fill="#F8B42B"/>
<path d="M38.6984 1.91251C38.6669 2.0556 38.6265 2.19657 38.5776 2.3346C38.247 3.15744 37.9148 3.98026 37.5676 4.797C37.2988 5.42784 36.8127 5.66556 36.2722 5.44766C35.7317 5.22976 35.5384 4.68577 35.783 4.07626C36.1242 3.21685 36.482 2.36355 36.8399 1.51328C37.0437 1.03786 37.4226 0.807769 37.9269 0.917481C38.404 1.01348 38.6667 1.34262 38.6984 1.91251Z" fill="#F8B42B"/>
<path d="M6.29825 14.0509C6.44766 14.0863 6.59487 14.1306 6.73911 14.1835C7.53628 14.5096 8.33496 14.8356 9.12609 15.177C9.77832 15.4589 10.0229 15.9785 9.78436 16.524C9.54582 17.0695 9.04305 17.2341 8.40894 16.9811C7.55742 16.6367 6.7059 16.2924 5.86796 15.9145C5.65213 15.8358 5.47439 15.6766 5.37132 15.4697C5.26825 15.2628 5.24768 15.0239 5.31387 14.8021C5.42861 14.3084 5.77133 14.089 6.29825 14.0509Z" fill="#F8B42B"/>
<path d="M48.1739 17.196C47.6606 17.1016 47.3345 16.8699 47.1986 16.4341C47.0476 15.9633 47.1986 15.5199 47.6349 15.3203C48.5861 14.8814 49.5599 14.4822 50.5413 14.115C50.9942 13.9413 51.3988 14.1546 51.6283 14.5873C51.8578 15.0201 51.8201 15.5016 51.4275 15.7088C50.3722 16.2513 49.2625 16.7084 48.1739 17.196Z" fill="#F8B42B"/>
<path d="M13.9771 8.78459C13.8261 8.98268 13.6585 9.36516 13.3853 9.47944C13.2248 9.53572 13.0543 9.55693 12.8852 9.5417C12.716 9.52646 12.5519 9.47511 12.4039 9.39105C11.967 9.06369 11.5759 8.67824 11.2413 8.24517C11.0991 8.08846 11.019 7.88433 11.0165 7.6718C11.014 7.45928 11.0892 7.25329 11.2278 7.09321C11.5086 6.71836 11.9555 6.51264 12.3103 6.78083C12.884 7.21358 13.3551 7.78499 13.8563 8.3046C13.9227 8.38079 13.9152 8.52403 13.9771 8.78459Z" fill="#F8B42B"/>
<path d="M46.0753 7.53988C45.953 7.85225 45.9243 8.08234 45.7929 8.22558C45.428 8.65558 45.0308 9.0565 44.6047 9.42479C44.2122 9.74783 43.7638 9.70821 43.3818 9.35012C43.2034 9.19131 43.0941 8.96805 43.0774 8.72856C43.0608 8.48908 43.1381 8.25259 43.2927 8.07017C43.6274 7.63915 44.0167 7.2544 44.4507 6.92581C44.5974 6.8407 44.7601 6.78762 44.9284 6.77003C45.0967 6.75245 45.2668 6.77074 45.4276 6.82371C45.7024 6.93343 45.8775 7.30522 46.0753 7.53988Z" fill="#F8B42B"/>
<path d="M29.4782 1.45996C29.4782 2.43822 29.1762 2.90906 28.5255 2.92125C27.8748 2.93344 27.5426 2.44736 27.5426 1.43405C27.5426 0.471024 27.8732 -0.010493 28.524 0.000173382C29.1747 0.0108398 29.4782 0.483221 29.4782 1.45996Z" fill="#F8B42B"/>
<path d="M28.3232 25.2628C27.1576 24.9581 26.2095 24.443 25.4274 23.6369C24.9246 23.1173 24.8688 22.5566 25.2764 22.133C25.6841 21.7094 26.2548 21.7536 26.7711 22.2366C29.0932 24.408 32.4736 23.4556 33.3251 20.3928C33.5244 19.6767 33.9487 19.3567 34.5239 19.4877C35.0991 19.6188 35.3769 20.1597 35.1837 20.8896C34.5918 23.1067 33.1983 24.5466 31.0076 25.1729C30.8483 25.2068 30.6989 25.2774 30.5711 25.3792C30.4433 25.4809 30.3406 25.6111 30.2708 25.7596C29.4163 27.4007 28.059 28.2997 26.2125 28.4033C25.5255 28.4414 25.0907 28.0986 25.0333 27.5348C24.976 26.971 25.3912 26.5169 26.0902 26.4681C26.5283 26.4497 26.9566 26.3318 27.3432 26.1231C27.7298 25.9144 28.0648 25.6203 28.3232 25.2628Z" fill="#F8B42B"/>
<path d="M25.243 15.59C25.9345 15.5793 26.3467 15.9115 26.3724 16.4966C26.398 17.0817 26.0266 17.4596 25.4001 17.5267C23.8797 17.6897 23.1233 18.441 22.921 19.9723C22.9135 20.143 22.8767 20.3111 22.8123 20.4691C22.5843 20.9003 22.2174 21.0954 21.7328 20.9811C21.2164 20.8577 21.002 20.4843 20.9945 19.9754C20.9643 17.6867 22.9632 15.625 25.243 15.59Z" fill="#F8B42B"/>
</svg>
