<svg width="57" height="58" viewBox="0 0 57 58" fill="none" xmlns="http://www.w3.org/2000/svg">
<path d="M29.0623 0C30.2435 0.281506 31.3104 0.769918 32.03 1.81008C33.076 3.32599 33.2224 4.93902 32.341 6.56471C31.4457 8.21574 29.9939 8.99974 28.146 8.84772C26.3219 8.69712 25.0096 7.70481 24.3959 5.95666C23.4573 3.28236 24.9831 0.671391 27.743 0.0830442C27.8143 0.0622932 27.8835 0.0344766 27.9494 0L29.0623 0ZM28.5198 7.19528C29.0596 7.19277 29.5864 7.0287 30.0337 6.72385C30.4811 6.41899 30.8287 5.98706 31.0327 5.48271C31.2367 4.97836 31.2879 4.42427 31.1797 3.89057C31.0716 3.35686 30.809 2.86753 30.4252 2.48451C30.0414 2.10148 29.5536 1.84198 29.0236 1.73885C28.4936 1.63572 27.9452 1.69359 27.4478 1.90514C26.9505 2.11669 26.5264 2.47241 26.2294 2.92728C25.9324 3.38215 25.7758 3.91572 25.7794 4.46046C25.7845 5.18954 26.0759 5.88682 26.5896 6.39946C27.1033 6.9121 27.7974 7.19828 28.5198 7.19528Z" fill="#4682EB"/>
<path d="M0 28.2083C0.278923 27.0372 0.772616 26.0097 1.74606 25.2398C3.68318 23.7098 6.67463 24.1996 8.06366 26.3053C9.4527 28.411 8.78747 31.3527 6.65928 32.5716C3.95234 34.1199 0.757276 32.6715 0.0906499 29.5919C0.0662734 29.5031 0.0359879 29.4161 0 29.3315V28.2083ZM1.67354 28.7558C1.67051 29.3003 1.8275 29.8334 2.12466 30.2878C2.42182 30.7422 2.8458 31.0975 3.343 31.3087C3.8402 31.5199 4.38829 31.5776 4.91799 31.4745C5.44768 31.3714 5.93519 31.1121 6.31888 30.7294C6.70257 30.3467 6.96521 29.8577 7.0736 29.3244C7.18199 28.791 7.13125 28.2372 6.92781 27.733C6.72437 27.2287 6.37736 26.7967 5.93065 26.4914C5.48394 26.1862 4.95759 26.0215 4.41814 26.0182C3.6961 26.0188 3.00338 26.3065 2.48996 26.8189C1.97654 27.3313 1.68373 28.0271 1.67493 28.7558H1.67354Z" fill="#4682EB"/>
<path d="M33.2154 29.4723C31.0272 33.2346 25.9857 33.2191 23.7766 29.4329C22.7348 29.8945 21.6317 30.2774 20.6345 30.8545C19.7671 31.3555 19.5091 32.2915 19.5105 33.2853C19.5105 35.5317 19.5105 37.7786 19.5105 40.0259C19.5153 40.2138 19.5087 40.4018 19.491 40.5889C19.4795 40.7794 19.3976 40.9585 19.2615 41.0909C19.1254 41.2233 18.945 41.2994 18.756 41.304C18.5695 41.3323 18.3792 41.288 18.2239 41.1801C18.0685 41.0721 17.9596 40.9086 17.9192 40.7226C17.8656 40.5055 17.8412 40.282 17.8467 40.0583C17.8467 37.8306 17.8467 35.6025 17.8467 33.3739C17.8467 31.0783 18.8536 29.613 20.979 28.7727C22.0319 28.3505 23.0863 27.9479 24.1364 27.5299C24.8449 27.2484 24.9732 27.0443 24.9885 26.2631C24.9885 26.1322 24.9774 25.9999 24.9885 25.8704C25.0418 25.5135 25.0107 25.1489 24.8978 24.8064C24.7848 24.464 24.5932 24.1533 24.3386 23.8999C23.5298 23.0244 23.2522 21.8815 23.1992 20.6893C23.1911 20.4496 23.1296 20.2148 23.0193 20.0024C21.4044 17.1029 22.7404 13.601 25.948 12.8409C28.026 12.3483 30.2309 12.2132 32.2475 13.2871C34.5137 14.4948 35.3449 17.5294 34.1135 19.804C33.9444 20.1093 33.8421 20.4477 33.8136 20.7963C33.756 22.157 33.2057 23.4491 32.267 24.4277C32.1364 24.5768 32.0567 24.7643 32.0397 24.9625C32.009 25.4467 32.0397 25.9352 32.0285 26.4222C32.0202 26.9852 32.3214 27.3145 32.8221 27.5088C33.8959 27.9212 34.9642 28.3434 36.0297 28.7657C38.1551 29.6102 39.162 31.074 39.1676 33.3641C39.1676 35.5922 39.1676 37.8203 39.1676 40.0484C39.1676 40.1413 39.1676 40.2356 39.1676 40.3299C39.1299 40.9394 38.798 41.3152 38.3141 41.3152C37.8301 41.3152 37.5038 40.938 37.5024 40.3131C37.4954 38.0286 37.5024 35.7442 37.5024 33.4598C37.5024 31.7567 36.9446 30.9389 35.3561 30.314C34.649 30.0353 33.9433 29.7594 33.2154 29.4723ZM32.9197 17.9925C33.306 16.4864 32.1666 14.5863 30.3871 14.3836C29.2819 14.2644 28.1685 14.2423 27.0595 14.3174C25.2758 14.4272 24.0974 15.6715 24.0011 17.414C23.9844 17.7067 23.976 17.9559 24.354 18.129C24.5911 18.2374 24.7975 18.6216 24.8421 18.9088C24.9216 19.4211 24.8672 19.9532 24.87 20.4768C24.8895 23.3383 27.3956 24.8401 29.5684 24.1363C31.4512 23.5311 32.2656 21.9167 32.1234 19.9137C32.115 19.7885 31.8835 19.5971 31.7357 19.5745C29.9227 19.3001 28.2226 18.6836 26.5756 17.9024C25.9885 17.6209 25.7653 17.1803 25.9717 16.706C26.1781 16.2317 26.6523 16.1219 27.2562 16.3738C27.9395 16.6553 28.6159 16.9692 29.3118 17.2183C30.468 17.6617 31.6848 17.9228 32.9197 17.9925ZM30.2853 25.6916C29.072 26.1041 27.8907 26.0576 26.6593 25.6916C26.729 26.9838 26.5198 28.0943 25.3832 28.8051C26.1363 30.0029 27.1836 30.625 28.542 30.6152C29.8766 30.6067 30.9031 29.9846 31.6102 28.8403C30.6437 27.9198 30.6437 27.9198 30.2853 25.6916Z" fill="#F8B42B"/>
<path d="M22.177 51.9828C22.1923 52.6232 21.6512 52.968 20.9651 52.7555C19.0174 52.1427 17.155 51.2818 15.4229 50.1938C10.2935 46.9509 6.76047 42.4336 4.82381 36.6421C4.78198 36.5183 4.73317 36.3958 4.70248 36.2691C4.58813 35.7863 4.78895 35.3556 5.19199 35.2036C5.63548 35.0361 6.06502 35.2262 6.26864 35.7272C6.49875 36.2987 6.66889 36.8941 6.90319 37.4627C9.6608 44.1494 14.4304 48.6817 21.2119 51.0594C21.6694 51.2199 22.1519 51.3578 22.177 51.9828Z" fill="#4682EB"/>
<path d="M35.5082 52.8978C35.3213 52.712 35.0103 52.5206 34.882 52.2433C34.7244 51.9055 34.8513 51.5396 35.2014 51.3214C35.3958 51.2129 35.6004 51.1243 35.8122 51.0568C43.1061 48.4725 48.0337 43.4993 50.5951 36.137C50.6314 36.0314 50.6635 35.923 50.7039 35.8189C50.9312 35.2559 51.3622 35.0208 51.8377 35.2066C52.2757 35.3783 52.4528 35.8259 52.2757 36.3833C51.0783 40.2001 48.995 43.673 46.199 46.513C43.403 49.353 39.9754 51.4778 36.2013 52.7106C36.0214 52.7641 35.8415 52.8063 35.5082 52.8978Z" fill="#4682EB"/>
<path d="M5.48778 22.3797C4.86299 22.3797 4.53107 21.8294 4.74863 21.1327C5.34911 19.1847 6.19264 17.3216 7.25894 15.5884C10.4889 10.3731 14.9953 6.78997 20.7783 4.83913C20.9694 4.77439 21.2079 4.66178 21.3641 4.72512C21.643 4.83913 21.9735 5.01648 22.1144 5.26421C22.2985 5.58794 22.1757 5.96797 21.8354 6.19458C21.6279 6.31695 21.407 6.41472 21.1772 6.48594C13.9057 9.07298 8.99152 14.035 6.43472 21.372C6.26876 21.8505 6.14325 22.3713 5.48778 22.3797Z" fill="#4682EB"/>
<path d="M52.4136 21.7055C52.2198 21.8997 52.0162 22.2685 51.7512 22.3205C51.4862 22.3726 51.1097 22.1728 50.8461 21.9898C50.6941 21.8842 50.6578 21.5971 50.5839 21.3859C48.029 14.0471 43.1167 9.08461 35.847 6.49851C34.9865 6.19308 34.6909 5.83135 34.8708 5.27115C35.0507 4.71095 35.5304 4.59694 36.377 4.89675C44.1905 7.67615 49.4626 13.014 52.1933 20.9102C52.2658 21.1199 52.3132 21.3381 52.4136 21.7055Z" fill="#4682EB"/>
<path d="M52.8491 24.3502C53.4286 24.3777 53.9969 24.5217 54.5205 24.7739C55.0441 25.0261 55.5125 25.3813 55.8983 25.8187C56.284 26.2561 56.5792 26.7669 56.7666 27.3211C56.9541 27.8752 57.0299 28.4616 56.9897 29.0457C56.7931 31.5554 54.7095 33.3443 52.3484 33.1853C51.7658 33.1472 51.1965 32.9927 50.6736 32.7308C50.1506 32.4689 49.6843 32.1048 49.3019 31.6596C48.9194 31.2144 48.6284 30.697 48.4456 30.1374C48.2628 29.5778 48.1919 28.9871 48.2371 28.3997C48.4393 26.0013 50.5438 24.1574 52.8491 24.3502ZM49.8883 28.791C49.8933 29.3357 50.0583 29.8667 50.3624 30.3167C50.6666 30.7668 51.0961 31.1156 51.5968 31.3192C52.0974 31.5227 52.6467 31.5718 53.175 31.4602C53.7033 31.3486 54.1869 31.0813 54.5646 30.6922C54.9423 30.3031 55.1972 29.8096 55.2969 29.2743C55.3967 28.7389 55.3368 28.1857 55.125 27.6847C54.9131 27.1837 54.5587 26.7574 54.1066 26.4597C53.6546 26.162 53.1252 26.0064 52.5855 26.0125C52.2268 26.016 51.8724 26.0908 51.5424 26.2327C51.2124 26.3745 50.9134 26.5806 50.6624 26.8392C50.4113 27.0977 50.2133 27.4037 50.0795 27.7396C49.9457 28.0754 49.8789 28.4346 49.8827 28.7966L49.8883 28.791Z" fill="#4682EB"/>
<path d="M32.8793 53.3298C32.8524 53.9147 32.71 54.4883 32.4605 55.0169C32.211 55.5455 31.8593 56.0184 31.4262 56.408C30.9931 56.7975 30.4872 57.0958 29.9383 57.2853C29.3893 57.4748 28.8084 57.5518 28.2296 57.5116C25.743 57.3145 23.9691 55.2117 24.1253 52.8301C24.1625 52.2418 24.3152 51.6669 24.5745 51.1386C24.8338 50.6104 25.1945 50.1394 25.6357 49.7531C26.0768 49.3668 26.5897 49.0728 27.1444 48.8882C27.6991 48.7036 28.2846 48.6322 28.867 48.6779C31.2462 48.8862 33.0759 51.0102 32.8793 53.3298ZM28.4849 50.3444C27.9451 50.3484 27.4187 50.5138 26.9721 50.8198C26.5256 51.1258 26.179 51.5586 25.9763 52.0635C25.7736 52.5684 25.7238 53.1226 25.8333 53.656C25.9428 54.1894 26.2067 54.6781 26.5915 55.0601C26.9762 55.4421 27.4646 55.7004 27.9949 55.8021C28.5251 55.9039 29.0734 55.8446 29.5702 55.6318C30.0671 55.419 30.4902 55.0622 30.7861 54.6065C31.0819 54.1509 31.2372 53.6169 31.2322 53.0722C31.2245 52.3434 30.9312 51.6473 30.4163 51.1361C29.9015 50.6249 29.207 50.3403 28.4849 50.3444Z" fill="#4682EB"/>
<path d="M23.0822 39.156C23.0822 40.4228 23.0891 41.698 23.0822 42.969C23.0822 43.6348 22.7684 44.0148 22.2607 44.0176C21.7531 44.0204 21.424 43.6292 21.424 42.9732C21.4147 40.4125 21.4147 37.8522 21.424 35.2924C21.424 34.6139 21.7364 34.2606 22.2607 34.2578C22.7851 34.255 23.0822 34.5985 23.0877 35.2867C23.0891 36.576 23.0822 37.8625 23.0822 39.156Z" fill="#F8B42B"/>
<path d="M33.9295 39.0968C33.9295 37.8076 33.9211 36.5183 33.9295 35.229C33.9295 34.5674 34.2656 34.2254 34.8109 34.2606C35.2725 34.2901 35.5598 34.6097 35.5877 35.1825C35.6114 35.6864 35.5947 36.1917 35.5947 36.6956C35.5947 38.6596 35.5947 40.6221 35.5947 42.5833C35.5947 42.7325 35.6016 42.8831 35.5947 43.0323C35.557 43.6446 35.2321 44.0176 34.7467 44.0176C34.2614 44.0176 33.9351 43.6446 33.9295 43.0224C33.9225 41.7134 33.9295 40.4059 33.9295 39.0968Z" fill="#F8B42B"/>
</svg>
