<svg width="57" height="47" viewBox="0 0 57 47" fill="none" xmlns="http://www.w3.org/2000/svg">
<path d="M57 34.8363C56.9598 34.8957 56.9255 34.959 56.8975 35.0251C56.387 36.6727 55.2338 37.525 53.5092 37.5265C48.0674 37.5265 42.6255 37.5265 37.1837 37.5265H22.6391V44.8902C23.3144 44.8902 23.9941 44.8602 24.6694 44.9051C24.9573 44.9246 25.3179 45.0325 25.4931 45.2332C25.6415 45.4114 25.7142 45.8608 25.597 46.039C25.5011 46.1764 25.3782 46.2924 25.236 46.3798C25.0938 46.4671 24.9352 46.524 24.7703 46.5468C23.4776 46.6023 22.1805 46.5723 20.8833 46.5723C20.5138 46.5723 20.1413 46.5887 19.7732 46.5618C19.2597 46.5228 18.9287 46.1529 18.951 45.687C18.9732 45.2212 19.2908 44.9291 19.7969 44.9007C20.1442 44.8812 20.493 44.9007 20.8818 44.9007V37.8606C19.9691 38.1602 19.0801 38.4597 18.1852 38.7293C17.4327 38.9585 16.8702 38.4882 16.9978 37.7677C17.0795 37.3183 17.4312 37.1985 17.7948 37.0937L23.6572 35.395C25.965 34.7255 28.2714 34.047 30.5837 33.3864C32.0023 32.9881 33.2576 32.1426 34.1664 30.9733C35.5852 29.1998 37.0278 27.4458 38.46 25.6843C38.5758 25.5345 38.6886 25.3937 38.7569 25.2993L36.3169 22.8143C36.0691 23.1229 35.7856 23.4914 35.4858 23.8449C35.1222 24.2733 34.6384 24.3496 34.2644 24.0546C33.8904 23.7595 33.8191 23.2382 34.1887 22.8143C35.3597 21.4662 36.5633 20.1481 37.7506 18.8299C38.1127 18.433 38.5179 18.081 39.0314 17.5732H36.9922C36.7696 17.5732 36.547 17.5837 36.3258 17.5732C35.8376 17.5432 35.5096 17.2167 35.4962 16.7659C35.4904 16.6575 35.5063 16.549 35.5428 16.4469C35.5793 16.3448 35.6358 16.2512 35.7089 16.1715C35.782 16.0919 35.8702 16.0279 35.9683 15.9833C36.0664 15.9387 36.1723 15.9145 36.2798 15.9121C37.5191 15.8851 38.7613 15.8671 39.9991 15.9121C40.7916 15.942 41.0113 16.6894 40.4592 17.4908C41.2324 17.9297 41.3155 18.6427 41.2413 19.4576C41.0766 21.2999 40.9682 23.1468 40.8035 24.9877C40.7684 25.3153 40.6435 25.6266 40.4428 25.8865C38.7569 27.994 37.0442 30.0805 35.3433 32.1776C34.1933 33.613 32.6074 34.6267 30.8301 35.0625C29.9957 35.2699 29.174 35.5265 28.3693 35.8309H41.3318V35.1284C41.3318 34.324 41.3215 33.5212 41.3318 32.7168C41.3422 32.1611 41.645 31.8286 42.1912 31.8271C45.1535 31.8151 48.1159 31.8151 51.0782 31.8271C51.6333 31.8271 51.9242 32.1716 51.9375 32.7812C51.9539 33.5841 51.9375 34.3885 51.9375 35.1913V35.8324C52.644 35.8324 53.2926 35.8774 53.9307 35.8205C54.6728 35.7545 55.2398 35.1149 55.314 34.36C55.3303 34.1937 55.3229 34.0245 55.3229 33.8552V6.77946C55.3229 5.37145 54.7366 4.78427 53.3252 4.78427C38.4957 4.78427 23.6656 4.78427 8.83505 4.78427C7.23959 4.78427 6.46784 5.57364 6.46784 7.20484V26.8271C6.46784 27.7364 6.20515 28.1318 5.61891 28.1168C5.03267 28.1019 4.80115 27.7109 4.80115 26.8361C4.80115 20.2964 4.80115 13.7556 4.80115 7.21384C4.80115 4.62699 6.31201 3.10514 8.87215 3.10215C9.36934 3.10215 9.86801 3.10215 10.4439 3.10215C10.4439 2.40563 10.4439 1.74057 10.4439 1.077C10.4439 0.310084 10.7288 0.0104852 11.4828 0.00599154C13.0362 -0.00199718 14.5911 -0.00199718 16.1474 0.00599154C16.842 0.00599154 17.121 0.305589 17.1314 1.00061C17.1403 1.67016 17.1314 2.34121 17.1314 3.0557H44.6712C44.6712 2.43558 44.6712 1.79149 44.6712 1.1459C44.6712 0.278623 44.9383 0.00598862 45.7976 0.00299285C47.2818 0.00299285 48.763 0.00299285 50.2412 0.00299285C51.1049 0.00299285 51.3483 0.262153 51.3528 1.1534C51.3528 1.78251 51.3528 2.41312 51.3528 3.10065C52.0592 3.10065 52.7019 3.10065 53.3445 3.10065C55.2843 3.10065 56.3054 3.84958 56.9272 5.71295C56.9391 5.7459 56.9747 5.76838 56.9985 5.79534L57 34.8363ZM50.2456 33.5407H43.0297V35.8055H50.2456V33.5407ZM12.1432 3.0572H15.4439V1.7241H12.1432V3.0572ZM49.6623 1.73306H46.3675V3.0692H49.6623V1.73306ZM39.2956 23.0884C39.3817 21.9216 39.4692 20.7278 39.5568 19.5249L37.6556 21.4318L39.2956 23.0884Z" fill="#4682EB"/>
<path d="M0.00890486 45.3754C1.01515 44.5051 2.24996 45.0758 3.44024 44.8256C3.44024 44.6219 3.44024 44.4062 3.44024 44.192C3.47883 42.1938 3.44024 40.1897 3.57975 38.2005C3.76824 35.8294 4.43009 33.5213 5.52547 31.4151C6.58514 29.33 8.38096 28.3713 10.7318 28.2006C10.6243 28.1164 10.5102 28.0413 10.3905 27.9759C9.16755 27.4591 8.60951 26.469 8.59022 25.1988C8.54867 23.0134 8.54421 20.8265 8.59022 18.6411C8.63029 16.7313 10.1085 15.3113 12.0379 15.2424C12.7028 15.2184 13.3736 15.2124 14.037 15.2424C14.9483 15.2828 15.6696 14.9563 16.3196 14.3092C18.1585 12.4713 21.5705 12.6615 23.1081 14.6717C23.5412 15.2295 23.8253 15.8901 23.9331 16.5904C24.0409 17.2907 23.9689 18.0071 23.724 18.6713C23.479 19.3354 23.0693 19.925 22.534 20.3837C21.9987 20.8423 21.3558 21.1547 20.6667 21.2908C20.5049 21.3238 20.3432 21.3643 20.1339 21.4137C20.1339 22.2735 20.1087 23.1302 20.1339 23.984C20.1903 25.5463 19.7732 26.9349 18.6735 28.1886C18.8931 28.2066 19.0416 28.2291 19.19 28.2291C21.0229 28.2291 22.8558 28.2291 24.6887 28.2291C27.0964 28.2329 29.4354 27.4199 31.3303 25.9208C31.4671 25.7972 31.6164 25.6883 31.7755 25.5958C32.1733 25.413 32.5443 25.4715 32.8144 25.8354C32.9364 25.9803 33.0006 26.1658 32.9942 26.3559C32.9879 26.5459 32.9116 26.7267 32.7803 26.863C32.6554 27.0006 32.5167 27.1246 32.3662 27.2329C30.1222 28.9735 27.5873 29.8977 24.7525 29.9082C20.1992 29.9247 15.6458 29.9322 11.091 29.9082C9.0132 29.8962 7.57507 30.7755 6.73653 32.7212C5.72731 35.0624 5.1381 37.4875 5.10397 40.0414C5.08319 41.6291 5.10397 43.2154 5.10397 44.9005H15.26C15.4635 44.8958 15.6671 44.9023 15.8699 44.92C16.0683 44.9247 16.2568 45.0085 16.3942 45.153C16.5316 45.2976 16.6067 45.4911 16.6031 45.6914C16.6269 46.1632 16.3701 46.4703 15.9041 46.5557C15.7024 46.583 15.4988 46.5915 15.2956 46.5812C11.0005 46.5812 6.70585 46.5812 2.41173 46.5812C1.57319 46.5812 0.691611 46.7654 0 46.0599L0.00890486 45.3754ZM10.2495 21.9424C10.2495 22.9325 10.2495 23.9226 10.2495 24.9127C10.2584 25.9792 10.7526 26.5514 11.649 26.5604C12.5692 26.5604 13.1198 25.9523 13.1228 24.9127C13.1228 23.68 13.1228 22.4472 13.1228 21.2145C13.1228 19.8304 13.2475 19.7001 14.5951 19.7001C16.376 19.7001 18.1481 19.7181 19.9246 19.6911C20.5335 19.6802 21.1164 19.4402 21.5592 19.0182C22.002 18.5963 22.2728 18.0227 22.3185 17.4098C22.3667 16.8259 22.2038 16.2442 21.8601 15.772C21.5164 15.2999 21.015 14.9691 20.4485 14.8409C19.3013 14.6073 18.206 14.7301 17.32 15.6588C16.9299 16.0737 16.4573 16.4007 15.9332 16.6183C15.4091 16.8359 14.8454 16.9392 14.2789 16.9215C13.5948 16.9215 12.9091 16.914 12.2249 16.9215C10.9901 16.938 10.2569 17.6779 10.248 18.9182C10.2347 19.9248 10.2406 20.9329 10.2495 21.9424ZM13.2 27.8815C13.4315 27.9759 13.5755 28.0508 13.7283 28.0942C15.6577 28.641 17.8349 27.537 18.2668 25.5628C18.5637 24.2267 18.4598 22.8037 18.5355 21.4226H14.7836C14.7836 22.4337 14.7509 23.4044 14.7925 24.372C14.8503 25.7845 14.5817 27.0442 13.2 27.8815Z" fill="#4682EB"/>
<path d="M43.7095 11.2986C41.3943 11.2986 39.08 11.2986 36.7667 11.2986C36.6 11.3046 36.433 11.3016 36.2666 11.2896C35.7916 11.2387 35.5245 10.9511 35.5052 10.4823C35.4859 10.0134 35.7694 9.71831 36.228 9.63143C36.3935 9.61192 36.5604 9.60743 36.7266 9.61797H50.7236C50.8527 9.61797 50.9833 9.61048 51.111 9.61797C51.623 9.66441 51.951 10.0179 51.9302 10.4927C51.9094 10.9675 51.5948 11.2566 51.0961 11.2896C50.9121 11.3016 50.7251 11.2896 50.5411 11.2896C48.2634 11.2976 45.9862 11.3006 43.7095 11.2986Z" fill="#F8B42B"/>
<path d="M30.9206 12.8562C30.2186 12.8562 29.5151 12.8562 28.8131 12.8562C28.1111 12.8562 27.8128 12.5461 27.8039 11.8751C27.7891 10.9239 27.7876 9.97275 27.8039 9.02908C27.8143 8.41195 28.1245 8.09143 28.736 8.08394C30.1766 8.06797 31.6182 8.06797 33.0608 8.08394C33.7079 8.09143 33.9987 8.40746 34.0047 9.06503C34.0136 10.0162 34.0151 10.9673 34.0047 11.911C33.9973 12.5296 33.693 12.8427 33.083 12.8562C32.3632 12.8667 31.6419 12.8547 30.9206 12.8562ZM29.4899 11.1276H32.3098V9.79002H29.4899V11.1276Z" fill="#F8B42B"/>
<path d="M30.9266 19.1311C30.2246 19.1311 29.5226 19.1311 28.8191 19.1311C28.1156 19.1311 27.8144 18.8315 27.804 18.1575C27.7891 17.2058 27.7891 16.2571 27.804 15.3115C27.8144 14.6958 28.1231 14.3648 28.7286 14.3573C30.1712 14.3383 31.6133 14.3383 33.0549 14.3573C33.702 14.3573 33.9973 14.6824 34.0047 15.3339C34.0136 16.2666 34.0136 17.1993 34.0047 18.132C34.0047 18.842 33.7079 19.1341 32.9777 19.1415C32.295 19.1356 31.6108 19.1311 30.9266 19.1311ZM32.2965 17.4235V16.0589H29.5033V17.4235H32.2965Z" fill="#F8B42B"/>
</svg>
