<svg width="46" height="53" viewBox="0 0 46 53" fill="none" xmlns="http://www.w3.org/2000/svg">
<path d="M23.0421 0C24.5019 0.343047 25.9586 0.695277 27.4214 1.0276C30.2331 1.66316 33.0494 2.28648 35.8627 2.91897C36.7732 3.12572 36.9962 3.40292 36.9962 4.33864C36.9962 7.63281 37.0175 10.9239 36.9871 14.2196C36.9067 22.877 31.3242 30.8482 23.2743 33.7963C22.9082 33.9152 22.5129 33.9055 22.1529 33.7687C14.6433 30.7058 10.1775 25.1236 8.72689 17.1003C8.52356 15.9716 8.49625 14.8031 8.48411 13.6499C8.45224 10.564 8.47197 7.47815 8.47349 4.39072C8.47349 3.36924 8.66923 3.13796 9.70866 2.90364C13.8562 1.97251 18.0038 1.03989 22.1514 0.105699C22.2481 0.0763983 22.3428 0.0410793 22.4352 0H23.0421ZM34.8537 10.1888H34.9508C34.9508 8.58537 34.9386 6.97275 34.9599 5.37697C34.9599 4.98645 34.8794 4.81493 34.4652 4.72457C30.6975 3.89452 26.9358 3.03996 23.1711 2.19613C22.8905 2.13565 22.6004 2.13565 22.3198 2.19613C18.5369 3.0369 14.7601 3.90219 10.9757 4.73683C10.61 4.818 10.5205 4.9543 10.5205 5.31113C10.5356 7.96821 10.5205 10.6238 10.5341 13.2747C10.515 14.24 10.5606 15.2055 10.6707 16.1646C11.5887 22.6717 14.8618 27.6107 20.5809 30.7625C23.1317 32.1668 22.2622 32.0581 24.9025 30.7946C24.948 30.7716 24.9935 30.7487 25.0375 30.7226C30.7809 27.3641 34.1207 22.3823 34.8248 15.7143C35.0054 13.8934 34.8537 12.0327 34.8537 10.1888Z" fill="#4682EB"/>
<path d="M36.5395 34.542C37.0949 34.0014 37.2694 33.3628 37.2678 32.6415C37.2587 29.6756 37.2587 26.7096 37.2678 23.7437C37.277 21.9412 38.3407 20.5996 39.9992 20.2351C41.9051 19.8186 43.8428 21.177 44.0552 23.1372C44.3253 25.6213 44.5393 28.1129 44.776 30.6C44.8989 31.8865 44.993 33.1775 45.1493 34.4593C45.246 35.1071 45.2088 35.768 45.0401 36.4006C44.8714 37.0331 44.5748 37.6236 44.169 38.1348C41.4185 41.7154 38.6856 45.3128 35.9705 48.927C35.7939 49.1886 35.6926 49.4945 35.6776 49.8107C35.6351 50.4968 35.6776 51.189 35.6609 51.8797C35.6442 52.5704 35.2284 52.9961 34.6336 52.9884C34.0707 52.9884 33.6306 52.5382 33.62 51.9088C33.6018 50.944 33.5836 49.9761 33.6321 49.0128C33.6731 48.6762 33.8066 48.3579 34.0176 48.0939C36.8359 44.3663 39.6659 40.648 42.5075 36.9388C42.7502 36.6401 42.9306 36.295 43.0378 35.9242C43.145 35.5533 43.1767 35.1645 43.1311 34.7809C42.773 31.1437 42.4407 27.5065 42.0978 23.8677C42.0817 23.6615 42.0503 23.4567 42.0037 23.2552C41.9206 22.9444 41.7311 22.6733 41.4689 22.49C41.2068 22.3067 40.8888 22.2229 40.5712 22.2536C40.2619 22.2745 39.9696 22.4038 39.7446 22.6191C39.5197 22.8344 39.3762 23.1222 39.3391 23.4328C39.3194 23.6389 39.3118 23.846 39.3163 24.053C39.3163 26.9153 39.3057 29.7777 39.3163 32.6415C39.3399 33.7529 38.9752 34.8372 38.286 35.7044C37.0509 37.2879 35.8582 38.9021 34.6276 40.4979C34.2619 40.9726 33.7793 41.0905 33.315 40.8608C33.1042 40.7598 32.9356 40.5867 32.839 40.3724C32.7423 40.158 32.7239 39.916 32.7869 39.6893C32.8575 39.4787 32.9649 39.2826 33.1041 39.1104C33.5957 38.4472 34.1056 37.7994 34.5987 37.1378C35.0919 36.4762 35.0281 35.7105 34.4303 35.2633C33.8324 34.8161 33.1344 34.957 32.6367 35.6156C31.265 37.4217 29.8993 39.2334 28.5397 41.0507C27.7046 42.1791 27.2711 43.5588 27.3091 44.9667C27.3227 47.1398 27.3091 49.3114 27.3091 51.4846C27.3144 51.6572 27.3099 51.8301 27.2954 52.0022C27.2271 52.6056 26.7962 53.0068 26.2469 52.9915C25.6976 52.9762 25.3 52.5581 25.2636 51.9425C25.2636 51.8383 25.2636 51.7357 25.2636 51.6362C25.2636 49.4294 25.2773 47.221 25.2636 45.0142C25.2311 43.0319 25.8787 41.0992 27.0967 39.5437C28.3591 37.8913 29.6034 36.2266 30.8522 34.565C32.4744 32.398 34.8658 32.3796 36.5395 34.542Z" fill="#4682EB"/>
<path d="M8.64199 34.5512C9.21406 33.7165 9.95152 33.1438 10.9621 32.9937C12.176 32.8145 13.2382 33.1683 13.9818 34.1316C15.5325 36.1225 17.0575 38.1394 18.534 40.1916C19.5355 41.5852 19.9254 43.2085 19.93 44.9222C19.9361 47.1816 19.9361 49.4405 19.93 51.6989C19.9312 51.8713 19.9139 52.0434 19.8784 52.212C19.8263 52.4422 19.6961 52.6469 19.5104 52.7906C19.3247 52.9344 19.0951 53.0081 18.8613 52.9992C18.6274 52.9903 18.404 52.8993 18.2295 52.7419C18.0551 52.5844 17.9406 52.3705 17.9058 52.1369C17.8815 51.9312 17.8723 51.7238 17.8785 51.5167C17.8785 49.3727 17.8663 47.2393 17.8785 45.1014C17.9096 43.5194 17.3922 41.9762 16.4157 40.7383C15.1228 39.0674 13.8649 37.3691 12.5979 35.6844C12.2777 35.2587 11.8938 34.9693 11.343 35.0351C10.384 35.1484 9.92875 36.2143 10.5039 37.026C11.0198 37.7565 11.5964 38.4411 12.1093 39.1701C12.2874 39.4167 12.3926 39.7093 12.4128 40.0139C12.4219 40.4641 12.1442 40.7796 11.7026 40.9175C11.2322 41.0706 10.8589 40.893 10.5721 40.5239C9.89841 39.6555 9.23833 38.7765 8.57219 37.9005C8.02137 37.1761 7.48572 36.4395 6.91518 35.7304C6.21171 34.8705 5.8413 33.7822 5.87272 32.6675C5.89396 29.8036 5.87272 26.9413 5.87272 24.079C5.87678 23.8744 5.86664 23.6697 5.84237 23.4665C5.81068 23.1271 5.65316 22.8123 5.40134 22.5852C5.14952 22.358 4.82199 22.2351 4.48429 22.2413C4.14693 22.2324 3.81907 22.3546 3.56834 22.5825C3.31761 22.8105 3.16315 23.1269 3.13683 23.4665C2.95474 25.197 2.79693 26.9306 2.63153 28.6643C2.4373 30.7057 2.2628 32.7502 2.04581 34.7901C1.99511 35.1474 2.01713 35.5113 2.11053 35.8597C2.20394 36.208 2.36676 36.5335 2.58904 36.8162C5.45088 40.553 8.29147 44.3081 11.1503 48.0479C11.4324 48.3953 11.5787 48.835 11.5615 49.2838C11.5372 50.1277 11.5615 50.9684 11.5524 51.8184C11.5524 52.5275 11.1336 52.9884 10.5251 52.9838C9.91661 52.9792 9.51754 52.5137 9.50388 51.8061C9.50388 51.7893 9.50388 51.7709 9.50388 51.7541C9.48719 50.9133 9.65562 50.0067 9.39918 49.2486C9.14274 48.4905 8.45838 47.9132 7.95916 47.2577C5.80747 44.4276 3.71041 41.5484 1.47527 38.7857C0.246164 37.268 -0.172641 35.6936 0.0625575 33.7655C0.485915 30.2937 0.752978 26.8035 1.08226 23.321C1.1542 22.467 1.53879 21.6706 2.16099 21.0873C2.78319 20.504 3.59838 20.1755 4.44755 20.1659C5.29673 20.1564 6.11898 20.4664 6.75392 21.0356C7.38887 21.6048 7.79096 22.3922 7.88177 23.2444C7.92479 23.8115 7.93897 24.3804 7.92426 24.9489C7.92426 27.5356 7.93488 30.1222 7.92426 32.7088C7.90844 33.0496 7.96421 33.3899 8.0879 33.7075C8.2116 34.025 8.40042 34.3125 8.64199 34.5512Z" fill="#4682EB"/>
<path d="M31.1468 7.91154C28.3654 7.2867 25.6356 6.66799 22.9027 6.07378C22.669 6.02325 22.3989 6.09982 22.1546 6.15496C19.355 6.78132 16.5599 7.42144 13.7588 8.03709C13.4625 8.10566 13.1534 8.09297 12.8635 8.00033C12.4083 7.838 12.2232 7.43832 12.2809 6.9605C12.3507 6.39999 12.7361 6.14576 13.2429 6.03243C14.8271 5.6802 16.4097 5.3264 17.9909 4.9711C19.3065 4.67706 20.6175 4.34934 21.9361 4.09664C22.4482 3.98978 22.9759 3.9846 23.49 4.08135C26.3609 4.69394 29.2212 5.35856 32.0846 6.00637C32.9738 6.20699 33.1968 6.48265 33.1968 7.38468C33.1968 9.68187 33.2833 11.9791 33.1756 14.2656C32.8463 21.2551 29.5338 26.3503 23.4065 29.597C23.2081 29.7151 22.9824 29.7785 22.752 29.7809C22.5217 29.7833 22.2948 29.7247 22.0939 29.6108C16.4279 26.675 13.1701 22.0316 12.3613 15.65C12.3188 15.3085 12.29 14.9623 12.2778 14.6193C12.2535 13.8857 12.6617 13.3834 13.2763 13.3727C13.8681 13.362 14.2899 13.8322 14.3248 14.532C14.4119 16.5524 14.8974 18.535 15.7527 20.3638C17.1415 23.3747 19.4581 25.8513 22.3565 27.4239C22.467 27.499 22.5972 27.5392 22.7305 27.5392C22.8638 27.5392 22.994 27.499 23.1045 27.4239C28.1833 24.462 30.9025 20.0392 31.1301 14.1155C31.2121 12.071 31.1468 10.0173 31.1468 7.91154Z" fill="#F8B42B"/>
<path d="M20.6964 17.0452C22.015 15.843 23.2926 14.6791 24.5688 13.5136C25.4428 12.7173 26.3123 11.9148 27.1894 11.1215C27.7478 10.6161 28.3608 10.5931 28.7766 11.0434C29.2166 11.5212 29.1392 12.1292 28.552 12.6667C26.1858 14.8291 23.8187 16.99 21.4505 19.1494C20.7798 19.762 20.2578 19.7207 19.663 19.0177C18.8861 18.0988 18.1142 17.18 17.3474 16.2611C16.8664 15.6822 16.8786 15.0757 17.3656 14.6668C17.8527 14.2579 18.4142 14.3529 18.8906 14.9073C19.4824 15.5888 20.0621 16.2902 20.6964 17.0452Z" fill="#F8B42B"/>
<path d="M14.314 10.757C14.3044 11.0273 14.1926 11.2837 14.0015 11.4734C13.8105 11.663 13.5547 11.7717 13.2867 11.777C13.1502 11.7744 13.0156 11.7446 12.8906 11.6892C12.7656 11.6338 12.6527 11.5539 12.5585 11.4542C12.4642 11.3546 12.3905 11.237 12.3415 11.1084C12.2925 10.9798 12.2693 10.8427 12.2731 10.705C12.2774 10.5712 12.3079 10.4396 12.3627 10.3178C12.4176 10.1959 12.4958 10.0863 12.5928 9.99502C12.6899 9.90379 12.8038 9.8328 12.9281 9.78617C13.0524 9.73953 13.1846 9.71816 13.3171 9.72328C13.5836 9.73161 13.8365 9.84406 14.0225 10.0369C14.2084 10.2297 14.313 10.4879 14.314 10.757Z" fill="#F8B42B"/>
</svg>
