<svg width="416" height="237" viewBox="0 0 416 237" fill="none" xmlns="http://www.w3.org/2000/svg">
<path d="M262.985 210.413L139.201 213.498C131.006 213.498 125.625 207.932 125.374 204.716L110.959 26.0198C110.679 22.4275 115.3 16.2732 124.786 16.2732L248.572 19.3583C250.123 19.3581 251.616 19.9447 252.755 21.0011C253.893 22.0574 254.592 23.5057 254.713 25.0567L269.121 203.752C269.187 204.601 269.078 205.455 268.8 206.259C268.522 207.064 268.08 207.802 267.504 208.428C266.928 209.054 266.229 209.553 265.451 209.894C264.674 210.236 263.834 210.413 262.985 210.413Z" fill="#7689D6"/>
<path d="M270.671 213.498H139.201C137.649 213.499 136.154 212.911 135.015 211.854C133.876 210.797 133.177 209.347 133.057 207.795L118.646 22.9347C118.58 22.0852 118.689 21.2311 118.968 20.4261C119.246 19.6212 119.688 18.8827 120.264 18.2571C120.841 17.6316 121.541 17.1324 122.319 16.791C123.097 16.4495 123.937 16.2733 124.786 16.2732H256.26C257.811 16.2733 259.304 16.8601 260.442 17.9164C261.581 18.9726 262.28 20.4207 262.401 21.9716L276.812 206.832C276.879 207.682 276.77 208.537 276.492 209.342C276.214 210.148 275.773 210.887 275.196 211.513C274.619 212.139 273.919 212.639 273.141 212.981C272.362 213.322 271.521 213.499 270.671 213.498Z" fill="#8A9EDD"/>
<path d="M262.748 205.948H146.637C145.096 205.948 143.611 205.367 142.476 204.321C141.341 203.275 140.639 201.84 140.509 200.299L137.309 162.471L126.176 30.8466C126.104 29.9955 126.209 29.1387 126.485 28.3304C126.76 27.5221 127.199 26.78 127.776 26.1511C128.352 25.5221 129.052 25.0201 129.831 24.6767C130.611 24.3333 131.453 24.1561 132.304 24.1563H248.416C249.957 24.1563 251.442 24.7366 252.577 25.7823C253.711 26.828 254.414 28.263 254.544 29.8033L256.52 53.1763L268.876 199.264C268.946 200.114 268.841 200.97 268.565 201.778C268.289 202.585 267.849 203.326 267.273 203.954C266.697 204.583 265.998 205.084 265.219 205.427C264.44 205.77 263.598 205.947 262.748 205.948Z" fill="white"/>
<path d="M189.257 205.948H146.637C145.095 205.948 143.611 205.367 142.476 204.321C141.341 203.275 140.639 201.84 140.509 200.299L137.309 162.471C139.805 155.46 144.256 145.174 150.053 140.87C159.246 134.045 152.923 155.93 150.08 167.98C147.237 180.03 151.566 182.218 158.102 175.836C164.638 169.454 170.275 157.173 176.158 158.765C182.041 160.357 157.529 186.177 162.677 191.832C167.824 197.487 198.953 169.701 212.437 173.39C223.961 176.544 203.248 197.745 189.257 205.948Z" fill="#F8B42B"/>
<path d="M256.521 53.1683C231.421 57.5023 227.021 74.3037 220.041 71.4673C211.872 68.1574 206.112 75.8286 203.755 93.9206C201.417 111.865 211.675 130.227 202.721 131.212C194.881 132.076 197.107 115.632 197.736 106.332C199.128 85.7085 175.923 68.8846 187.361 45.5597C192.246 35.6076 201.269 28.739 210.003 24.1498H248.417C249.958 24.1499 251.443 24.7302 252.578 25.7759C253.713 26.8216 254.415 28.2566 254.546 29.7969L256.521 53.1683Z" fill="#4682EB"/>
<path d="M153.367 78.6569C153.367 78.6569 162.076 73.424 168.074 77.1753C178.415 83.6458 174.092 96.248 177.551 106.33C182.617 121.098 164.479 121.629 163.498 112.773C162.446 103.261 166.767 89.8835 164.969 83.6458C163.17 77.4081 153.367 78.6569 153.367 78.6569Z" fill="#3A72AA"/>
<path d="M194.978 26.5738C195.42 23.8454 193.573 21.2745 190.853 20.8316C188.133 20.3887 185.571 22.2415 185.129 24.97C184.688 27.6984 186.535 30.2693 189.254 30.7122C191.974 31.1551 194.537 29.3023 194.978 26.5738Z" fill="#F8B42B"/>
<path d="M278.56 184.628V219.299C278.56 224.338 274.003 228.425 268.386 228.425H251.651C246.032 228.425 241.479 224.338 241.479 219.299V184.628C241.479 182.037 242.68 179.7 244.613 178.038C247.608 175.47 249.522 172.045 250.019 168.351L250.687 163.391H269.343L270.01 168.351C270.506 172.043 272.423 175.465 275.416 178.038C277.347 179.705 278.56 182.037 278.56 184.628Z" fill="#5770B5"/>
<path d="M275.295 184.628V219.299C275.295 224.338 270.739 228.425 265.122 228.425H251.651C246.032 228.425 241.479 224.338 241.479 219.299V184.628C241.479 182.037 242.68 179.7 244.613 178.038C247.608 175.47 249.522 172.045 250.019 168.351L250.687 163.391H266.08L266.747 168.351C267.243 172.043 269.159 175.465 272.152 178.038C274.091 179.705 275.295 182.037 275.295 184.628Z" fill="#8A9EDD"/>
<path d="M278.552 192.706H241.479V211.229H278.552V192.706Z" fill="#5770B5"/>
<path d="M270.006 158.906H250.027C248.848 158.906 247.893 159.865 247.893 161.048V164.123C247.893 165.306 248.848 166.264 250.027 166.264H270.006C271.185 166.264 272.141 165.306 272.141 164.123V161.048C272.141 159.865 271.185 158.906 270.006 158.906Z" fill="#1D3F70"/>
<path d="M236.579 192.792V221.009C236.579 225.109 232.872 228.433 228.3 228.433H214.692C210.121 228.433 206.414 225.109 206.414 221.009V192.792C206.414 190.684 207.395 188.779 208.974 187.432C211.411 185.337 212.974 182.555 213.372 179.55L213.915 175.513H229.094L229.636 179.55C230.041 182.555 231.6 185.329 234.035 187.432C235.6 188.783 236.579 190.684 236.579 192.792Z" fill="#F49F9F"/>
<path d="M233.539 192.792V221.009C233.539 225.109 229.833 228.433 225.262 228.433H214.692C210.121 228.433 206.414 225.109 206.414 221.009V192.792C206.414 190.684 207.395 188.779 208.974 187.432C211.411 185.337 212.974 182.555 213.372 179.55L213.915 175.513H226.056L226.598 179.55C227.001 182.555 228.56 185.329 230.996 187.432C232.561 188.783 233.539 190.684 233.539 192.792Z" fill="#FCB4B4"/>
<path d="M229.623 171.865H213.37C212.411 171.865 211.633 172.645 211.633 173.608V176.109C211.633 177.072 212.411 177.852 213.37 177.852H229.623C230.583 177.852 231.361 177.072 231.361 176.109V173.608C231.361 172.645 230.583 171.865 229.623 171.865Z" fill="#1D3F70"/>
<path d="M221.497 213.193C226.945 213.193 231.361 209.232 231.361 204.346C231.361 199.459 226.945 195.498 221.497 195.498C216.049 195.498 211.633 199.459 211.633 204.346C211.633 209.232 216.049 213.193 221.497 213.193Z" fill="#FFD2D2"/>
<path d="M276.406 120.933C276.406 120.933 275.001 120.334 274.672 117.915L276.217 115.106L277.96 116.099L278.773 119.631L276.406 120.933Z" fill="#FFC3AF"/>
<path d="M335.799 226.329L346.647 220.755C346.538 220.083 344.659 217.726 344.269 216.704C343.922 216.123 340.81 207.895 340.461 207.055L334.24 210.254L339.351 217.778C339.644 218.211 339.779 218.732 339.731 219.254C339.683 219.775 339.456 220.263 339.088 220.635C337.477 222.428 335.003 223.229 334.528 225.465C334.515 225.621 334.543 225.779 334.61 225.92C334.677 226.062 334.781 226.183 334.911 226.271C335.04 226.359 335.191 226.411 335.347 226.421C335.503 226.431 335.659 226.399 335.799 226.329Z" fill="#FFC3AF"/>
<path d="M346.442 219.54C346.591 219.927 346.662 220.341 346.648 220.755L335.711 226.374C335.588 226.438 335.451 226.471 335.313 226.472C335.174 226.473 335.037 226.441 334.914 226.378C334.79 226.315 334.683 226.224 334.602 226.111C334.52 225.999 334.466 225.869 334.445 225.731C334.261 224.341 334.831 221.893 339.736 219.039C339.736 219.039 341.712 218.67 344.271 216.709C344.271 216.704 345.863 217.958 346.442 219.54Z" fill="#F8B42B"/>
<path d="M334.441 225.706L346.441 219.54C346.591 219.927 346.661 220.341 346.648 220.755L335.71 226.374C335.585 226.439 335.447 226.473 335.306 226.473C335.165 226.473 335.026 226.438 334.902 226.373C334.777 226.307 334.67 226.212 334.59 226.096C334.51 225.98 334.459 225.846 334.441 225.706Z" fill="#CE3932"/>
<path d="M299.557 227.422L311.742 227.261C311.942 226.619 311.302 223.662 311.405 222.572C311.352 221.897 312.205 213.137 312.264 212.23L305.267 212.323L306.517 221.341C306.589 221.86 306.479 222.387 306.206 222.833C305.932 223.279 305.512 223.615 305.017 223.783C302.777 224.674 300.217 224.29 298.793 226.081C298.712 226.216 298.668 226.37 298.666 226.528C298.664 226.685 298.704 226.84 298.782 226.977C298.86 227.114 298.973 227.227 299.109 227.305C299.245 227.383 299.4 227.424 299.557 227.422Z" fill="#FFC3AF"/>
<path d="M312.095 226.078C312.058 226.491 311.938 226.893 311.742 227.258L299.455 227.419C299.316 227.421 299.179 227.391 299.054 227.329C298.929 227.268 298.821 227.177 298.738 227.065C298.655 226.953 298.6 226.823 298.578 226.685C298.555 226.548 298.566 226.407 298.609 226.274C299.057 224.945 300.651 223.006 306.31 222.632C306.31 222.632 308.244 223.182 311.404 222.564C311.404 222.563 312.278 224.401 312.095 226.078Z" fill="#F8B42B"/>
<path d="M298.616 226.255L312.096 226.075C312.058 226.488 311.938 226.889 311.742 227.255L299.456 227.415C299.315 227.417 299.177 227.386 299.051 227.323C298.926 227.26 298.817 227.168 298.735 227.054C298.653 226.94 298.599 226.808 298.578 226.669C298.557 226.53 298.57 226.388 298.616 226.255Z" fill="#CE3932"/>
<path d="M297.461 216.062C297.621 217.596 297.749 218.433 297.749 218.433C303.138 221.102 311.159 220.507 316.445 219.153C316.372 218.698 316.303 218.243 316.234 217.792C316.177 217.407 316.123 217.024 316.074 216.643C311.895 187.472 315.146 167.054 315.146 167.054C317.279 181.101 319.444 190.811 329.898 215.317C330.252 216.147 330.618 216.994 330.994 217.856C337.199 216.786 344.511 213.147 349.119 209.548C348.632 208.74 348.164 207.933 347.717 207.126C334.324 183.048 337.318 159.348 330.412 146.657C330.412 146.657 302.839 148.559 302.511 149.522C292.916 177.722 296.481 207.153 297.461 216.062Z" fill="#9358E0"/>
<path d="M308.208 99.5628C308.208 99.5628 312.467 93.9286 318.984 99.1872C322.068 101.678 324.728 107.284 326.68 109.332C333.286 116.271 328.875 123.557 324.654 125.063C320.51 126.531 309.849 132 303.771 125.666C299.771 121.493 303.105 116.241 304.512 112.72C305.918 109.2 308.208 99.5628 308.208 99.5628Z" fill="#1D3F70"/>
<path d="M310.448 100.126C310.448 100.126 307.297 98.2834 304.803 101.25C302.309 104.216 304.845 111.232 304.845 111.232L310.448 100.126Z" fill="#1D3F70"/>
<path d="M308.935 118.066L309.107 119.735C308.177 120.77 309.449 122.29 310.31 122.241C311.619 122.165 313.865 120.069 314.255 119.419C314.255 119.419 313.977 117.833 313.935 117.091L308.935 118.066Z" fill="#FFC3AF"/>
<path d="M304.447 122.116C299.983 125.605 296.228 129.556 290.466 130.715C286.136 131.825 283.925 126.806 282.058 123.575C281.304 122.169 280.564 120.703 279.756 119.241C278.674 117.242 275.567 118.661 276.352 120.786C277.488 123.923 278.348 127.084 279.872 130.183C284.162 139.471 292.784 138.713 300.76 134.76C303.839 133.262 306.346 131.132 309.144 129.363C314.261 126.252 309.368 118.679 304.447 122.116Z" fill="#FFC3AF"/>
<path d="M276.57 123.413C276.663 124.51 276.943 126.12 277.652 128.373C279.252 133.48 283.732 138.723 290.25 139.583C291.93 139.777 293.628 139.734 295.295 139.455C299.02 138.878 302.51 137.4 303.746 136.066C303.965 135.798 304.135 135.493 304.247 135.166C305.687 131.503 306.274 120.141 306.274 120.141C306.002 120.472 303.993 120.987 299.004 125.491C294.799 129.287 289.244 130.194 286.13 126.401C284.542 124.462 282.791 122.12 281.434 120.754C280.847 120.16 280.334 119.749 279.94 119.631C279.94 119.631 278.67 121.359 276.636 121.448C276.641 121.454 276.452 122.021 276.57 123.413Z" fill="#F8B42B"/>
<path d="M313.995 111.828C313.991 111.917 313.982 112.006 313.968 112.094C313.844 112.027 313.782 115.247 313.968 117.565C311.888 118.737 309.422 118.504 308.971 118.451C308.68 115.52 308.724 112.823 309.014 111.107C309.662 108.192 314.198 108.854 313.995 111.828Z" fill="#E57D61"/>
<path d="M317.051 108.984C316.963 111.287 316.511 113.928 314.913 115.639C314.254 116.322 313.435 116.828 312.531 117.111C307.508 119.257 300.515 113.802 304.11 108.886C305.435 107.319 305.454 104.829 306.476 103.308C307.902 100.579 311.715 100.245 314.015 102.048C316.091 103.678 317.035 106.16 317.051 108.984Z" fill="#FFC3AF"/>
<path d="M295.295 139.455C299.02 138.878 302.509 137.4 303.746 136.066C303.965 135.798 304.134 135.493 304.247 135.166L300.567 130.332C299.983 131.729 299.53 133.177 299.215 134.658C298.757 136.941 297.514 138.431 295.295 139.455Z" fill="#CE3932"/>
<path d="M308.284 108.64C308.031 108.272 308.604 107.881 308.855 108.255C309.106 108.629 308.527 109.014 308.284 108.64Z" fill="#C16256"/>
<path d="M305.359 108.507C305.104 108.139 305.679 107.748 305.928 108.123C306.178 108.499 305.6 108.881 305.359 108.507Z" fill="#C16256"/>
<path d="M306.606 111.361C306.816 111.337 307.288 111.361 307.246 111.075C307.232 111.044 307.205 111.019 307.173 111.007C307.141 110.995 307.105 110.997 307.073 111.011C306.657 111.203 306.017 111.061 305.91 110.874C305.873 110.809 305.957 110.728 306.035 110.674C306.713 110.221 307.403 108.065 306.8 108.621C306.8 108.635 306.48 110.033 305.885 110.462C305.214 111.053 306.019 111.35 306.606 111.361Z" fill="#C16256"/>
<path d="M302.722 148.421C314.856 152.55 330.214 145.073 330.214 145.073C330.214 145.073 328.04 141.862 326.914 138.511C326.647 137.741 326.452 136.949 326.331 136.143C325.778 132.13 327.098 123.533 317.163 119.151C316.206 119.335 315.232 119.422 314.258 119.412C314.258 119.412 311.982 123.265 309.08 121.892C307.96 121.359 309.109 119.729 309.109 119.729C308.238 120.18 307.241 120.326 306.278 120.141C302.418 124.762 300.398 129.175 300.269 132.442C300.066 137.553 303.352 141.167 302.722 148.421Z" fill="#F8B42B"/>
<path d="M317.051 108.984C316.963 111.287 316.512 113.927 314.914 115.639C315.752 114.29 316.034 111.465 316.034 111.465L315.419 110.3C307.29 108.723 307.195 102.34 307.195 102.34C311.746 98.1422 317.451 103.682 317.051 108.984Z" fill="#E57D61"/>
<path d="M307.953 101.68C307.953 101.68 308.078 107.971 315.388 109.667L317.732 107.969C319.598 102.845 314.299 96.3091 307.953 101.68Z" fill="#1D3F70"/>
<path d="M318.621 109.95C318.423 112.568 315.132 112.279 315.389 109.666C315.588 107.049 318.881 107.337 318.621 109.95Z" fill="#FFC3AF"/>
<path d="M317.859 110.581C318.322 109.958 317.976 108.862 317.675 108.703C317.115 108.359 316.235 108.69 316.331 108.94C316.525 109.176 316.971 108.566 317.523 108.915C318.082 109.237 317.53 110.403 317.859 110.581Z" fill="#C16256"/>
<path d="M316.631 110.547C316.894 110.5 316.874 109.526 317.876 109.3C317.894 109.297 317.91 109.29 317.925 109.28C317.94 109.27 317.953 109.257 317.962 109.242C317.972 109.227 317.978 109.21 317.981 109.192C317.984 109.175 317.983 109.157 317.978 109.139C317.202 108.696 316.161 110.659 316.631 110.547Z" fill="#C16256"/>
<path d="M317.354 111.306C317.406 111.683 316.815 111.756 316.774 111.377C316.732 110.998 317.313 110.929 317.354 111.306Z" fill="#F4D4BE"/>
<path d="M317.582 131.219C317.582 131.219 320.55 136.564 320.942 140.88C321.28 144.651 317.582 147.352 317.582 147.352L323.52 147.956L322.88 133.973L317.582 131.219Z" fill="#CE3932"/>
<path d="M309.161 125.921C309.209 126.055 309.295 126.171 309.408 126.256C309.522 126.34 309.658 126.389 309.799 126.396C309.94 126.403 310.081 126.368 310.202 126.295C310.323 126.222 310.42 126.115 310.481 125.987C310.541 125.858 310.563 125.715 310.542 125.575C310.521 125.434 310.46 125.303 310.365 125.198C310.27 125.093 310.146 125.018 310.009 124.984C309.872 124.949 309.728 124.956 309.595 125.003C309.506 125.035 309.425 125.084 309.355 125.147C309.285 125.21 309.228 125.287 309.188 125.372C309.148 125.457 309.125 125.55 309.12 125.644C309.115 125.738 309.129 125.833 309.161 125.921Z" fill="#CE3932"/>
<path d="M308.284 128.923C308.331 129.057 308.417 129.174 308.531 129.259C308.645 129.344 308.781 129.393 308.923 129.401C309.064 129.408 309.205 129.373 309.327 129.3C309.448 129.227 309.546 129.12 309.607 128.991C309.668 128.863 309.689 128.719 309.669 128.578C309.648 128.438 309.587 128.306 309.491 128.201C309.396 128.095 309.272 128.02 309.135 127.985C308.997 127.95 308.853 127.957 308.719 128.005C308.63 128.036 308.549 128.085 308.479 128.148C308.409 128.212 308.352 128.288 308.312 128.373C308.271 128.459 308.248 128.551 308.243 128.645C308.238 128.74 308.252 128.834 308.284 128.923Z" fill="#CE3932"/>
<path d="M347.708 207.126C347.708 207.126 338.817 214.157 329.889 215.312C330.243 216.143 330.608 216.989 330.985 217.852C337.189 216.781 344.501 213.142 349.109 209.543C348.622 208.74 348.155 207.934 347.708 207.126Z" fill="#7640CC"/>
<path d="M297.461 216.062C297.621 217.596 297.749 218.433 297.749 218.433C303.138 221.102 311.159 220.507 316.445 219.153C316.311 218.311 316.184 217.474 316.066 216.643C315.922 216.688 306.747 219.476 297.461 216.062Z" fill="#7640CC"/>
<path d="M313.957 218.031L316.235 217.792C316.178 217.407 316.124 217.024 316.075 216.643C311.896 187.472 315.147 167.054 315.147 167.054C315.072 167.396 313.763 168.719 312.747 173.891C311.731 179.062 310.991 201.586 313.957 218.031Z" fill="#7640CC"/>
<path d="M276.57 123.413C277.178 123.345 277.242 122.473 277.764 122.25C278.285 122.027 278.66 122.424 279.273 122.231C279.885 122.038 279.786 121.39 280.073 120.872C280.359 120.353 281.397 120.738 281.439 120.754C280.852 120.16 280.338 119.749 279.945 119.631C279.945 119.631 278.674 121.359 276.641 121.448C276.641 121.454 276.452 122.021 276.57 123.413Z" fill="#A523A2"/>
<path d="M346.005 210.156C346.093 210.155 346.18 210.129 346.255 210.081C346.309 210.048 346.357 210.005 346.394 209.953C346.432 209.901 346.459 209.843 346.474 209.781C346.489 209.719 346.491 209.654 346.481 209.591C346.471 209.528 346.448 209.467 346.415 209.413C346.328 209.277 337.808 195.512 334.895 178.981C331.96 162.325 327.534 146.919 327.488 146.766C327.452 146.643 327.369 146.539 327.257 146.477C327.145 146.415 327.013 146.4 326.89 146.436C326.767 146.471 326.663 146.555 326.601 146.667C326.539 146.78 326.524 146.912 326.56 147.036C326.605 147.196 331.019 162.547 333.944 179.149C336.89 195.874 345.507 209.79 345.594 209.928C345.637 209.999 345.698 210.056 345.77 210.096C345.842 210.136 345.923 210.157 346.005 210.156Z" fill="#7640CC"/>
<path d="M341.081 213.436C341.163 213.435 341.244 213.413 341.315 213.372C341.37 213.34 341.419 213.298 341.458 213.248C341.497 213.198 341.525 213.14 341.542 213.078C341.559 213.017 341.563 212.953 341.555 212.89C341.546 212.826 341.526 212.765 341.494 212.71C341.438 212.614 335.95 202.879 331.772 184.356C327.572 165.736 322.372 148.113 322.319 147.938C322.301 147.877 322.272 147.82 322.232 147.771C322.192 147.721 322.142 147.68 322.086 147.65C322.031 147.62 321.969 147.601 321.906 147.594C321.843 147.587 321.779 147.593 321.719 147.611C321.658 147.63 321.601 147.66 321.552 147.7C321.503 147.74 321.462 147.789 321.431 147.845C321.401 147.901 321.382 147.963 321.376 148.026C321.369 148.089 321.375 148.153 321.393 148.214C321.446 148.389 326.638 165.977 330.833 184.57C335.047 203.249 340.603 213.096 340.659 213.192C340.701 213.267 340.762 213.329 340.837 213.372C340.911 213.415 340.995 213.437 341.081 213.436Z" fill="#7640CC"/>
<path d="M334.811 215.73C334.685 215.372 322.043 179.693 319.395 163.08C318.547 157.768 317.138 148.794 317.216 148.347C317.229 148.22 317.292 148.102 317.391 148.021C317.49 147.94 317.617 147.901 317.744 147.914C317.871 147.927 317.988 147.99 318.069 148.089C318.15 148.188 318.189 148.316 318.176 148.444C318.176 148.604 318.302 150.094 320.35 162.927C322.984 179.445 335.595 215.039 335.723 215.396C335.745 215.456 335.755 215.519 335.752 215.583C335.749 215.647 335.733 215.709 335.706 215.767C335.679 215.825 335.64 215.876 335.593 215.919C335.546 215.961 335.49 215.994 335.43 216.015C335.379 216.033 335.325 216.043 335.27 216.044C335.171 216.046 335.073 216.017 334.991 215.96C334.909 215.904 334.846 215.823 334.811 215.73Z" fill="#7640CC"/>
<path d="M311.2 219.269H311.262C311.325 219.26 311.386 219.239 311.441 219.207C311.496 219.174 311.544 219.132 311.582 219.08C311.62 219.029 311.647 218.971 311.663 218.909C311.678 218.847 311.681 218.783 311.672 218.72C310.862 213.123 309.25 190.469 309.402 180.112C309.55 170.009 313.762 149.882 313.803 149.68C313.816 149.617 313.817 149.553 313.806 149.491C313.794 149.428 313.77 149.369 313.736 149.315C313.701 149.262 313.656 149.216 313.604 149.18C313.552 149.144 313.493 149.119 313.431 149.106C313.369 149.093 313.305 149.092 313.243 149.103C313.181 149.115 313.121 149.139 313.068 149.174C313.015 149.208 312.969 149.253 312.933 149.305C312.898 149.358 312.872 149.417 312.859 149.479C312.816 149.681 308.586 169.9 308.437 180.098C308.277 190.496 309.902 213.238 310.715 218.86C310.733 218.975 310.791 219.081 310.881 219.156C310.97 219.231 311.083 219.271 311.2 219.269Z" fill="#7640CC"/>
<path d="M306.098 219.335C306.168 219.336 306.237 219.321 306.301 219.292C306.365 219.264 306.422 219.221 306.468 219.168C306.513 219.115 306.547 219.052 306.566 218.984C306.585 218.917 306.589 218.846 306.578 218.776C306.549 218.592 303.72 200.129 304.371 184.843C305.023 169.557 308.959 149.989 308.999 149.794C309.011 149.731 309.011 149.667 308.999 149.604C308.987 149.542 308.963 149.483 308.928 149.429C308.893 149.376 308.848 149.331 308.795 149.295C308.742 149.26 308.683 149.235 308.621 149.222C308.559 149.21 308.495 149.209 308.433 149.221C308.37 149.234 308.311 149.258 308.258 149.293C308.205 149.328 308.16 149.374 308.124 149.427C308.089 149.479 308.064 149.539 308.051 149.601C308.011 149.798 304.063 169.427 303.411 184.801C302.76 200.175 305.6 218.739 305.629 218.925C305.646 219.038 305.703 219.142 305.789 219.217C305.874 219.292 305.984 219.333 306.098 219.335Z" fill="#7640CC"/>
<path d="M301.36 217.961C301.378 217.962 301.397 217.962 301.416 217.961C301.479 217.953 301.54 217.933 301.595 217.901C301.65 217.87 301.699 217.828 301.738 217.777C301.776 217.727 301.805 217.669 301.821 217.607C301.838 217.546 301.842 217.481 301.833 217.418C301.808 217.229 299.371 198.211 300.016 182.363C300.661 166.515 305.606 149.991 305.656 149.826C305.693 149.703 305.68 149.57 305.619 149.457C305.559 149.343 305.456 149.259 305.333 149.221C305.211 149.184 305.078 149.197 304.965 149.258C304.852 149.319 304.768 149.422 304.731 149.545C304.681 149.705 299.701 166.37 299.051 182.323C298.401 198.275 300.851 217.352 300.875 217.543C300.891 217.661 300.949 217.768 301.038 217.845C301.128 217.922 301.242 217.963 301.36 217.961Z" fill="#7640CC"/>
<path d="M329.58 143.819C329.58 143.819 314.888 150.357 302.564 147.257C302.564 147.257 301.964 148.115 302.501 149.522C302.501 149.522 311.834 154.593 330.402 146.657C330.4 146.657 330.514 144.952 329.58 143.819Z" fill="#7640CC"/>
<path d="M305.056 107.613C305.082 107.613 305.109 107.605 305.131 107.59C305.313 107.462 305.519 107.373 305.737 107.328C305.955 107.282 306.18 107.281 306.398 107.325C306.433 107.335 306.47 107.331 306.502 107.314C306.534 107.296 306.558 107.267 306.569 107.232C306.574 107.215 306.576 107.196 306.574 107.178C306.572 107.16 306.566 107.143 306.558 107.127C306.549 107.111 306.537 107.097 306.523 107.085C306.509 107.074 306.492 107.066 306.475 107.061C306.219 107.005 305.954 107.002 305.696 107.053C305.439 107.105 305.196 107.209 304.98 107.359C304.95 107.379 304.928 107.411 304.921 107.446C304.913 107.482 304.92 107.519 304.94 107.55C304.953 107.569 304.97 107.585 304.99 107.596C305.01 107.607 305.033 107.613 305.056 107.613Z" fill="#C16256"/>
<path d="M309.535 107.979C309.554 107.979 309.573 107.975 309.591 107.967C309.608 107.959 309.624 107.948 309.636 107.934C309.649 107.921 309.659 107.906 309.666 107.889C309.673 107.873 309.677 107.855 309.677 107.837C309.677 107.819 309.673 107.801 309.666 107.784C309.659 107.767 309.649 107.752 309.636 107.74C309.607 107.712 308.894 107.064 307.945 107.178C307.909 107.182 307.876 107.201 307.854 107.229C307.831 107.258 307.821 107.294 307.825 107.33C307.827 107.349 307.833 107.367 307.842 107.383C307.852 107.4 307.864 107.414 307.879 107.425C307.894 107.437 307.911 107.445 307.929 107.45C307.948 107.454 307.967 107.455 307.985 107.452C308.807 107.353 309.451 107.934 309.457 107.934C309.477 107.958 309.505 107.974 309.535 107.979Z" fill="#C16256"/>
<path d="M306.975 112.348C308.171 112.348 308.665 111.545 308.686 111.512C308.695 111.496 308.702 111.479 308.705 111.461C308.707 111.443 308.707 111.425 308.702 111.407C308.698 111.39 308.69 111.373 308.679 111.358C308.669 111.344 308.655 111.332 308.639 111.322C308.608 111.304 308.571 111.298 308.536 111.307C308.5 111.316 308.47 111.338 308.451 111.369C308.428 111.406 307.943 112.171 306.735 112.061C306.699 112.058 306.663 112.069 306.635 112.092C306.607 112.116 306.59 112.149 306.587 112.186C306.585 112.204 306.587 112.222 306.592 112.239C306.597 112.256 306.606 112.272 306.617 112.286C306.629 112.3 306.643 112.312 306.659 112.32C306.675 112.328 306.692 112.334 306.71 112.335C306.798 112.344 306.887 112.348 306.975 112.348Z" fill="#C16256"/>
<path d="M278.774 119.775H278.783C278.948 119.773 279.104 119.705 279.218 119.587C279.333 119.469 279.396 119.311 279.395 119.146C279.305 117.461 278.848 115.817 278.054 114.33C277.976 114.185 277.844 114.077 277.686 114.03C277.529 113.982 277.359 113.999 277.215 114.078C277.07 114.156 276.962 114.288 276.915 114.446C276.868 114.604 276.885 114.774 276.963 114.919C277.659 116.234 278.066 117.684 278.155 119.17C278.159 119.332 278.226 119.486 278.342 119.598C278.458 119.711 278.612 119.775 278.774 119.775Z" fill="#FFC3AF"/>
<path d="M355.54 195.509C355.528 196.316 355.282 197.101 354.834 197.771C354.385 198.44 353.753 198.965 353.013 199.282C352.274 199.598 351.459 199.693 350.666 199.555C349.874 199.416 349.139 199.05 348.55 198.501L263.211 119.687L237.502 95.9415L239.902 93.4759L249.868 83.267L274.064 108.563L354.384 192.528C354.762 192.924 355.059 193.392 355.258 193.903C355.456 194.415 355.552 194.96 355.54 195.509Z" fill="#23659B"/>
<path d="M355.54 195.509C354.762 196.119 353.792 196.432 352.805 196.392C351.818 196.352 350.877 195.962 350.15 195.291L264.811 116.477L239.908 93.4759L249.875 83.267L274.07 108.563L354.39 192.528C354.767 192.925 355.063 193.392 355.261 193.904C355.458 194.415 355.553 194.961 355.54 195.509Z" fill="#3A72AA"/>
<path d="M249.874 83.267C249.874 83.267 251.933 65.2151 237.501 60.6709C223.069 56.1266 215.725 66.5747 204.015 53.287C204.015 53.287 198.512 99.4873 237.501 95.9447L249.874 83.267Z" fill="#7640CC"/>
<path d="M308.722 153.564C308.725 153.615 308.738 153.664 308.761 153.709C308.783 153.755 308.814 153.795 308.852 153.829C308.89 153.862 308.934 153.888 308.981 153.904C309.029 153.92 309.08 153.927 309.13 153.924H309.157C309.328 153.913 309.5 153.896 309.669 153.89C309.839 153.884 310.01 153.876 310.181 153.89C310.486 153.896 310.791 153.92 311.093 153.962C310.547 154.545 309.936 155.062 309.272 155.505C309.064 155.588 308.855 155.665 308.647 155.75C308.264 155.895 307.88 156.036 307.495 156.171C306.722 156.44 305.942 156.688 305.152 156.916C305.061 156.945 304.985 157.007 304.937 157.09C304.889 157.173 304.873 157.271 304.893 157.365C304.913 157.459 304.967 157.541 305.044 157.598C305.122 157.654 305.217 157.679 305.312 157.669C306.137 157.537 306.959 157.384 307.778 157.21C308.188 157.122 308.596 157.028 309.004 156.927C309.164 156.889 309.324 156.848 309.484 156.807L309.493 156.828C309.104 157.088 308.712 157.343 308.314 157.588C307.868 157.868 307.415 158.135 306.954 158.391C306.496 158.649 306.029 158.887 305.557 159.12C305.47 159.164 305.403 159.241 305.37 159.333C305.337 159.426 305.341 159.527 305.38 159.617C305.419 159.707 305.491 159.779 305.581 159.817C305.671 159.856 305.772 159.858 305.864 159.824C306.37 159.633 306.876 159.436 307.37 159.216C307.864 158.996 308.357 158.77 308.842 158.531C309.327 158.291 309.802 158.049 310.261 157.792H310.271C310.136 157.919 310.002 158.044 309.863 158.168C309.543 158.446 309.223 158.717 308.893 158.97C308.564 159.224 308.22 159.479 307.868 159.715C307.516 159.951 307.159 160.174 306.794 160.393C306.706 160.441 306.64 160.521 306.61 160.617C306.58 160.714 306.589 160.818 306.635 160.907C306.681 160.997 306.76 161.065 306.855 161.097C306.95 161.129 307.054 161.122 307.144 161.078C307.549 160.898 307.944 160.714 308.343 160.507C308.741 160.3 309.124 160.086 309.506 159.865C309.888 159.643 310.26 159.393 310.626 159.137C310.81 159.011 310.992 158.879 311.172 158.744L311.412 158.56H311.428C311.357 158.649 311.287 158.739 311.213 158.828C310.996 159.089 310.765 159.346 310.528 159.598C310.292 159.85 310.048 160.096 309.796 160.336C309.543 160.577 309.287 160.818 309.024 161.044C308.951 161.109 308.905 161.199 308.896 161.297C308.886 161.394 308.914 161.492 308.973 161.569C309.032 161.647 309.119 161.7 309.215 161.716C309.311 161.732 309.41 161.711 309.492 161.658C309.792 161.458 310.092 161.258 310.386 161.046C310.68 160.834 310.97 160.617 311.256 160.391C311.543 160.165 311.823 159.929 312.098 159.683C312.236 159.56 312.372 159.433 312.506 159.301L312.706 159.1L312.78 159.025C313.162 158.865 314.466 158.195 315.866 156.004C316.325 155.285 315.351 153.195 314.562 152.919C313.676 152.608 312.263 152.839 311.884 152.909C311.682 152.892 311.48 152.882 311.28 152.879C310.9 152.877 310.52 152.9 310.143 152.946C309.956 152.964 309.77 153.004 309.586 153.031C309.402 153.059 309.22 153.11 309.037 153.15C308.942 153.166 308.857 153.218 308.798 153.295C308.74 153.372 308.712 153.468 308.722 153.564Z" fill="#FFC3AF"/>
<path d="M323.069 122.806C326.749 127.583 330.723 132.626 331.841 138.787C333.838 147.142 327.56 151.717 320.651 154.28C319.115 154.901 317.611 155.471 316.153 156.081C315.719 156.266 315.231 156.279 314.787 156.118C314.342 155.958 313.975 155.635 313.758 155.214C313.541 154.793 313.491 154.306 313.617 153.85C313.742 153.393 314.035 153.001 314.437 152.752C315.857 151.871 317.281 151.057 318.643 150.232C321.896 148.164 326.95 145.492 325.214 141.065C323.821 135.683 319.593 131.965 316.094 127.87C312.43 123.125 319.712 117.822 323.069 122.806Z" fill="#FFC3AF"/>
<path d="M333.44 134.292C336.68 144.938 329.955 151.307 325.048 153.807C323.06 154.841 320.913 155.53 318.697 155.847C317.927 155.963 317.147 156.002 316.369 155.961C316.422 155.319 316.314 154.674 316.055 154.086C315.795 153.497 315.393 152.982 314.884 152.59C314.846 151.985 315.246 151.288 315.889 150.545C318.006 148.099 321.908 145.683 322.257 143.058C322.718 139.606 321.248 135.061 317.576 131.225C312.644 126.075 314.009 121.966 314.009 121.966C314.009 121.966 314.196 119.921 317.153 119.157C320.544 118.276 329.638 121.782 333.44 134.292Z" fill="#F8B42B"/>
<path d="M315.896 150.538C316.335 151.248 315.692 151.611 315.896 152.155C316.101 152.699 317.263 152.476 317.298 153.028C317.333 153.58 316.632 154.248 317.618 154.62C317.891 154.712 318.136 154.873 318.328 155.088C318.52 155.303 318.653 155.564 318.714 155.847C317.932 155.963 317.141 156.016 316.351 156.007C316.397 155.352 316.283 154.695 316.017 154.094C315.752 153.494 315.343 152.968 314.828 152.563C314.78 151.954 315.253 151.282 315.896 150.538Z" fill="#CE3932"/>
<path d="M317.16 119.151C317.16 119.151 317.663 120.83 316.111 121.586C314.559 122.342 315.295 124.1 313.391 124.294C311.487 124.488 311.162 122.674 309.415 123.787C307.53 124.986 306.423 123.274 306.888 122.255C307.354 121.236 305.792 121.602 306.272 120.141C306.272 120.141 307.89 118.929 309.101 119.729C309.101 119.729 309.421 121.321 310.576 121.427C311.336 121.498 313.24 120.321 314.256 119.412C314.255 119.412 315.768 118.602 317.16 119.151Z" fill="#CE3932"/>
<path d="M274.788 130.278C273.668 131.273 272.574 129.705 274.183 129.445L274.162 129.461C274.772 128.933 275.37 129.796 274.788 130.278Z" fill="#FFC3AF"/>
<path d="M273.945 129.729C272.484 130.613 271.951 128.605 273.42 128.799C273.386 128.799 273.556 128.758 273.526 128.763C274.239 128.363 274.577 129.395 273.945 129.729Z" fill="#FFC3AF"/>
<path d="M273.046 129.183L272.494 129.318C271.714 129.479 271.764 128.326 272.415 128.212L272.967 128.077C273.746 127.915 273.698 129.068 273.046 129.183Z" fill="#FFC3AF"/>
<path d="M272.337 128.584L271.785 128.719C271.006 128.88 271.054 127.729 271.707 127.615L272.259 127.478C273.038 127.318 272.988 128.47 272.337 128.584Z" fill="#FFC3AF"/>
<path d="M240.451 93.7247H240.383C239.743 93.6718 224.716 92.3298 217.359 84.1884C210.052 76.1031 208.287 65.4591 208.215 65.0097C208.195 64.9042 208.197 64.7957 208.219 64.6908C208.242 64.5858 208.285 64.4864 208.346 64.3985C208.408 64.3106 208.486 64.236 208.577 64.179C208.668 64.1221 208.769 64.084 208.875 64.067C208.98 64.0501 209.088 64.0545 209.192 64.0802C209.296 64.1059 209.394 64.1522 209.48 64.2165C209.566 64.2807 209.638 64.3616 209.692 64.4543C209.746 64.5469 209.781 64.6496 209.794 64.7561C209.812 64.8604 211.566 75.3872 218.545 83.1097C225.475 90.7792 240.366 92.1131 240.516 92.1244C240.728 92.1331 240.928 92.226 241.072 92.3827C241.216 92.5394 241.292 92.747 241.283 92.9599C241.275 93.1727 241.182 93.3734 241.026 93.5177C240.87 93.6621 240.663 93.7383 240.451 93.7296V93.7247Z" fill="#9358E0"/>
<path d="M243.605 90.4903C243.473 90.4906 243.343 90.4574 243.228 90.394C233.514 85.1787 224.245 75.721 224.152 75.6263C224.004 75.4741 223.922 75.269 223.924 75.056C223.926 74.843 224.013 74.6396 224.164 74.4906C224.316 74.3416 224.521 74.2592 224.733 74.2615C224.945 74.2637 225.148 74.3505 225.296 74.5027C225.388 74.5958 234.49 83.8801 243.983 88.9782C244.14 89.0625 244.265 89.1972 244.337 89.3609C244.409 89.5245 244.425 89.7077 244.382 89.8813C244.338 90.0549 244.238 90.209 244.098 90.319C243.957 90.4291 243.784 90.4888 243.605 90.4887V90.4903Z" fill="#9358E0"/>
<path d="M246.506 87.5175C246.328 87.5173 246.156 87.4577 246.015 87.3481C245.875 87.2385 245.775 87.0852 245.731 86.9124C245.715 86.8514 244.106 80.6843 239.136 74.392C233.746 67.57 223.026 66.7369 222.917 66.7288C222.812 66.7214 222.709 66.6932 222.615 66.6459C222.521 66.5987 222.437 66.5333 222.368 66.4535C222.299 66.3737 222.246 66.281 222.213 66.1807C222.18 66.0805 222.166 65.9747 222.174 65.8693C222.181 65.7639 222.209 65.661 222.257 65.5665C222.304 65.472 222.369 65.3877 222.448 65.3184C222.528 65.2492 222.62 65.1964 222.72 65.163C222.82 65.1295 222.926 65.1162 223.031 65.1237C223.498 65.1558 234.565 66.0194 240.391 73.3903C245.584 79.9635 247.215 86.2446 247.282 86.5095C247.334 86.7157 247.303 86.9344 247.195 87.1175C247.086 87.3005 246.91 87.4328 246.704 87.4854C246.64 87.5039 246.573 87.5147 246.506 87.5175Z" fill="#9358E0"/>
<path d="M249.875 83.267L274.07 108.563L263.211 119.685L237.502 95.9415L249.875 83.267Z" fill="#1D3F70"/>
<path d="M91.9356 100.17C91.9356 100.17 88.6988 103.701 91.318 107.804L94.8508 106.651L91.9356 100.17Z" fill="#FFC3AF"/>
<path d="M116.019 123.454C120.432 121.194 134.75 114.225 136.31 109.529C137.323 106.171 136.95 102.16 136.457 98.6141C136.392 97.2851 135.236 95.0715 137.152 94.6012C138.323 94.3701 138.782 95.59 139.232 96.4118C146.281 109.828 139.296 121.774 126.299 128.376C124.05 129.659 121.715 130.786 119.312 131.747C113.856 133.774 110.678 125.734 116.019 123.454Z" fill="#FFC3AF"/>
<path d="M132.93 90.7648C132.93 90.7648 137.923 90.1227 138.882 95.7681L135.747 97.017L132.93 90.7648Z" fill="#FFC3AF"/>
<path d="M133.606 227.86L122.157 227.409C121.158 227.329 121.206 226.308 121.421 225.523C122.163 222.693 121.305 215.773 121.214 212.827C121.207 212.7 121.227 212.573 121.272 212.454C121.317 212.335 121.386 212.227 121.475 212.136C121.564 212.045 121.671 211.974 121.789 211.928C121.907 211.881 122.033 211.859 122.16 211.864L127.213 212.063C127.342 212.068 127.468 212.101 127.584 212.158C127.699 212.216 127.801 212.298 127.883 212.398C127.965 212.499 128.024 212.615 128.057 212.741C128.09 212.866 128.096 212.997 128.075 213.124L126.869 220.43C126.355 223.775 129.909 224.581 132.169 225.117C133.065 225.382 133.998 225.772 134.409 226.467C134.496 226.607 134.543 226.768 134.546 226.934C134.548 227.099 134.506 227.261 134.423 227.404C134.341 227.547 134.221 227.665 134.078 227.745C133.934 227.826 133.771 227.865 133.606 227.86Z" fill="#FFC3AF"/>
<path d="M120.959 226.162C120.959 226.725 121.219 227.378 121.871 227.39L133.747 227.858C133.889 227.864 134.031 227.836 134.16 227.775C134.288 227.714 134.401 227.623 134.487 227.509C134.573 227.396 134.63 227.263 134.654 227.122C134.678 226.981 134.668 226.837 134.624 226.701C134.215 225.383 132.384 223.271 127.264 222.662C126.464 222.568 124.181 223.263 121.717 222.526C121.111 223.636 120.847 224.901 120.959 226.162Z" fill="#1D3F70"/>
<path d="M130.98 226.136C130.947 226.135 130.915 226.127 130.886 226.114C130.855 226.1 130.828 226.081 130.805 226.056C130.782 226.032 130.764 226.003 130.753 225.972C130.741 225.941 130.735 225.908 130.736 225.874C130.738 225.841 130.745 225.808 130.759 225.778C131.353 224.462 132.382 224.089 132.425 224.073C132.488 224.051 132.558 224.055 132.619 224.084C132.68 224.114 132.727 224.166 132.749 224.23C132.771 224.294 132.767 224.364 132.738 224.425C132.709 224.486 132.656 224.533 132.593 224.555C132.558 224.568 131.721 224.876 131.22 225.99C131.199 226.035 131.165 226.073 131.122 226.099C131.079 226.125 131.03 226.138 130.98 226.136Z" fill="#E8C0A6"/>
<path d="M129.029 225.821C129.004 225.82 128.979 225.815 128.954 225.807C128.923 225.796 128.894 225.78 128.868 225.758C128.843 225.736 128.823 225.71 128.808 225.68C128.793 225.65 128.784 225.617 128.782 225.584C128.78 225.551 128.784 225.518 128.794 225.486C129.137 224.561 129.81 223.797 130.682 223.341C130.743 223.313 130.812 223.31 130.875 223.332C130.938 223.355 130.989 223.402 131.017 223.463C131.046 223.523 131.049 223.593 131.026 223.656C131.004 223.719 130.957 223.77 130.897 223.799C130.152 224.201 129.578 224.86 129.279 225.653C129.261 225.704 129.227 225.748 129.182 225.778C129.137 225.809 129.084 225.824 129.029 225.821Z" fill="#E8C0A6"/>
<path d="M126.809 225.452C126.781 225.451 126.753 225.445 126.726 225.435C126.665 225.41 126.617 225.363 126.59 225.303C126.563 225.243 126.561 225.175 126.584 225.113C126.96 224.18 127.609 223.382 128.445 222.824C128.473 222.804 128.505 222.79 128.539 222.782C128.573 222.775 128.608 222.775 128.643 222.782C128.677 222.788 128.709 222.802 128.738 222.822C128.766 222.843 128.79 222.868 128.808 222.898C128.827 222.928 128.838 222.961 128.843 222.996C128.848 223.031 128.845 223.066 128.836 223.099C128.826 223.133 128.81 223.164 128.788 223.191C128.766 223.218 128.738 223.24 128.707 223.256C127.97 223.758 127.395 224.466 127.054 225.292C127.035 225.34 127.001 225.382 126.957 225.411C126.913 225.439 126.862 225.454 126.809 225.452Z" fill="#E8C0A6"/>
<path d="M134.626 226.701L120.959 226.162C120.984 226.581 121.093 226.991 121.279 227.367L133.74 227.858C133.88 227.864 134.02 227.837 134.148 227.778C134.275 227.719 134.387 227.63 134.473 227.519C134.56 227.407 134.619 227.277 134.645 227.138C134.671 227 134.663 226.857 134.623 226.722L134.626 226.701Z" fill="#10325B"/>
<path d="M129.72 217.495C129.256 219.011 128.958 219.889 128.958 219.889C128.958 219.889 124.013 221.919 119.435 220.113C119.435 220.113 119.456 219.781 119.496 219.179C119.496 219.109 119.506 219.033 119.51 218.954C119.526 218.718 119.542 218.447 119.562 218.152C119.962 211.722 120.787 192.79 120.418 188.031C119.975 182.652 118.102 177.491 114.994 173.086C114.192 171.942 113.294 170.868 112.31 169.876C107.19 164.786 101.81 164.975 103.702 156.049C103.982 154.736 115.542 155.314 115.542 155.314L128.589 157.423C128.589 157.423 134.339 171.507 135.406 184.804C136.259 195.435 131.499 211.689 129.72 217.495Z" fill="#1D3F70"/>
<path d="M121.439 219.179H119.495C119.495 219.109 119.504 219.033 119.509 218.954C119.525 218.718 119.541 218.447 119.56 218.152C119.96 211.721 120.786 192.79 120.416 188.031C119.974 182.652 118.101 177.491 114.992 173.086L115.285 169.569C115.285 169.569 120.283 176.679 121.562 183.156C122.84 189.633 121.439 219.179 121.439 219.179Z" fill="#103663"/>
<path d="M129.718 217.495C129.254 219.009 128.956 219.889 128.956 219.889C128.956 219.889 124.009 221.921 119.432 220.113C119.432 220.113 119.481 219.386 119.558 218.145C119.558 218.145 124.865 219.696 129.718 217.495Z" fill="#103663"/>
<path d="M72.115 212.932L68.2558 202.108C68.2144 201.991 68.1971 201.867 68.205 201.743C68.2129 201.619 68.2458 201.498 68.3018 201.387C68.3578 201.276 68.4356 201.178 68.5305 201.098C68.6255 201.019 68.7356 200.959 68.8542 200.923C71.4638 200.585 75.2046 198.781 77.5838 197.63C77.5838 197.63 80.691 202.659 80.1566 202.779L74.355 205.158C73.3214 206.257 73.5406 205.838 73.7022 207.452C73.8206 209.51 74.707 211.474 73.7022 213.161C73.6044 213.294 73.4727 213.398 73.3209 213.461C73.1691 213.525 73.003 213.546 72.8402 213.522C72.6774 213.499 72.5241 213.431 72.3964 213.328C72.2687 213.224 72.1714 213.087 72.115 212.932Z" fill="#FFC3AF"/>
<path d="M68.9592 200.532C68.4408 200.75 67.932 201.23 68.1592 201.84L72.1592 213.067C72.2064 213.201 72.2855 213.323 72.3896 213.42C72.4937 213.517 72.6198 213.588 72.7571 213.626C72.8943 213.664 73.0387 213.668 73.1778 213.637C73.317 213.607 73.4467 213.543 73.556 213.452C74.6216 212.579 76.0232 210.537 74.4312 205.124C74.0856 204.389 73.0616 202.533 72.5112 199.896C72.5096 199.896 70.86 199.57 68.9592 200.532Z" fill="#1D3F70"/>
<path d="M72.7218 209.848C72.7105 209.817 72.7056 209.785 72.7074 209.752C72.7086 209.719 72.7164 209.686 72.7303 209.656C72.7442 209.626 72.7639 209.598 72.7882 209.576C72.8126 209.553 72.8412 209.536 72.8724 209.525C72.9036 209.513 72.9366 209.508 72.9698 209.51C74.4098 209.571 75.1378 210.388 75.1682 210.423C75.2073 210.474 75.2256 210.538 75.2193 210.602C75.2131 210.666 75.1827 210.726 75.1345 210.768C75.0862 210.811 75.0237 210.833 74.9595 210.831C74.8953 210.829 74.8344 210.802 74.789 210.757C74.7634 210.729 74.1618 210.067 72.949 210.015C72.8988 210.013 72.8504 209.996 72.8099 209.967C72.7694 209.937 72.7387 209.896 72.7218 209.848Z" fill="#E8C0A6"/>
<path d="M72.2822 207.914C72.2742 207.89 72.2694 207.865 72.2678 207.84C72.2663 207.807 72.2714 207.774 72.2827 207.742C72.2941 207.711 72.3114 207.682 72.3339 207.657C72.3563 207.633 72.3834 207.613 72.4135 207.599C72.4436 207.585 72.4762 207.577 72.5094 207.575C73.492 207.549 74.4493 207.889 75.1958 208.53C75.2221 208.552 75.2436 208.58 75.2591 208.61C75.2746 208.641 75.2837 208.674 75.2859 208.709C75.2882 208.743 75.2834 208.777 75.272 208.81C75.2606 208.842 75.2427 208.872 75.2195 208.897C75.1963 208.922 75.1682 208.942 75.137 208.956C75.1057 208.97 75.0719 208.978 75.0377 208.979C75.0035 208.979 74.9695 208.973 74.9378 208.96C74.9062 208.947 74.8774 208.927 74.8534 208.903C74.2034 208.356 73.378 208.065 72.5302 208.083C72.4765 208.084 72.4238 208.068 72.3793 208.038C72.3348 208.008 72.3009 207.965 72.2822 207.914Z" fill="#E8C0A6"/>
<path d="M71.7879 205.708C71.7789 205.682 71.7741 205.653 71.7735 205.625C71.773 205.592 71.7792 205.559 71.7915 205.528C71.8038 205.497 71.8221 205.469 71.8453 205.445C71.8685 205.422 71.8962 205.403 71.9267 205.39C71.9572 205.377 71.9899 205.37 72.0231 205.37C73.0274 205.372 74.0077 205.678 74.8359 206.248C74.8835 206.29 74.9136 206.349 74.9201 206.412C74.9265 206.476 74.909 206.539 74.8708 206.59C74.8327 206.641 74.7768 206.676 74.7143 206.687C74.6517 206.699 74.5872 206.686 74.5335 206.652C73.7922 206.153 72.9208 205.883 72.0279 205.877C71.9754 205.877 71.924 205.861 71.881 205.831C71.838 205.801 71.8055 205.758 71.7879 205.708Z" fill="#E8C0A6"/>
<path d="M126.945 219.239L126.335 219.12C126.385 218.871 131.166 194.177 130.604 183.485C130.042 172.793 123.45 158.015 123.385 157.868L123.95 157.612C124.017 157.762 130.657 172.656 131.225 183.456C131.793 194.256 126.993 218.99 126.945 219.239Z" fill="#103663"/>
<path d="M73.5593 213.452L68.9593 200.532C68.7177 200.65 68.4915 200.798 68.2857 200.972C68.1883 201.054 68.1185 201.164 68.0856 201.288C68.0527 201.411 68.0583 201.542 68.1017 201.662L72.1673 213.059C72.2137 213.192 72.2913 213.312 72.3936 213.409C72.4958 213.506 72.6198 213.577 72.7551 213.616C72.8903 213.655 73.0329 213.661 73.1709 213.633C73.3089 213.605 73.4383 213.545 73.5481 213.457L73.5593 213.452Z" fill="#10325B"/>
<path d="M119.75 158.224C116.07 172.234 113.135 183.143 102.508 193.925C95.5082 201.025 84.5962 204.333 79.9354 205.047C78.3642 205.286 77.4186 205.349 77.4186 205.349C77.4186 205.349 72.7002 201.354 74.3882 195.397C74.3882 195.397 75.1882 195.174 76.4282 194.755C80.321 193.471 88.3738 190.186 91.1258 186.588C99.7354 175.321 95.7466 165.784 100.086 155.929L119.75 158.224Z" fill="#1D3F70"/>
<path d="M79.9354 205.047C78.3642 205.286 77.4186 205.349 77.4186 205.349C77.4186 205.349 72.7002 201.354 74.3882 195.397C74.3882 195.397 75.1882 195.174 76.4282 194.755C76.4282 194.758 75.7962 201.252 79.9354 205.047Z" fill="#103663"/>
<path d="M117.132 122.584C117.418 120.077 117.025 116.449 116.677 114.968C116.049 112.032 111.397 113.168 112.173 116.054C112.322 115.96 112.802 121.281 112.471 122.758C108.109 124.069 121.226 128.381 117.132 122.584Z" fill="#FFC3AF"/>
<path d="M112.129 115.818C112.129 115.852 112.138 115.887 112.145 115.921C112.151 115.955 112.162 116.014 112.173 116.061C112.281 115.989 112.583 118.924 112.586 121.056C114.585 121.966 116.807 121.552 117.215 121.469C117.303 119.221 116.959 116.436 116.777 115.393C116.724 115.147 116.684 115.005 116.677 114.974C116.661 114.908 116.642 114.844 116.621 114.78C116.514 114.459 116.337 114.165 116.104 113.92C115.872 113.675 115.588 113.483 115.274 113.359C114.833 113.186 114.349 113.152 113.888 113.263C113.426 113.374 113.01 113.624 112.695 113.979C112.682 113.992 112.669 114.008 112.658 114.021C112.45 114.267 112.295 114.554 112.204 114.863C112.113 115.173 112.087 115.498 112.129 115.818Z" fill="#E57D61"/>
<path d="M119.999 110.382C119.999 110.382 119.556 107.913 118.508 106.33L117.209 107.255L119.999 110.382Z" fill="#8E4A35"/>
<path d="M121.217 117.623C119.815 119.607 117.303 120.512 115.161 120.404C114.502 120.387 113.851 120.25 113.241 120.002C113.038 119.917 112.841 119.818 112.652 119.706C103.482 113.03 112.076 98.2577 118.801 108.831C120.959 111.765 124.116 113.013 121.217 117.623Z" fill="#FFC3AF"/>
<path d="M116.296 166.524H116.273C116.231 166.523 116.189 166.513 116.151 166.494C116.112 166.476 116.078 166.449 116.05 166.417C116.023 166.384 116.002 166.346 115.99 166.306C115.977 166.265 115.974 166.222 115.979 166.179L116.459 161.892C116.472 161.813 116.515 161.743 116.578 161.695C116.641 161.647 116.72 161.625 116.799 161.634C116.878 161.643 116.951 161.682 117.002 161.743C117.053 161.803 117.079 161.881 117.075 161.961L116.649 165.797C116.808 165.715 116.951 165.607 117.073 165.476C117.713 164.797 118.441 163.141 118.241 159.097C118.241 159.018 118.272 158.941 118.327 158.883C118.382 158.826 118.457 158.791 118.536 158.787C118.616 158.783 118.694 158.81 118.754 158.862C118.814 158.914 118.852 158.987 118.86 159.067C119.075 163.386 118.23 165.192 117.483 165.945C116.932 166.489 116.417 166.524 116.296 166.524Z" fill="#103663"/>
<path d="M116.777 111.724C116.796 111.663 116.797 111.598 116.78 111.537C116.763 111.476 116.728 111.421 116.68 111.38C116.631 111.339 116.572 111.313 116.509 111.306C116.446 111.299 116.382 111.31 116.326 111.339C116.27 111.368 116.223 111.413 116.193 111.469C116.162 111.525 116.148 111.588 116.153 111.651C116.159 111.715 116.183 111.775 116.222 111.825C116.262 111.875 116.315 111.911 116.375 111.931C116.456 111.956 116.543 111.949 116.619 111.91C116.694 111.872 116.751 111.804 116.777 111.724Z" fill="#C16256"/>
<path d="M77.0481 202.728L76.9121 202.121C77.0593 202.087 91.6865 198.72 99.6321 191.708C107.848 184.456 110.52 168.979 112.471 157.678L113.082 157.784C111.115 169.181 108.421 184.777 100.042 192.175C91.9761 199.288 77.1969 202.694 77.0481 202.728Z" fill="#103663"/>
<path d="M119.359 110.842C119.379 110.782 119.379 110.717 119.362 110.656C119.344 110.595 119.309 110.54 119.261 110.5C119.212 110.459 119.153 110.433 119.09 110.426C119.027 110.419 118.963 110.431 118.907 110.46C118.851 110.489 118.805 110.534 118.774 110.59C118.744 110.646 118.73 110.709 118.736 110.772C118.741 110.836 118.765 110.896 118.804 110.946C118.844 110.995 118.897 111.032 118.958 111.051C119.039 111.077 119.126 111.069 119.202 111.03C119.277 110.991 119.334 110.923 119.359 110.842Z" fill="#C16256"/>
<path d="M118.983 113.722C118.808 113.775 118.625 113.791 118.444 113.769C118.428 113.766 118.413 113.761 118.399 113.753C118.386 113.745 118.374 113.734 118.365 113.721C118.355 113.708 118.348 113.694 118.344 113.678C118.341 113.663 118.34 113.647 118.342 113.631C118.344 113.616 118.35 113.601 118.358 113.587C118.366 113.573 118.377 113.561 118.389 113.552C118.402 113.543 118.417 113.536 118.432 113.532C118.447 113.528 118.463 113.527 118.479 113.529C118.901 113.592 119.439 113.3 119.485 113.104C119.503 113.037 119.407 112.987 119.325 112.958C118.588 112.7 117.925 111.486 117.898 111.435C117.886 111.407 117.886 111.376 117.896 111.347C117.906 111.319 117.926 111.295 117.952 111.28C117.979 111.266 118.01 111.262 118.039 111.269C118.068 111.276 118.094 111.294 118.111 111.319C118.111 111.33 118.751 112.501 119.405 112.728C119.759 112.852 119.746 113.074 119.725 113.163C119.663 113.396 119.34 113.619 118.983 113.722Z" fill="#C16256"/>
<path d="M118.302 108.114C116.441 107.486 113.467 108.818 111.939 109.054C111.939 109.054 112.688 111.622 110.355 113.915C110.515 116.358 110.297 117.473 113.235 120.014C113.032 119.93 112.835 119.831 112.646 119.719C103.828 113.354 111.612 98.7891 118.302 108.114Z" fill="#E57D61"/>
<path d="M118.752 102.678C117.452 100.893 114.363 100.312 112.233 103.128C110.595 105.296 108.497 105.624 108.856 107.566C105.252 109.974 107.88 113.958 107.88 113.958L109.8 113.409C111.736 111.237 111.24 108.593 111.24 108.593C111.742 108.547 112.236 108.426 112.704 108.236C114.08 107.634 116.176 107.112 117.891 107.444C119.606 107.776 120.203 104.674 118.752 102.678Z" fill="#8E4A35"/>
<path d="M107.858 115.581C108.233 116.544 109.167 117.093 109.938 116.791C110.709 116.489 111.045 115.457 110.671 114.488C110.297 113.518 109.364 112.976 108.591 113.277C107.818 113.579 107.485 114.61 107.858 115.581Z" fill="#FFC3AF"/>
<path d="M109.558 113.937C109.524 113.937 108.739 113.764 108.385 114.218C108.293 114.343 108.24 114.492 108.233 114.647C108.232 114.662 108.232 114.678 108.233 114.693C108.222 115.007 108.334 115.403 108.568 115.881C108.58 115.907 108.601 115.927 108.627 115.939C108.653 115.951 108.682 115.953 108.71 115.945H108.731C108.759 115.931 108.781 115.906 108.791 115.876C108.801 115.846 108.799 115.813 108.785 115.785C108.623 115.486 108.519 115.159 108.478 114.822C109.188 114.833 109.659 115.55 109.664 115.558C109.678 115.581 109.698 115.598 109.723 115.607C109.747 115.617 109.774 115.618 109.8 115.611C109.811 115.608 109.821 115.603 109.832 115.597C109.857 115.58 109.874 115.554 109.881 115.524C109.888 115.494 109.884 115.463 109.87 115.436C109.846 115.401 109.331 114.597 108.497 114.579C108.511 114.511 108.54 114.446 108.58 114.39C108.841 114.056 109.505 114.194 109.512 114.196C109.528 114.201 109.545 114.202 109.561 114.2C109.578 114.198 109.594 114.193 109.609 114.184C109.623 114.176 109.636 114.164 109.646 114.151C109.656 114.137 109.663 114.121 109.666 114.105C109.67 114.088 109.67 114.071 109.667 114.055C109.663 114.038 109.656 114.022 109.647 114.009C109.637 113.995 109.624 113.983 109.61 113.974C109.596 113.966 109.579 113.96 109.563 113.958L109.558 113.937Z" fill="#C16256"/>
<path d="M128.801 155.404C128.754 156.144 128.684 156.823 128.589 157.421C128.589 157.421 113.5 162.184 100.092 155.937C99.4342 152.837 100.029 150.582 101.621 144.359C102.618 140.864 102.569 133.941 102.842 132.215C104.37 123.804 109.788 123.462 112.49 122.584C113.874 126.127 117.941 125.17 117.13 122.584C128.783 125.575 128.903 144.07 128.801 155.404Z" fill="#4682EB"/>
<path d="M115.287 111.459C115.264 111.459 115.242 111.454 115.221 111.444C115.185 111.426 115.158 111.394 115.144 111.356C115.131 111.318 115.132 111.276 115.148 111.239C115.167 111.199 115.628 110.247 116.656 110.056C116.691 110.059 116.725 110.073 116.751 110.097C116.777 110.12 116.795 110.152 116.801 110.187C116.807 110.222 116.802 110.257 116.786 110.289C116.77 110.32 116.744 110.346 116.712 110.361C115.836 110.521 115.432 111.362 115.432 111.37C115.419 111.397 115.398 111.42 115.372 111.436C115.346 111.451 115.317 111.459 115.287 111.459Z" fill="#C16256"/>
<path d="M119.378 110.027C119.356 110.027 119.334 110.023 119.314 110.014C119.116 109.919 118.899 109.869 118.68 109.869C118.46 109.869 118.243 109.919 118.045 110.014C118.011 110.023 117.975 110.02 117.943 110.006C117.911 109.992 117.884 109.968 117.866 109.938C117.849 109.907 117.842 109.871 117.847 109.836C117.852 109.802 117.868 109.769 117.893 109.744C118.134 109.627 118.399 109.566 118.667 109.566C118.935 109.566 119.199 109.627 119.44 109.744C119.468 109.762 119.49 109.787 119.503 109.818C119.516 109.848 119.519 109.882 119.512 109.914C119.506 109.946 119.489 109.976 119.465 109.998C119.441 110.021 119.411 110.035 119.378 110.04V110.027Z" fill="#C16256"/>
<path d="M104.192 161.198C104.169 161.201 104.145 161.201 104.122 161.198C100.282 160.301 100.373 157.828 100.378 157.723C100.381 157.675 100.394 157.628 100.418 157.586C100.442 157.544 100.476 157.508 100.516 157.481C100.556 157.454 100.602 157.437 100.65 157.431C100.698 157.425 100.747 157.431 100.792 157.447C103.215 158.292 105.696 158.96 108.215 159.446C108.291 159.465 108.358 159.512 108.4 159.579C108.443 159.645 108.459 159.725 108.445 159.803C108.431 159.881 108.388 159.951 108.325 159.998C108.261 160.045 108.183 160.066 108.104 160.057C105.719 159.596 103.367 158.976 101.064 158.2C101.235 158.842 101.88 160.035 104.264 160.592C104.338 160.609 104.404 160.653 104.448 160.715C104.492 160.778 104.511 160.854 104.503 160.93C104.494 161.006 104.458 161.076 104.402 161.127C104.345 161.178 104.272 161.206 104.195 161.206L104.192 161.198Z" fill="#103663"/>
<path d="M128.059 131.177C127.458 131.514 126.859 131.819 126.27 132.082C125.95 132.23 125.63 132.365 125.31 132.487L117.133 122.583C119.558 120.636 133.659 113.834 135.339 109.99C136.269 108.317 136.939 102.076 136.414 98.2032C136.448 98.2032 137.966 98.1936 139.253 96.4696C140.824 99.3092 142.475 102.696 143.499 108.187C145.45 115.337 136.4 126.498 128.059 131.177Z" fill="#4682EB"/>
<path d="M140 97.8613C138.474 99.6591 136.541 99.4777 136.541 99.4777C136.509 99.0475 136.467 98.6077 136.416 98.2048C136.416 98.2048 137.954 98.2144 139.254 96.4712C139.251 96.4712 139.547 96.9704 140 97.8613Z" fill="#A523A2"/>
<path d="M128.801 155.404C128.755 156.144 128.684 156.823 128.59 157.421C128.59 157.421 113.5 162.184 100.092 155.937C100.092 155.937 99.8313 155.349 99.8281 153.927C99.8281 153.927 106.455 156.736 114.356 157.259C119.004 157.566 124.809 156.409 128.801 155.404Z" fill="#A523A2"/>
<path d="M152.057 79.933C152.306 81.5511 151.249 83.1434 149.557 83.6458C146.764 84.5052 144.361 86.3237 142.77 88.7824C142.647 88.9702 142.517 89.1564 142.381 89.3394C140.639 91.6894 137.929 93.5498 134.636 94.415L128.716 95.9206L100.9 103.001L86.9797 106.545L81.7285 80.0599L95.9461 77.9908L124.345 73.8542L130.383 72.9762C134.028 72.4722 137.481 73.2972 140.063 75.0629C142.465 76.7207 145.372 77.475 148.274 77.193C149.13 77.0986 149.992 77.3144 150.703 77.8014C151.387 78.2668 151.862 78.9824 152.026 79.795C152.04 79.84 152.05 79.886 152.057 79.933Z" fill="#F4D4BE"/>
<path d="M100.906 103.001L95.9473 77.9875L124.347 73.8526L128.722 95.9206L100.906 103.001Z" fill="#4682EB"/>
<path d="M82.0478 105.693L77.2782 82.9299C77.2053 82.5808 77.2378 82.2178 77.3715 81.8873C77.5051 81.5568 77.7339 81.2738 78.0286 81.0743L81.9774 78.4177C82.2206 78.2529 82.5005 78.1507 82.7924 78.1202C83.0843 78.0897 83.3792 78.1319 83.6509 78.243C83.9227 78.3541 84.163 78.5307 84.3506 78.7572C84.5381 78.9836 84.6671 79.2529 84.7262 79.5413L89.9278 105.778C89.9848 106.065 89.9707 106.362 89.8868 106.643C89.8028 106.924 89.6516 107.179 89.4464 107.388C89.2412 107.596 88.9881 107.751 88.7095 107.839C88.4308 107.926 88.1349 107.944 87.8478 107.89L83.467 107.088C83.1194 107.022 82.7989 106.855 82.5462 106.607C82.2935 106.358 82.1201 106.04 82.0478 105.693Z" fill="#D1A68F"/>
<path d="M152.056 79.9331C152.306 81.5511 151.248 83.1434 149.557 83.6458C148.858 82.7448 148.379 81.6926 148.156 80.5729C147.934 79.4533 147.975 78.2971 148.277 77.1962C149.133 77.1019 149.994 77.3176 150.706 77.8046C151.39 78.27 151.865 78.9857 152.029 79.7982C152.041 79.841 152.05 79.886 152.056 79.9331Z" fill="#1D3F70"/>
<path d="M136.259 97.3348C134.615 96.9174 133.599 95.5611 133.129 94.2223C132.987 93.821 132.75 93.203 133.307 93.0265C133.422 92.9916 133.546 92.9988 133.657 93.0466C133.768 93.0945 133.859 93.18 133.913 93.2881C134.371 94.3829 135.292 95.3492 136.447 95.6493C137.513 95.9656 137.315 97.6799 136.259 97.3348Z" fill="#FFC3AF"/>
<path d="M94.0635 107.926C95.8555 106.213 95.2075 103.728 94.4747 102.513C94.2571 102.149 93.9291 101.574 93.4395 101.894C93.3381 101.961 93.264 102.063 93.2306 102.181C93.1972 102.299 93.2066 102.424 93.2571 102.536C93.8107 103.587 93.9707 104.914 93.4683 106C93.0363 107.02 94.0635 107.926 94.0635 107.926Z" fill="#FFC3AF"/>
<path d="M109.335 131.87C88.2548 132.453 81.7124 125.99 91.746 106.096C92.4164 104.794 94.5044 105.537 94.2228 106.958C94.2228 106.987 94.0404 108.081 94.0308 108.114C93.586 111.854 91.9604 119.236 93.9684 122.34C98.5892 124.193 103.954 123.57 108.874 123.491C114.308 123.337 114.749 131.416 109.335 131.87Z" fill="#FFC3AF"/>
<path d="M113.734 129.374C113.788 131.504 110.783 136.053 105.119 136.219C104.272 136.231 103.426 136.158 102.593 136.002C99.8872 135.52 96.5831 134.296 93.6775 132.488C90.0247 130.217 87.0056 127.031 86.612 123.31C85.9928 117.477 88.7064 111.661 90.0616 109.184C90.4968 108.382 90.7912 107.934 90.7912 107.934C93.0312 107.714 93.9767 108.561 93.9767 108.561C93.9767 108.561 93.9767 109.033 93.9959 109.802C94.0247 111.407 94.0983 114.297 94.2663 116.883C94.5143 120.693 96.7143 122.578 103.316 122.25C109.918 121.923 112.492 122.592 112.492 122.592C112.492 122.592 113.679 127.243 113.734 129.374Z" fill="#4682EB"/>
<path d="M93.9949 109.794C91.7789 108.879 90.1261 109.165 90.0605 109.176C90.4957 108.374 90.7901 107.926 90.7901 107.926C93.0301 107.706 93.9757 108.553 93.9757 108.553C93.9757 108.553 93.9805 109.025 93.9949 109.794Z" fill="#A523A2"/>
<path d="M103.359 130.931C102.978 132.6 102.721 134.295 102.589 136.002C99.8834 135.52 96.5794 134.296 93.6738 132.488C100.413 134.906 103.359 130.931 103.359 130.931Z" fill="#A523A2"/>
<path d="M128.058 131.177C127.457 131.514 126.858 131.819 126.27 132.082C125.697 130.328 124.201 127.856 124.154 127.779C126.847 129.254 128.058 131.177 128.058 131.177Z" fill="#A523A2"/>
<path d="M119.419 115.22L116.806 114.043C116.806 114.043 116.726 115.444 117.752 115.772C118.734 116.085 119.419 115.22 119.419 115.22Z" fill="#F9F8F3"/>
<path d="M119.439 115.337C119.418 115.342 119.396 115.342 119.375 115.337L116.763 114.16C116.739 114.146 116.721 114.124 116.712 114.098C116.704 114.071 116.706 114.043 116.717 114.017C116.728 113.992 116.748 113.972 116.774 113.96C116.799 113.949 116.827 113.948 116.854 113.956L119.467 115.133C119.48 115.139 119.492 115.147 119.502 115.158C119.512 115.169 119.52 115.181 119.525 115.195C119.531 115.209 119.533 115.223 119.533 115.238C119.532 115.253 119.529 115.267 119.523 115.281C119.514 115.296 119.502 115.309 119.487 115.318C119.473 115.328 119.457 115.335 119.439 115.337Z" fill="#C16256"/>
</svg>
