<svg width="196" height="247" viewBox="0 0 196 247" fill="none" xmlns="http://www.w3.org/2000/svg">
<g opacity="0.2">
<path d="M15.413 107.412C20.8527 107.395 26.1753 108.991 30.7076 111.999C35.2398 115.008 38.7781 119.292 40.8749 124.312C42.9717 129.331 43.5328 134.86 42.4872 140.198C41.4416 145.536 38.8362 150.444 35.0007 154.302C31.1652 158.159 26.2719 160.792 20.9397 161.868C15.6074 162.944 10.0759 162.415 5.04462 160.347C0.013382 158.279 -4.29148 154.765 -7.32544 150.25C-10.3594 145.735 -11.9862 140.421 -12 134.982C-12.0093 127.694 -9.12908 120.7 -3.99063 115.532C1.14783 110.364 8.12543 107.444 15.413 107.412Z" fill="#EE5426"/>
<path d="M189 6.10352e-05L189 183.971C189 214.525 164.231 239.294 133.676 239.294V239.294C103.122 239.294 78.3529 214.525 78.3529 183.971V95.9119C78.3529 63.8793 52.3854 37.9119 20.3529 37.9119H14.5883C-17.4443 37.9119 -43.4118 63.8793 -43.4118 95.9119V151.37C-43.4118 193 -85.9695 221.074 -124.239 204.689L-308.819 125.664C-347.089 109.279 -389.647 137.353 -389.647 178.983V186.618C-389.647 215.71 -413.231 239.294 -442.324 239.294V239.294C-471.416 239.294 -495 215.71 -495 186.618V105.912" stroke="#4682EB" stroke-width="14"/>
</g>
</svg>
