<svg width="229" height="247" viewBox="0 0 229 247" fill="none" xmlns="http://www.w3.org/2000/svg">
<g opacity="0.2">
<path d="M216 203.842C216.014 209.281 214.413 214.602 211.4 219.132C208.387 223.662 204.097 227.198 199.073 229.292C194.049 231.386 188.516 231.945 183.174 230.897C177.832 229.849 172.921 227.243 169.062 223.406C165.203 219.57 162.569 214.677 161.493 209.345C160.418 204.013 160.949 198.483 163.019 193.452C165.09 188.422 168.607 184.118 173.125 181.085C177.644 178.052 182.962 176.426 188.405 176.412C195.704 176.398 202.71 179.279 207.884 184.422C213.058 189.566 215.977 196.55 216 203.842Z" fill="#F8B42B"/>
<path d="M691 6.10352e-05L691 183.971C691 214.525 666.231 239.294 635.676 239.294V239.294C605.122 239.294 580.353 214.525 580.353 183.971V95.9119C580.353 63.8793 554.385 37.9119 522.353 37.9119H516.588C484.556 37.9119 458.588 63.8793 458.588 95.9119V151.37C458.588 193 416.031 221.074 377.761 204.689L193.181 125.664C154.911 109.279 112.353 137.353 112.353 178.983V186.618C112.353 215.71 88.7689 239.294 59.6764 239.294V239.294C30.584 239.294 6.99994 215.71 6.99994 186.618V105.912" stroke="#4682EB" stroke-width="14"/>
</g>
</svg>
