<svg width="267" height="214" viewBox="0 0 267 214" fill="none" xmlns="http://www.w3.org/2000/svg">
<g clip-path="url(#clip0_1207_7357)">
<path d="M70.7226 5.94567L68.6281 7.23544L68.6229 7.23489C68.5875 7.25671 68.5481 7.27132 68.507 7.2779C68.4658 7.28448 68.4238 7.2829 68.3833 7.27325C68.3016 7.25375 68.2309 7.20256 68.1868 7.13095C68.1428 7.05933 68.129 6.97314 68.1485 6.89135C68.168 6.80956 68.2191 6.73886 68.2908 6.69481L70.4235 5.43837C70.4902 5.40214 70.5683 5.39303 70.6416 5.41294C70.7149 5.43284 70.7777 5.48023 70.8169 5.54524C70.8561 5.61025 70.8688 5.68788 70.8522 5.76198C70.8357 5.83609 70.7912 5.90096 70.7281 5.94312L70.7226 5.94567Z" fill="white"/>
<path d="M63.3825 10.7275C62.0454 11.6661 60.7264 12.6299 59.4257 13.6191C59.3371 13.6861 59.2254 13.7152 59.1154 13.7C59.0053 13.6847 58.9058 13.6264 58.8388 13.5377C58.7717 13.4491 58.7426 13.3375 58.7579 13.2274C58.7732 13.1174 58.8315 13.0179 58.9201 12.9508C60.2456 11.9776 61.5895 11.0317 62.9517 10.1131C63.0336 10.0566 63.1347 10.035 63.2326 10.0529C63.3305 10.0709 63.4173 10.1271 63.4738 10.209C63.5303 10.291 63.552 10.392 63.534 10.4899C63.516 10.5879 63.4599 10.6746 63.3779 10.7312L63.3825 10.7275Z" fill="white"/>
<path d="M54.4943 17.5374C53.2405 18.5831 52.0062 19.6514 50.7914 20.7424C50.743 20.7859 50.6865 20.8195 50.6251 20.8412C50.5637 20.8629 50.4986 20.8723 50.4336 20.8689C50.3686 20.8655 50.3049 20.8493 50.2461 20.8212C50.1873 20.7931 50.1347 20.7538 50.0911 20.7054C50.0476 20.6569 50.014 20.6004 49.9923 20.539C49.9706 20.4776 49.9612 20.4126 49.9646 20.3475C49.968 20.2825 49.9843 20.2188 50.0123 20.16C50.0404 20.1013 50.0797 20.0486 50.1282 20.0051L50.1333 20.0056C51.3708 18.9233 52.6285 17.8645 53.9063 16.829C54.0014 16.7555 54.1213 16.7219 54.2408 16.7353C54.3602 16.7487 54.4697 16.8081 54.546 16.9009C54.6224 16.9937 54.6597 17.1126 54.6499 17.2323C54.6401 17.3521 54.5841 17.4634 54.4938 17.5425L54.4943 17.5374Z" fill="white"/>
<path d="M46.215 25.056C45.0549 26.2029 43.917 27.3703 42.8013 28.5582C42.6956 28.6617 42.5541 28.7204 42.4062 28.722C42.2583 28.7236 42.1155 28.6681 42.0076 28.5669C41.8997 28.4657 41.8351 28.3268 41.8272 28.1791C41.8193 28.0314 41.8688 27.8864 41.9653 27.7743L41.966 27.7681C43.1093 26.5831 44.2737 25.4186 45.4593 24.2743C45.5617 24.1744 45.6996 24.1192 45.8426 24.1209C45.9857 24.1227 46.1222 24.1812 46.2221 24.2835C46.3221 24.3859 46.3773 24.5238 46.3755 24.6668C46.3738 24.8099 46.3153 24.9464 46.2129 25.0464L46.215 25.056Z" fill="white"/>
<path d="M38.6089 33.2594C37.5548 34.5027 36.5254 35.7663 35.5206 37.0503C35.4691 37.1205 35.404 37.1796 35.3292 37.2241C35.2544 37.2686 35.1714 37.2977 35.0852 37.3096C34.9989 37.3215 34.9112 37.3159 34.8271 37.2932C34.743 37.2706 34.6644 37.2313 34.5958 37.1776C34.5272 37.124 34.4701 37.0572 34.4278 36.9811C34.3856 36.905 34.359 36.8211 34.3497 36.7346C34.3405 36.648 34.3486 36.5605 34.3738 36.4771C34.399 36.3938 34.4407 36.3164 34.4963 36.2494L34.5023 36.2427C35.5341 34.9595 36.5916 33.6972 37.6747 32.4556C37.7813 32.3318 37.9328 32.2553 38.0957 32.2431C38.2587 32.2309 38.4198 32.2839 38.5437 32.3905C38.6676 32.4971 38.744 32.6485 38.7563 32.8115C38.7685 32.9744 38.7155 33.1356 38.6089 33.2594Z" fill="white"/>
<path d="M31.7724 42.0958C30.8343 43.4273 29.9241 44.7778 29.0419 46.1473C28.9916 46.2253 28.9264 46.2926 28.8501 46.3454C28.7738 46.3983 28.6878 46.4355 28.5971 46.4551C28.5064 46.4747 28.4127 46.4762 28.3214 46.4596C28.2301 46.443 28.1429 46.4085 28.0649 46.3582C27.9869 46.3079 27.9196 46.2427 27.8668 46.1664C27.814 46.0901 27.7767 46.0041 27.7571 45.9134C27.7376 45.8227 27.736 45.729 27.7527 45.6377C27.7693 45.5464 27.8037 45.4592 27.854 45.3812L27.8546 45.3761C28.7601 43.9972 29.6931 42.6387 30.6534 41.3005C30.7615 41.1588 30.9203 41.0647 31.0964 41.0379C31.2726 41.0112 31.4522 41.0539 31.5974 41.1571C31.7426 41.2603 31.842 41.4159 31.8747 41.5911C31.9073 41.7662 31.8706 41.9472 31.7724 42.0958Z" fill="white"/>
<path d="M25.7825 51.5157C24.9749 52.93 24.1996 54.3614 23.4566 55.8099C23.4113 55.898 23.3491 55.9764 23.2736 56.0405C23.198 56.1046 23.1106 56.1532 23.0162 56.1835C22.9219 56.2138 22.8225 56.2252 22.7238 56.2171C22.625 56.209 22.5288 56.1816 22.4407 56.1363C22.3526 56.091 22.2742 56.0288 22.2101 55.9533C22.146 55.8777 22.0974 55.7903 22.0671 55.6959C22.0368 55.6016 22.0254 55.5022 22.0335 55.4035C22.0416 55.3047 22.069 55.2085 22.1143 55.1204L22.115 55.1142C22.8815 53.6536 23.6793 52.2103 24.5084 50.7843C24.6087 50.6225 24.7679 50.506 24.9525 50.4595C25.1371 50.4129 25.3325 50.44 25.4975 50.5349C25.6625 50.6298 25.7842 50.7851 25.8368 50.9681C25.8894 51.151 25.8688 51.3473 25.7794 51.5153L25.7825 51.5157Z" fill="white"/>
<path d="M20.7443 61.4703C20.0829 62.9567 19.4546 64.4571 18.8592 65.9714C18.8207 66.0693 18.7633 66.1587 18.6903 66.2345C18.6173 66.3102 18.53 66.3708 18.4336 66.4128C18.3371 66.4548 18.2333 66.4774 18.1281 66.4793C18.0229 66.4812 17.9184 66.4624 17.8205 66.4239C17.7226 66.3854 17.6332 66.328 17.5575 66.255C17.4817 66.1819 17.4211 66.0947 17.3791 65.9982C17.3371 65.9018 17.3145 65.798 17.3126 65.6928C17.3107 65.5876 17.3295 65.4831 17.368 65.3851L17.3687 65.3789C17.9853 63.8481 18.6345 62.3315 19.3164 60.8292C19.4013 60.6403 19.5578 60.493 19.7514 60.4196C19.945 60.3462 20.1598 60.3527 20.3486 60.4376C20.5374 60.5226 20.6848 60.6791 20.7582 60.8727C20.8316 61.0663 20.8251 61.2811 20.7401 61.4699L20.7443 61.4703Z" fill="white"/>
<path d="M16.7309 71.873C16.2229 73.4175 15.7489 74.973 15.3089 76.5394C15.2481 76.756 15.1038 76.9396 14.9076 77.0498C14.7115 77.16 14.4796 77.1877 14.263 77.127C14.0464 77.0662 13.8629 76.9219 13.7527 76.7257C13.6425 76.5296 13.6147 76.2977 13.6755 76.0811L13.6763 76.0739C14.1363 74.4894 14.6308 72.9145 15.1599 71.3492C15.2435 71.16 15.3947 71.0087 15.5839 70.925C15.7732 70.8412 15.9868 70.8311 16.1831 70.8966C16.3794 70.9621 16.5443 71.0984 16.6454 71.279C16.7465 71.4595 16.7766 71.6713 16.7299 71.8729L16.7309 71.873Z" fill="white"/>
<path d="M13.8277 82.6256C13.4887 84.2181 13.1769 85.8163 12.8925 87.4202C12.8446 87.6477 12.7101 87.8478 12.5174 87.9779C12.3247 88.1081 12.0889 88.1582 11.8599 88.1177C11.6309 88.0771 11.4266 87.9491 11.2904 87.7606C11.1541 87.5722 11.0964 87.3381 11.1296 87.1079L11.1305 87.0997C11.4327 85.4803 11.7615 83.8651 12.1171 82.2542C12.1664 82.0273 12.3037 81.8293 12.4989 81.7038C12.6942 81.5782 12.9313 81.5353 13.1581 81.5846C13.3849 81.6338 13.5829 81.7712 13.7085 81.9664C13.834 82.1616 13.8769 82.3987 13.8277 82.6256Z" fill="white"/>
<path d="M11.9215 93.6278C11.7015 95.2416 11.5124 96.8588 11.3379 98.4765C11.3115 98.7242 11.1878 98.9513 10.994 99.1078C10.8002 99.2643 10.5521 99.3374 10.3044 99.311C10.0567 99.2846 9.82968 99.1608 9.67319 98.967C9.51671 98.7732 9.44363 98.5251 9.47003 98.2774V98.2774C9.64466 96.6389 9.86176 95.0038 10.0972 93.3727C10.1322 93.1316 10.2613 92.9141 10.4562 92.7678C10.6511 92.6216 10.896 92.5585 11.1374 92.5923C11.3787 92.6262 11.5968 92.7543 11.7439 92.9485C11.891 93.1428 11.9552 93.3874 11.9225 93.6289L11.9215 93.6278Z" fill="white"/>
<path d="M10.8015 104.736C10.6981 106.36 10.6209 107.985 10.5701 109.613C10.5625 109.866 10.4547 110.106 10.2703 110.279C10.0859 110.453 9.8401 110.546 9.58693 110.539C9.33377 110.531 9.09398 110.423 8.92033 110.239C8.74667 110.054 8.65338 109.809 8.66096 109.555C8.71422 107.905 8.79721 106.257 8.90993 104.611C8.92641 104.361 9.04186 104.127 9.23088 103.961C9.41989 103.795 9.667 103.711 9.91783 103.728C10.1687 103.744 10.4027 103.86 10.5684 104.049C10.7341 104.238 10.8179 104.485 10.8015 104.736Z" fill="white"/>
<path d="M10.5236 115.888C10.5509 117.514 10.6089 119.139 10.6978 120.763C10.712 121.02 10.6235 121.272 10.4518 121.464C10.2801 121.655 10.0392 121.771 9.78222 121.785C9.52521 121.799 9.27309 121.711 9.08134 121.539C8.88958 121.368 8.77388 121.127 8.75971 120.87C8.67353 119.221 8.61952 117.571 8.59766 115.919C8.59385 115.664 8.6917 115.417 8.86966 115.234C9.04763 115.051 9.29114 114.946 9.54663 114.942C9.80212 114.938 10.0487 115.036 10.232 115.214C10.4154 115.392 10.5205 115.635 10.5243 115.891L10.5236 115.888Z" fill="white"/>
<path d="M11.214 127.009C11.3902 128.623 11.6018 130.232 11.8487 131.837C11.8731 131.967 11.8711 132.1 11.8429 132.229C11.8147 132.358 11.7609 132.48 11.6847 132.588C11.6084 132.695 11.5113 132.787 11.3991 132.856C11.2869 132.926 11.1618 132.972 11.0314 132.993C10.9009 133.013 10.7677 133.007 10.6397 132.975C10.5116 132.943 10.3913 132.885 10.2859 132.806C10.1805 132.726 10.0921 132.626 10.026 132.512C9.95994 132.398 9.91749 132.271 9.90118 132.14C9.6513 130.504 9.43876 128.865 9.26357 127.221C9.23567 126.963 9.31147 126.704 9.47431 126.502C9.63715 126.299 9.87369 126.17 10.1319 126.142C10.3901 126.114 10.6488 126.19 10.8511 126.353C11.0534 126.516 11.1827 126.752 11.2106 127.01L11.214 127.009Z" fill="white"/>
<path d="M13.0073 137.984C13.3576 139.566 13.7508 141.138 14.1869 142.7C14.2585 142.956 14.2254 143.23 14.095 143.461C13.9646 143.693 13.7476 143.863 13.4917 143.934C13.2357 144.006 12.9619 143.973 12.7304 143.843C12.4988 143.712 12.3286 143.495 12.2571 143.239C11.8164 141.642 11.4192 140.032 11.0655 138.41C11.0158 138.155 11.0678 137.891 11.2102 137.674C11.3526 137.457 11.5742 137.304 11.8278 137.248C12.0813 137.192 12.3467 137.237 12.5673 137.374C12.7879 137.511 12.9463 137.729 13.0087 137.981L13.0073 137.984Z" fill="white"/>
<path d="M16.0887 148.646C16.6405 150.168 17.2386 151.67 17.8831 153.153C17.9431 153.276 17.9777 153.41 17.9845 153.547C17.9914 153.684 17.9705 153.821 17.9231 153.95C17.8757 154.079 17.8027 154.197 17.7086 154.296C17.6145 154.396 17.5012 154.476 17.3755 154.531C17.2497 154.586 17.1142 154.614 16.9771 154.616C16.8399 154.617 16.7039 154.59 16.5773 154.537C16.4507 154.485 16.3361 154.407 16.2403 154.309C16.1446 154.21 16.0697 154.094 16.0202 153.966C15.3614 152.441 14.7517 150.898 14.1909 149.335C14.1095 149.086 14.1284 148.814 14.2437 148.578C14.3589 148.342 14.5615 148.16 14.8085 148.071C15.0555 147.982 15.3276 147.992 15.5671 148.1C15.8065 148.208 15.9946 148.405 16.0916 148.649L16.0887 148.646Z" fill="white"/>
<path d="M20.6143 158.752C21.3847 160.17 22.2052 161.56 23.0758 162.92C23.2172 163.151 23.2624 163.427 23.2019 163.691C23.1414 163.955 22.9799 164.184 22.7522 164.33C22.5244 164.476 22.2486 164.526 21.9839 164.471C21.7192 164.415 21.4868 164.258 21.3366 164.034C20.4413 162.63 19.5998 161.196 18.812 159.731C18.6825 159.492 18.6533 159.211 18.7308 158.95C18.8084 158.69 18.9864 158.47 19.2256 158.341C19.4648 158.211 19.7457 158.182 20.0065 158.26C20.2673 158.337 20.4866 158.515 20.6161 158.754L20.6143 158.752Z" fill="white"/>
<path d="M26.6745 167.991C27.6698 169.26 28.7121 170.49 29.8014 171.68C29.8968 171.782 29.9712 171.901 30.0202 172.031C30.0692 172.161 30.0919 172.299 30.0868 172.438C30.0818 172.577 30.0492 172.714 29.9909 172.84C29.9326 172.966 29.8498 173.079 29.7474 173.173C29.6449 173.267 29.5247 173.34 29.3939 173.387C29.2631 173.434 29.1243 173.454 28.9854 173.447C28.8466 173.44 28.7106 173.405 28.5853 173.345C28.46 173.285 28.3479 173.201 28.2556 173.097C27.1333 171.862 26.06 170.59 25.0358 169.278C24.865 169.061 24.7877 168.784 24.8208 168.509C24.8539 168.235 24.9947 167.985 25.2123 167.814C25.4299 167.643 25.7064 167.566 25.981 167.599C26.2556 167.632 26.5059 167.773 26.6767 167.99L26.6745 167.991Z" fill="white"/>
<path d="M34.219 176.051C34.8176 176.591 35.4257 177.12 36.0434 177.638C36.6598 178.158 37.2992 178.649 37.9265 179.155L37.9565 179.178C38.1735 179.352 38.3126 179.605 38.3432 179.881C38.3738 180.157 38.2934 180.435 38.1197 180.652C37.9459 180.869 37.6931 181.008 37.4168 181.038C37.1405 181.069 36.8633 180.989 36.6463 180.815C35.9963 180.296 35.3345 179.79 34.6967 179.255C34.0589 178.72 33.4258 178.179 32.8058 177.624C32.602 177.436 32.4804 177.175 32.4672 176.898C32.4541 176.621 32.5506 176.349 32.7357 176.143C32.9209 175.936 33.1799 175.81 33.4569 175.793C33.7338 175.776 34.0065 175.868 34.2159 176.05L34.219 176.051Z" fill="white"/>
<path d="M43.0172 182.723C44.3814 183.583 45.7769 184.391 47.2036 185.148C47.3227 185.211 47.4283 185.297 47.5143 185.4C47.6002 185.504 47.6649 185.624 47.7047 185.752C47.7444 185.881 47.7584 186.017 47.7459 186.151C47.7333 186.285 47.6945 186.415 47.6316 186.534C47.5687 186.653 47.4829 186.759 47.3792 186.845C47.2755 186.931 47.1559 186.996 47.0271 187.035C46.8984 187.075 46.7631 187.089 46.629 187.077C46.4949 187.064 46.3645 187.025 46.2454 186.962C44.7724 186.189 43.3283 185.36 41.913 184.476C41.7047 184.319 41.5626 184.091 41.5149 183.835C41.4672 183.579 41.5174 183.314 41.6555 183.093C41.7936 182.872 42.0096 182.712 42.2607 182.642C42.5118 182.573 42.7796 182.601 43.0112 182.72L43.0172 182.723Z" fill="white"/>
<path d="M52.8316 187.8C54.3223 188.42 55.8345 188.986 57.368 189.5C57.6209 189.584 57.8299 189.765 57.9491 190.004C58.0683 190.242 58.0879 190.518 58.0036 190.771C57.9193 191.024 57.738 191.233 57.4995 191.352C57.2611 191.471 56.9851 191.491 56.7322 191.407C55.1543 190.885 53.596 190.308 52.057 189.675C51.8081 189.573 51.61 189.376 51.5062 189.128C51.4025 188.88 51.4016 188.601 51.5038 188.352C51.606 188.103 51.8028 187.905 52.0511 187.801C52.2994 187.697 52.5787 187.696 52.8276 187.798L52.8316 187.8Z" fill="white"/>
<path d="M63.3568 191.226C64.9286 191.608 66.5119 191.942 68.1067 192.226C68.3586 192.277 68.5806 192.424 68.7254 192.636C68.8702 192.848 68.9262 193.109 68.8815 193.362C68.8368 193.615 68.6949 193.84 68.4862 193.99C68.2774 194.14 68.0184 194.202 67.7644 194.163C66.13 193.878 64.5055 193.542 62.8908 193.157C62.7637 193.127 62.6438 193.072 62.538 192.995C62.4322 192.918 62.3426 192.821 62.2742 192.71C62.2059 192.598 62.1601 192.475 62.1396 192.346C62.119 192.216 62.1241 192.085 62.1545 191.957C62.185 191.83 62.2401 191.71 62.3169 191.605C62.3936 191.499 62.4905 191.409 62.6019 191.341C62.7133 191.273 62.837 191.227 62.9661 191.206C63.0952 191.186 63.227 191.191 63.3541 191.221L63.3568 191.226Z" fill="white"/>
<path d="M74.294 193.094C75.9062 193.261 77.523 193.385 79.1443 193.466C79.3936 193.486 79.6252 193.603 79.7901 193.791C79.955 193.979 80.0404 194.223 80.0282 194.473C80.016 194.723 79.9071 194.958 79.7245 195.129C79.542 195.3 79.3002 195.393 79.0502 195.389C77.3971 195.312 75.7461 195.192 74.0973 195.028C73.9673 195.02 73.8403 194.985 73.724 194.926C73.6077 194.867 73.5045 194.785 73.4203 194.686C73.3362 194.586 73.273 194.471 73.2343 194.346C73.1957 194.222 73.1825 194.091 73.1954 193.961C73.2084 193.832 73.2473 193.706 73.3099 193.592C73.3724 193.477 73.4573 193.377 73.5595 193.296C73.6617 193.215 73.7791 193.155 73.9047 193.121C74.0304 193.086 74.1617 193.077 74.2909 193.094L74.294 193.094Z" fill="white"/>
<path d="M85.4031 193.584C87.0269 193.563 88.65 193.506 90.2725 193.414C90.5218 193.399 90.7669 193.484 90.9538 193.649C91.1407 193.815 91.2541 194.048 91.2691 194.297C91.2841 194.547 91.1995 194.792 91.0338 194.979C90.868 195.166 90.6349 195.279 90.3855 195.294C88.7362 195.397 87.0848 195.461 85.4314 195.485C85.1792 195.489 84.9357 195.393 84.7546 195.217C84.5734 195.042 84.4694 194.802 84.4653 194.549C84.4613 194.297 84.5576 194.054 84.7331 193.873C84.9086 193.691 85.1489 193.587 85.401 193.583L85.4031 193.584Z" fill="white"/>
<path d="M96.5215 192.904C98.1423 192.729 99.7564 192.525 101.364 192.292C101.595 192.26 101.829 192.32 102.016 192.459C102.203 192.599 102.327 192.806 102.362 193.037C102.397 193.267 102.34 193.502 102.203 193.691C102.065 193.88 101.86 194.006 101.63 194.044C100 194.301 98.3655 194.527 96.7259 194.721C96.4857 194.749 96.2445 194.68 96.0549 194.53C95.8654 194.379 95.743 194.16 95.7146 193.92C95.6862 193.68 95.754 193.439 95.9032 193.248C96.0525 193.058 96.271 192.935 96.5109 192.905L96.5215 192.904Z" fill="white"/>
<path d="M107.555 191.241C109.155 190.931 110.749 190.594 112.337 190.231C112.546 190.188 112.764 190.229 112.944 190.344C113.124 190.459 113.252 190.64 113.301 190.848C113.35 191.057 113.316 191.276 113.206 191.459C113.097 191.643 112.92 191.776 112.713 191.832C111.111 192.218 109.503 192.577 107.887 192.909C107.666 192.954 107.436 192.911 107.248 192.787C107.059 192.663 106.927 192.469 106.882 192.248C106.836 192.027 106.88 191.797 107.004 191.608C107.128 191.419 107.322 191.288 107.543 191.242L107.555 191.241Z" fill="white"/>
<path d="M118.432 188.697C120.005 188.267 121.57 187.812 123.128 187.331C123.32 187.27 123.528 187.288 123.707 187.381C123.885 187.474 124.02 187.635 124.08 187.827C124.14 188.018 124.122 188.227 124.029 188.405C123.936 188.584 123.776 188.718 123.584 188.778C122.015 189.281 120.439 189.759 118.856 190.213C118.661 190.255 118.457 190.222 118.285 190.119C118.113 190.017 117.987 189.853 117.932 189.661C117.877 189.469 117.897 189.263 117.988 189.085C118.08 188.908 118.235 188.771 118.423 188.704L118.432 188.697Z" fill="white"/>
<path d="M129.097 185.351C130.635 184.807 132.159 184.233 133.682 183.639C133.852 183.577 134.039 183.584 134.204 183.658C134.369 183.732 134.499 183.867 134.565 184.036C134.632 184.204 134.63 184.391 134.561 184.558C134.492 184.725 134.36 184.859 134.194 184.93C132.666 185.545 131.139 186.144 129.589 186.711C129.415 186.754 129.232 186.731 129.074 186.647C128.916 186.563 128.794 186.424 128.732 186.257C128.67 186.089 128.672 185.904 128.738 185.738C128.804 185.571 128.929 185.435 129.088 185.355L129.097 185.351Z" fill="white"/>
<path d="M139.473 181.204C140.959 180.534 142.431 179.834 143.888 179.102C144.031 179.028 144.197 179.014 144.35 179.064C144.503 179.113 144.63 179.221 144.704 179.364C144.777 179.506 144.791 179.673 144.742 179.826C144.693 179.979 144.585 180.106 144.442 180.179C142.983 180.945 141.508 181.68 140.018 182.384C139.941 182.42 139.857 182.441 139.772 182.445C139.687 182.449 139.602 182.437 139.521 182.408C139.441 182.379 139.367 182.335 139.304 182.278C139.241 182.22 139.189 182.151 139.153 182.074C139.117 181.997 139.096 181.913 139.092 181.828C139.087 181.743 139.1 181.657 139.129 181.577C139.158 181.497 139.202 181.423 139.259 181.36C139.317 181.296 139.386 181.245 139.463 181.209L139.473 181.204Z" fill="white"/>
<path d="M149.431 176.129C150.846 175.319 152.245 174.481 153.628 173.614C153.741 173.546 153.876 173.524 154.004 173.554C154.133 173.584 154.244 173.662 154.316 173.773C154.387 173.884 154.412 174.019 154.385 174.148C154.358 174.277 154.282 174.39 154.173 174.464C152.796 175.362 151.399 176.233 149.984 177.077C149.859 177.152 149.709 177.174 149.568 177.138C149.427 177.102 149.306 177.012 149.231 176.887C149.157 176.762 149.135 176.612 149.171 176.471C149.206 176.33 149.297 176.209 149.422 176.134L149.431 176.129Z" fill="white"/>
<path d="M158.87 170.129C160.206 169.191 161.521 168.218 162.822 167.235C162.905 167.17 163.011 167.141 163.117 167.154C163.222 167.167 163.318 167.221 163.383 167.305C163.448 167.389 163.478 167.495 163.464 167.6C163.451 167.705 163.397 167.801 163.313 167.866C162.029 168.893 160.722 169.891 159.392 170.858C159.344 170.893 159.29 170.918 159.233 170.932C159.176 170.946 159.117 170.948 159.059 170.939C159 170.93 158.945 170.91 158.894 170.879C158.844 170.849 158.8 170.809 158.765 170.761C158.73 170.714 158.705 170.66 158.691 170.603C158.677 170.546 158.675 170.486 158.684 170.428C158.693 170.37 158.713 170.314 158.744 170.264C158.774 170.213 158.814 170.17 158.862 170.135L158.87 170.129Z" fill="white"/>
<path d="M167.744 163.289L169.609 161.686C169.638 161.66 169.672 161.641 169.708 161.628C169.745 161.616 169.784 161.611 169.822 161.613C169.861 161.616 169.898 161.626 169.933 161.643C169.968 161.66 169.999 161.683 170.024 161.712C170.05 161.741 170.069 161.775 170.082 161.812C170.094 161.848 170.099 161.887 170.097 161.925C170.095 161.964 170.085 162.002 170.068 162.036C170.05 162.071 170.027 162.102 169.998 162.127L168.163 163.784C168.131 163.813 168.094 163.835 168.054 163.849C168.014 163.863 167.972 163.87 167.929 163.867C167.886 163.865 167.845 163.855 167.806 163.836C167.768 163.818 167.733 163.792 167.705 163.761C167.676 163.729 167.654 163.692 167.64 163.652C167.626 163.612 167.62 163.569 167.622 163.527C167.624 163.484 167.635 163.442 167.653 163.404C167.671 163.365 167.697 163.331 167.729 163.302L167.744 163.289Z" fill="white"/>
<path d="M164.74 132.671L177.468 156.106L187.867 137.41L164.74 132.671Z" fill="#CFCFCF"/>
<path d="M262.812 61.9822L229.679 151.864C229.365 152.716 228.883 153.495 228.261 154.156C227.639 154.817 226.89 155.346 226.059 155.712C225.228 156.077 224.332 156.271 223.425 156.282C222.517 156.293 221.616 156.121 220.777 155.776L131.786 119.108C131.287 118.904 130.861 118.555 130.562 118.107C130.263 117.658 130.105 117.131 130.108 116.592C130.112 116.053 130.276 115.527 130.58 115.082C130.885 114.638 131.315 114.294 131.817 114.096L262.812 61.9822Z" fill="white"/>
<path d="M164.751 132.67L262.813 61.9823L179.093 138.632L182.347 145.28L164.751 132.67Z" fill="#CFCFCF"/>
<path d="M187.625 142.102L177.47 156.106L179.094 138.632L187.625 142.102Z" fill="#9E9E9E"/>
</g>
<defs>
<clipPath id="clip0_1207_7357">
<rect width="248.07" height="188.191" fill="white" transform="translate(19.9434) rotate(6.08329)"/>
</clipPath>
</defs>
</svg>
