<svg width="239" height="233" viewBox="0 0 239 233" fill="none" xmlns="http://www.w3.org/2000/svg">
<g clip-path="url(#clip0_333_66)">
<mask id="mask0_333_66" style="mask-type:alpha" maskUnits="userSpaceOnUse" x="7" y="11" width="224" height="222">
<path d="M200.876 75.8441L193.703 77.9738C191.595 78.5997 189.378 77.4068 188.738 75.3032L178.69 42.2663C175.124 30.3858 162.487 23.6556 150.607 27.3214L112.011 39.0877C109.895 39.7327 107.658 38.5381 107.016 36.4211L104.307 27.4774C100.64 15.3975 87.903 8.66788 75.8231 12.3348C63.742 15.8016 57.0124 28.539 60.6793 40.6189L63.3922 49.5754C64.0319 51.6873 62.8404 53.9184 60.7294 54.5614L23.4187 65.9254C11.5382 69.4912 4.80799 82.1286 8.47375 94.0085L18.5188 127.037C19.1596 129.144 21.3832 130.336 23.4931 129.705L36.3503 125.855C48.4302 122.188 61.1682 129.018 64.8345 140.997C68.5014 153.077 61.6717 165.815 49.6918 169.482L36.839 173.407C34.7287 174.052 33.5389 176.284 34.18 178.395L45.7518 216.504C49.3176 228.385 61.955 235.115 73.8349 231.449L111.157 220.082C113.264 219.44 114.455 217.217 113.824 215.107L111.706 208.039C108.039 195.959 114.869 183.221 126.849 179.555C138.929 175.888 151.667 182.718 155.333 194.698L157.44 201.73C158.076 203.853 160.317 205.054 162.438 204.408L201.022 192.645C212.903 189.079 219.633 176.442 215.967 164.562L204.395 126.451C203.754 124.34 204.942 122.109 207.052 121.464L214.217 119.271C226.297 115.604 233.026 102.867 229.359 90.7867C225.694 78.9068 212.956 72.1772 200.876 75.8441Z" fill="#4682EB"/>
</mask>
<g mask="url(#mask0_333_66)">
<path opacity="0.2" d="M27.5843 204.301L54.6777 176.23C79.9308 150.065 123.975 160.39 134.969 195.052L181.825 342.778C186.269 356.79 200.972 364.806 215.158 360.95V360.95C230.044 356.903 238.665 341.379 234.23 326.604L163.165 89.8289C159.055 76.1336 166.651 61.6656 180.259 57.2732V57.2732C194.049 52.8217 208.84 60.3763 213.317 74.1584L245.283 172.552C256.495 207.067 300.477 217.135 325.587 190.935L346.74 168.865C371.9 142.615 415.975 152.781 427.094 187.399L469.305 318.812C473.92 333.179 489.279 341.115 503.667 336.565V336.565C517.949 332.049 525.961 316.905 521.659 302.557L455.471 81.8212C451.37 68.1464 459.085 53.7277 472.737 49.5519V49.5519C486.341 45.3906 500.76 52.9578 505.063 66.5176L536.147 164.461C547.251 199.449 591.92 209.531 616.976 182.706L644.474 153.267" stroke="#4682EB" stroke-width="14"/>
</g>
<path d="M201.464 73.1629L194.28 75.253C192.168 75.8671 189.957 74.6621 189.329 72.5549L179.464 39.4629C175.964 27.5629 163.364 20.7629 151.464 24.3629L112.804 35.9156C110.684 36.5489 108.453 35.3419 107.824 33.2214L105.164 24.2629C101.564 12.1629 88.8641 5.3629 76.7641 8.9629C64.6641 12.3629 57.8641 25.0629 61.4641 37.1629L64.1274 46.1342C64.7555 48.2497 63.5516 50.4741 61.4371 51.1054L24.0641 62.2629C12.1641 65.7629 5.36409 78.3629 8.96409 90.2629L18.8263 123.346C19.4555 125.457 21.6725 126.662 23.7858 126.042L36.6641 122.263C48.7641 118.663 61.4641 125.563 65.0641 137.563C68.6641 149.663 61.7641 162.363 49.7641 165.963L36.8898 169.817C34.7759 170.45 33.5738 172.676 34.2032 174.79L45.5641 212.963C49.0641 224.863 61.6641 231.663 73.5641 228.063L110.949 216.902C113.059 216.272 114.263 214.055 113.642 211.942L111.564 204.863C107.964 192.763 114.864 180.063 126.864 176.463C138.964 172.863 151.664 179.763 155.264 191.763L157.332 198.806C157.956 200.933 160.191 202.147 162.315 201.512L200.964 189.963C212.864 186.463 219.664 173.863 216.064 161.963L204.703 123.788C204.073 121.674 205.274 119.45 207.387 118.816L214.564 116.663C226.664 113.063 233.464 100.363 229.864 88.2629C226.264 76.3629 213.564 69.5629 201.464 73.1629Z" stroke="#4682EB" stroke-width="5" stroke-miterlimit="10"/>
</g>
<defs>
<clipPath id="clip0_333_66">
<rect width="239" height="233" fill="white"/>
</clipPath>
</defs>
</svg>
