<svg width="215" height="229" viewBox="0 0 215 229" fill="none" xmlns="http://www.w3.org/2000/svg">
<mask id="mask0_333_58" style="mask-type:alpha" maskUnits="userSpaceOnUse" x="4" y="19" width="199" height="204">
<path d="M23.5139 85.9117L30.6428 55.2289C33.449 43.1507 45.5727 35.5984 57.651 38.4047L97.0028 47.5477C99.1546 48.0476 101.304 46.7085 101.804 44.5567L103.479 37.3487C106.331 25.0756 118.574 17.4486 130.847 20.3001C143.12 23.1516 150.747 35.3954 147.896 47.6685L146.221 54.8765C145.721 57.0283 147.06 59.178 149.212 59.678L185.252 68.0515C197.33 70.8577 204.883 82.9814 202.076 95.0597L195.4 123.794C194.9 125.946 192.751 127.285 190.599 126.785L182.417 124.884C170.144 122.033 157.49 128.332 154.638 140.606C151.787 152.879 161.251 164.728 173.524 167.579L180.732 169.254C182.883 169.754 184.223 171.904 183.723 174.056L176.526 205.031C173.72 217.109 161.596 224.661 149.518 221.855L113.478 213.481C111.326 212.981 109.987 210.832 110.487 208.68L112.614 199.524C115.465 187.251 107.839 175.007 95.5654 172.155C83.2923 169.304 71.0486 176.931 68.1971 189.204L66.0697 198.36C65.5698 200.512 63.4201 201.851 61.2683 201.351L21.9164 192.208C9.83816 189.402 2.28595 177.278 5.09221 165.2L13.1942 130.329L23.5139 85.9117Z" fill="#EE5426"/>
</mask>
<g mask="url(#mask0_333_58)">
<path opacity="0.2" d="M31.8418 -7.61809L69.3168 -18.4662C104.246 -28.5775 137.297 2.31175 129.567 37.8443L96.6225 189.281C93.4975 203.646 102.255 217.919 116.477 221.641V221.641C131.401 225.546 146.608 216.377 150.121 201.356L206.423 -39.3561C209.68 -53.2792 223.473 -62.0417 237.46 -59.0733V-59.0733C251.636 -56.0651 260.699 -42.1475 257.717 -27.9665L236.431 73.2762C228.964 108.79 262.088 139.425 296.911 129.213L326.246 120.61C361.137 110.378 394.293 141.145 386.694 176.702L357.846 311.68C354.693 326.437 364.059 340.967 378.801 344.188V344.188C393.435 347.385 407.926 338.243 411.341 323.658L463.884 99.2831C467.139 85.3829 481.01 76.7223 494.928 79.9005V79.9005C508.797 83.0676 517.531 96.8106 514.509 110.712L492.683 211.125C484.886 246.995 518.599 277.986 553.687 267.203L592.194 255.37" stroke="#4682EB" stroke-width="14"/>
</g>
<path d="M23.5168 87.911L30.6467 57.2285C33.4534 45.1503 45.5773 37.5985 57.6555 40.4052L97.007 49.5495C99.1588 50.0496 101.309 48.7105 101.809 46.5587L103.484 39.3508C106.336 27.0778 118.58 19.4512 130.852 22.3032C143.125 25.1551 150.752 37.3991 147.9 49.6721L146.225 56.8801C145.725 59.0319 147.064 61.1816 149.216 61.6816L185.256 70.0564C197.334 72.8631 204.886 84.987 202.079 97.0652L195.402 125.8C194.902 127.951 192.752 129.29 190.6 128.79L182.418 126.889C170.145 124.037 157.491 130.336 154.639 142.609C151.787 154.882 161.251 166.732 173.524 169.584L180.732 171.259C182.883 171.759 184.222 173.909 183.722 176.06L176.525 207.035C173.718 219.113 161.594 226.665 149.516 223.858L113.476 215.484C111.324 214.984 109.985 212.834 110.485 210.682L112.613 201.526C115.465 189.253 107.838 177.009 95.5653 174.157C83.2923 171.305 71.0483 178.932 68.1963 191.205L66.0687 200.361C65.5687 202.513 63.4189 203.852 61.2671 203.352L21.9156 194.207C9.83745 191.401 2.28566 179.277 5.09234 167.198L13.1955 132.328L23.5168 87.911Z" stroke="#EE5426" stroke-width="5" stroke-miterlimit="10"/>
</svg>
