<svg width="230" height="239" viewBox="0 0 230 239" fill="none" xmlns="http://www.w3.org/2000/svg">
<mask id="mask0_333_59" style="mask-type:alpha" maskUnits="userSpaceOnUse" x="3" y="8" width="209" height="219">
<path d="M130.218 200.542L128.995 192.232C128.673 190.046 130.185 188.014 132.37 187.692L167.492 182.525C179.76 180.72 188.282 169.257 186.477 156.989L180.596 117.019C180.275 114.834 181.786 112.801 183.971 112.48L192.282 111.257C204.748 109.423 213.354 97.8467 211.52 85.3809C209.686 72.9151 198.11 64.3085 185.644 66.1426L177.334 67.3653C175.148 67.6869 173.116 66.1758 172.794 63.9902L167.408 27.3843C165.603 15.1164 154.141 6.59416 141.873 8.39917L106.751 13.5667C104.565 13.8883 103.054 15.9208 103.376 18.1064L104.889 28.3956C106.724 40.8614 98.117 52.4375 85.6512 54.2716C73.1854 56.1058 61.6093 47.4992 59.7752 35.0334L58.2613 24.7442C57.9397 22.5585 55.9072 21.0474 53.7216 21.369L22.2603 25.998C9.99242 27.803 1.47021 39.2656 3.27521 51.5335L8.66112 88.1394C8.98269 90.325 11.0152 91.8361 13.2008 91.5146L20.5219 90.4374C32.9877 88.6033 44.5639 97.2099 46.398 109.676C48.2321 122.141 39.6255 133.718 27.1597 135.552L19.8385 136.629C17.6529 136.95 16.1418 138.983 16.4634 141.169L22.3442 181.138C24.1492 193.406 35.6119 201.928 47.8798 200.123L79.3411 195.494C81.5267 195.173 83.5592 196.684 83.8807 198.87L85.1035 207.18C86.9376 219.646 98.5137 228.252 110.979 226.418C123.445 224.584 132.052 213.008 130.218 200.542Z" fill="#F8B42B"/>
</mask>
<g mask="url(#mask0_333_59)">
<path opacity="0.2" d="M-169.192 191.845L-138.28 168.044C-109.467 145.86 -67.4101 162.524 -61.6107 198.422L-36.8942 351.417C-34.5498 365.93 -21.179 376.012 -6.58147 374.275V374.275C8.73664 372.452 19.5376 358.357 17.3147 343.092L-18.3088 98.463C-20.3693 84.3133 -10.7359 71.1139 3.36814 68.7616V68.7616C17.6618 66.3776 31.1868 76.0169 33.5976 90.3061L50.8087 192.321C56.8459 228.105 98.8787 244.505 127.556 222.266L151.713 203.531C180.445 181.249 222.556 197.76 228.486 233.633L250.996 369.811C253.457 384.699 267.489 394.798 282.388 392.405V392.405C297.177 390.029 307.321 376.221 305.166 361.398L272.018 133.349C269.964 119.221 279.708 106.088 293.824 103.957V103.957C307.891 101.832 321.046 111.43 323.317 125.473L339.722 226.913C345.582 263.15 388.293 279.665 417.008 256.799L448.52 231.704" stroke="#4682EB" stroke-width="14"/>
</g>
<path d="M130.21 200.539L128.987 192.228C128.666 190.043 130.177 188.01 132.363 187.689L167.485 182.523C179.753 180.719 188.276 169.256 186.471 156.988L180.592 117.018C180.271 114.833 181.782 112.8 183.968 112.479L192.278 111.257C204.744 109.423 213.351 97.8473 211.518 85.3814C209.684 72.9155 198.108 64.3084 185.642 66.1419L177.332 67.3643C175.146 67.6857 173.114 66.1745 172.792 63.9889L167.408 27.3827C165.604 15.1147 154.142 6.59197 141.874 8.3964L106.751 13.5623C104.566 13.8838 103.055 15.9162 103.376 18.1018L104.89 28.3911C106.723 40.857 98.1159 52.4327 85.65 54.2662C73.1841 56.0997 61.6084 47.4926 59.7749 35.0267L58.2615 24.7374C57.94 22.5518 55.9076 21.0406 53.722 21.362L22.2605 25.9895C9.99249 27.7939 1.46973 39.2562 3.27415 51.5242L8.65832 88.1303C8.97979 90.316 11.0122 91.8272 13.1978 91.5057L20.519 90.4288C32.9849 88.5953 44.5606 97.2025 46.3941 109.668C48.2277 122.134 39.6205 133.71 27.1547 135.543L19.8334 136.62C17.6478 136.942 16.1366 138.974 16.4581 141.16L22.337 181.13C24.1414 193.398 35.6037 201.921 47.8717 200.116L79.3332 195.489C81.5188 195.167 83.5512 196.678 83.8727 198.864L85.095 207.175C86.9285 219.64 98.5042 228.248 110.97 226.414C123.436 224.581 132.043 213.005 130.21 200.539Z" stroke="#F8B42B" stroke-width="5" stroke-miterlimit="10"/>
</svg>
