<svg width="237" height="229" viewBox="0 0 237 229" fill="none" xmlns="http://www.w3.org/2000/svg">
<mask id="mask0_333_60" style="mask-type:alpha" maskUnits="userSpaceOnUse" x="20" y="10" width="213" height="204">
<path d="M39.4748 101.374L48.7262 103.039C50.9005 103.43 52.3459 105.51 51.9547 107.684L47.0849 134.75C44.889 146.954 53.0408 158.683 65.2448 160.878L99.1012 166.97C101.275 167.361 102.721 169.441 102.33 171.615L99.6025 186.772C97.3712 199.173 105.604 211.018 118.005 213.249C130.406 215.48 142.251 207.248 144.482 194.847L147.209 179.69C147.6 177.516 149.68 176.071 151.854 176.462L187.285 182.837C199.489 185.033 211.218 176.881 213.414 164.677L217.93 139.58C218.321 137.406 216.875 135.326 214.701 134.935L206.434 133.447C194.033 131.216 185.8 119.371 188.032 106.97C190.263 94.5692 202.108 86.3367 214.509 88.5679L222.776 90.0555C224.95 90.4467 227.03 89.0012 227.421 86.827L232.521 58.4822C234.717 46.2782 226.565 34.5492 214.361 32.3534L178.93 25.9783C176.756 25.5871 174.676 27.0326 174.285 29.2068L172.798 37.474C170.566 49.8749 158.721 58.1074 146.321 55.8761C133.92 53.6449 125.687 41.7998 127.918 29.3989L129.406 21.1317C129.797 18.9575 128.352 16.8778 126.177 16.4866L92.3211 10.3949C80.1171 8.19902 68.3881 16.3508 66.1923 28.5549L61.4464 54.9313C61.0552 57.1055 58.9755 58.5509 56.8013 58.1597L49.5183 56.8493C37.1174 54.618 23.304 62.4964 21.0727 74.8973C18.8414 87.2981 27.0739 99.1432 39.4748 101.374Z" fill="#7EB421"/>
</mask>
<g mask="url(#mask0_333_60)">
<path opacity="0.2" d="M-109.041 -66.2626L-72.1584 -78.9799C-37.781 -90.8335 -3.22045 -61.6438 -9.15527 -25.7678L-34.4491 127.133C-36.8483 141.637 -27.3845 155.452 -12.9937 158.454V158.454C2.10738 161.604 16.8346 151.684 19.5888 136.505L63.7254 -106.732C66.2783 -120.801 79.6136 -130.246 93.7325 -127.984V-127.984C108.041 -125.692 117.792 -112.247 115.527 -97.9342L99.3541 4.25009C93.681 40.0938 128.303 69.0261 162.569 57.0771L191.434 47.0113C225.767 35.0391 260.427 64.1015 254.624 99.9955L232.595 236.252C230.186 251.149 240.271 265.19 255.157 267.666V267.666C269.933 270.124 283.945 260.266 286.624 245.528L327.826 18.796C330.379 4.74979 343.798 -4.59684 357.858 -2.12193V-2.12193C371.869 0.344315 381.282 13.6311 378.962 27.667L362.209 129.05C356.224 165.266 391.452 194.524 425.953 181.992L463.817 168.239" stroke="#4682EB" stroke-width="14"/>
</g>
<path d="M39.8222 101.375L49.0736 103.04C51.2478 103.431 52.6931 105.511 52.3018 107.685L47.4309 134.75C45.2346 146.954 53.3859 158.683 65.5898 160.88L99.4459 166.973C101.62 167.364 103.065 169.444 102.674 171.618L99.9464 186.774C97.7147 199.175 105.947 211.021 118.347 213.252C130.748 215.484 142.594 207.252 144.825 194.851L147.553 179.695C147.944 177.521 150.024 176.075 152.198 176.467L187.629 182.843C199.833 185.039 211.562 176.888 213.759 164.684L218.275 139.587C218.667 137.413 217.221 135.333 215.047 134.942L206.78 133.454C194.379 131.223 186.147 119.377 188.379 106.976C190.611 94.5756 202.456 86.3435 214.857 88.5753L223.124 90.0632C225.298 90.4545 227.378 89.0091 227.769 86.8349L232.871 58.4903C235.067 46.2864 226.916 34.5571 214.712 32.3607L179.281 25.9842C177.107 25.5929 175.027 27.0383 174.636 29.2125L173.148 37.4797C170.916 49.8804 159.071 58.1125 146.67 55.8807C134.269 53.6489 126.037 41.8035 128.269 29.4028L129.757 21.1356C130.148 18.9614 128.703 16.8816 126.528 16.4903L92.6722 10.3972C80.4683 8.20089 68.739 16.3522 66.5427 28.5562L61.7957 54.9324C61.4045 57.1066 59.3247 58.5519 57.1505 58.1607L49.8675 56.8499C37.4667 54.6182 23.653 62.4959 21.4212 74.8967C19.1894 87.2975 27.4214 99.1429 39.8222 101.375Z" stroke="#7EB421" stroke-width="5" stroke-miterlimit="10"/>
</svg>
