<svg width="75" height="61" viewBox="0 0 75 61" fill="none" xmlns="http://www.w3.org/2000/svg">
<path d="M42.3845 42.2453C42.3845 31.0231 45.0862 21.8791 50.4895 14.8133C55.8927 7.6089 63.7898 2.89836 74.1807 0.681635V13.982C69.4702 15.0904 65.6602 17.1685 62.7507 20.2165C59.8413 23.126 58.0402 26.7282 57.3475 31.0231H70.0244V60.1176H42.3845V42.2453ZM0.405274 42.2453C0.405274 31.0231 3.10691 21.8791 8.51018 14.8133C13.9135 7.6089 21.7413 2.89836 31.9936 0.681635V13.982C27.4216 15.0904 23.6116 17.1685 20.5636 20.2165C17.6542 23.2645 15.8531 26.8667 15.1604 31.0231H27.8373V60.1176H0.405274V42.2453Z" fill="#F8B42B"/>
</svg>
