<svg width="212" height="34" viewBox="0 0 212 34" fill="none" xmlns="http://www.w3.org/2000/svg">
<g clip-path="url(#clip0_121_2235)">
<path d="M137.615 14.8942H132.502V10.5317H143.526V7.26953H128.273V26.8014H137.073C142.01 26.8014 144.84 24.5653 144.84 20.6654C144.84 16.9494 142.289 14.8942 137.615 14.8942ZM136.883 23.5629H132.502V18.1476H136.898C139.567 18.1476 140.818 19.0373 140.818 20.8552C140.818 22.6732 139.484 23.5629 136.883 23.5629Z" fill="#21A038"/>
<path d="M196.522 26.7762H192.248V7.24136H196.522V15.4325H198.85L205.128 7.22949H209.974L202.521 16.5328L211.172 26.7762H205.502L199.143 19.0922H196.522V26.7762Z" fill="#21A038"/>
<path d="M161.302 22.9565H152.331L150.807 26.7229H146.293L154.713 7.33936H159.226L167.498 26.7229H162.827L161.302 22.9565ZM159.891 19.4393L156.845 11.9065L153.769 19.4393H159.891Z" fill="#21A038"/>
<path d="M174.808 7.33936V15.4327H183.586V7.33936H187.961V26.7229H183.586V19.0804H174.808V26.7229H170.434V7.33936H174.808Z" fill="#21A038"/>
<path d="M95.7153 10.4883L100.138 7.23096H85.334V26.8048H100.138V23.5474H89.5602V18.5336H98.5803V15.2763H89.5602V10.4883H95.7153Z" fill="#21A038"/>
<path d="M74.1607 14.8603H69.0221V10.4885H77.2279L81.6503 7.21924H64.7988V26.793H73.6168C78.5653 26.793 81.4006 24.5521 81.4006 20.6439C81.4006 16.9199 78.8298 14.8603 74.1607 14.8603ZM73.4266 23.5476H69.0221V18.1206H73.4266C76.1015 18.1206 77.3557 19.0122 77.3557 20.8341C77.3557 22.656 76.0331 23.5476 73.4266 23.5476Z" fill="#21A038"/>
<path d="M112.126 7.23096H104.068V26.8048H108.306V21.2619H112.14C117.285 21.2619 120.48 18.5574 120.48 14.236C120.48 9.9147 117.27 7.23096 112.126 7.23096ZM112.036 18.0016H108.306V10.4883H112.051C114.759 10.4883 116.248 11.8228 116.248 14.245C116.248 16.6672 114.744 18.0016 112.036 18.0016Z" fill="#21A038"/>
<path d="M57.5466 22.5667C56.4275 23.174 55.1731 23.4888 53.8999 23.482C50.0927 23.482 47.3287 20.7626 47.3287 17.0179C47.3287 13.2731 50.0927 10.5537 53.8999 10.5537C55.2749 10.5291 56.6217 10.9458 57.7427 11.7425L60.7712 9.50756L60.5721 9.33221C58.8037 7.77784 56.438 6.95459 53.7364 6.95459C50.806 6.95459 48.146 7.94428 46.2469 9.73938C44.3052 11.6073 43.2284 14.1991 43.2749 16.8931C43.2341 19.6123 44.2992 22.2316 46.2261 24.1507C48.1371 26.0172 50.7911 27.0455 53.7007 27.0455C56.7471 27.0455 59.4041 25.9845 61.2081 24.0527L58.4738 22.0376L57.5466 22.5667Z" fill="#21A038"/>
<path d="M30.4541 6.60718C31.2574 7.64444 31.9437 8.77733 32.4916 9.98672L17.0007 21.4022L10.5293 17.3454V12.4651L17.0007 16.5219L30.4541 6.60718Z" fill="#21A038"/>
<path d="M3.92647 17.0002C3.92647 16.7809 3.93209 16.5637 3.94334 16.3466L0.0213764 16.1509C0.0078757 16.4321 0 16.7156 0 17.0002C0 21.6949 1.90248 25.9452 4.97952 29.021L7.76067 26.24C5.39242 23.8729 3.92647 20.6048 3.92647 17.0002Z" fill="url(#paint0_linear_121_2235)"/>
<path d="M16.9998 3.92742C17.2192 3.92742 17.4363 3.9353 17.6535 3.94542L17.8492 0.0213755C17.5679 0.00787536 17.2844 0 16.9998 0C12.3049 0 8.05443 1.90239 4.97852 4.9793L7.75967 7.76034C10.1268 5.39331 13.3962 3.92742 16.9998 3.92742Z" fill="url(#paint1_linear_121_2235)"/>
<path d="M16.9998 30.0736C16.7804 30.0736 16.5633 30.0679 16.3462 30.0567L16.1504 33.9785C16.4317 33.992 16.7152 33.9999 16.9998 33.9999C21.6947 33.9999 25.9452 32.0975 29.0211 29.0206L26.2399 26.2395C23.8728 28.6065 20.6045 30.0736 16.9998 30.0736Z" fill="url(#paint2_linear_121_2235)"/>
<path d="M24.3703 6.20895L27.6768 3.77217C24.7584 1.41414 21.0446 0 17 0V3.92742C19.7328 3.92742 22.2709 4.77005 24.3703 6.20895Z" fill="url(#paint3_linear_121_2235)"/>
<path d="M33.9999 17C33.9999 15.9605 33.9066 14.9424 33.7277 13.9546L30.0679 16.6513C30.0712 16.7671 30.0724 16.883 30.0724 17C30.0724 20.8386 28.4095 24.2957 25.7656 26.6898L28.4039 29.6058C31.841 26.4963 33.9999 22.0007 33.9999 17Z" fill="#21A038"/>
<path d="M17.0008 30.0736C13.1621 30.0736 9.70482 28.4109 7.31069 25.7671L4.39453 28.4052C7.50533 31.841 12.0011 33.9999 17.0008 33.9999V30.0736Z" fill="url(#paint4_linear_121_2235)"/>
<path d="M8.23321 7.31032L5.59494 4.39429C2.159 7.50495 0 12.0005 0 17.0001H3.92759C3.92647 13.1615 5.58931 9.70435 8.23321 7.31032Z" fill="url(#paint5_linear_121_2235)"/>
</g>
<defs>
<linearGradient id="paint0_linear_121_2235" x1="5.7733" y1="28.53" x2="1.48237" y2="16.1262" gradientUnits="userSpaceOnUse">
<stop offset="0.1444" stop-color="#F2E913"/>
<stop offset="0.3037" stop-color="#E7E518"/>
<stop offset="0.5823" stop-color="#CADB26"/>
<stop offset="0.891" stop-color="#A3CD39"/>
</linearGradient>
<linearGradient id="paint1_linear_121_2235" x1="6.10042" y1="5.67484" x2="17.1527" y2="1.46284" gradientUnits="userSpaceOnUse">
<stop offset="0.0592" stop-color="#0FA8E0"/>
<stop offset="0.5385" stop-color="#0099F9"/>
<stop offset="0.9234" stop-color="#0291EB"/>
</linearGradient>
<linearGradient id="paint2_linear_121_2235" x1="15.8917" y1="31.631" x2="28.39" y2="28.8061" gradientUnits="userSpaceOnUse">
<stop offset="0.1226" stop-color="#A3CD39"/>
<stop offset="0.2846" stop-color="#86C339"/>
<stop offset="0.8693" stop-color="#21A038"/>
</linearGradient>
<linearGradient id="paint3_linear_121_2235" x1="16.1784" y1="1.31658" x2="26.8642" y2="4.61376" gradientUnits="userSpaceOnUse">
<stop offset="0.0566" stop-color="#0291EB"/>
<stop offset="0.79" stop-color="#0C8ACB"/>
</linearGradient>
<linearGradient id="paint4_linear_121_2235" x1="5.37938" y1="27.9279" x2="17.0109" y2="32.2741" gradientUnits="userSpaceOnUse">
<stop offset="0.1324" stop-color="#F2E913"/>
<stop offset="0.2977" stop-color="#EBE716"/>
<stop offset="0.5306" stop-color="#D9E01F"/>
<stop offset="0.8023" stop-color="#BBD62D"/>
<stop offset="0.9829" stop-color="#A3CD39"/>
</linearGradient>
<linearGradient id="paint5_linear_121_2235" x1="1.46193" y1="17.4764" x2="6.13059" y2="5.33094" gradientUnits="userSpaceOnUse">
<stop offset="0.0698" stop-color="#A3CD39"/>
<stop offset="0.2599" stop-color="#81C55F"/>
<stop offset="0.9216" stop-color="#0FA8E0"/>
</linearGradient>
<clipPath id="clip0_121_2235">
<rect width="212" height="34" fill="white"/>
</clipPath>
</defs>
</svg>
