<svg width="57" height="28" viewBox="0 0 57 28" fill="none" xmlns="http://www.w3.org/2000/svg">
<g clip-path="url(#clip0_645_3912)">
<path d="M49.0277 7.99265V14.8382H46.5424V10.0362H44.1494V14.8382H41.6641V7.99219H49.0277V7.99265Z" fill="black"/>
<path fill-rule="evenodd" clip-rule="evenodd" d="M36.5596 15.0829C38.7844 15.0829 40.4365 13.7413 40.4365 11.7073C40.4365 9.73866 39.2176 8.46046 37.1804 8.46046C36.2402 8.46046 35.4645 8.78596 34.8802 9.34759C35.0197 8.18676 36.0177 7.33929 37.1166 7.33929C37.3702 7.33929 39.2795 7.33532 39.2795 7.33532L40.3592 5.30322C40.3592 5.30322 37.9621 5.35689 36.8478 5.35689C34.3018 5.40052 32.582 7.67669 32.582 10.4412C32.582 13.6619 34.2593 15.0829 36.5596 15.0829ZM36.5731 10.2604C37.3992 10.2604 37.9719 10.7943 37.9719 11.7071C37.9719 12.5286 37.463 13.2055 36.5731 13.2074C35.7219 13.2074 35.1492 12.5802 35.1492 11.7211C35.1492 10.808 35.7219 10.2604 36.5731 10.2604Z" fill="black"/>
<path d="M30.5609 12.5463C30.5609 12.5463 29.9739 12.879 29.0973 12.942C28.0896 12.9714 27.1916 12.3454 27.1916 11.2331C27.1916 10.1481 27.984 9.52623 29.072 9.52623C29.7391 9.52623 30.6216 9.981 30.6216 9.981C30.6216 9.981 31.2674 8.8155 31.6019 8.23263C30.9893 7.776 30.1735 7.52563 29.2245 7.52563C26.8296 7.52563 24.9746 9.06143 24.9746 11.2193C24.9746 13.4047 26.7181 14.9048 29.2245 14.8595C29.9251 14.8339 30.8916 14.5919 31.4806 14.2197L30.5609 12.5463Z" fill="black"/>
<path d="M0 6.09473L3.44755 12.1556V15.8525L0.00403305 21.9014L0 6.09473Z" fill="#5B57A2"/>
<path d="M13.2363 9.95005L16.4668 8.00265L23.0782 7.99658L13.2363 13.9265V9.95005Z" fill="#D90751"/>
<path d="M13.2186 6.05897L13.2369 14.0833L9.78125 11.995V0L13.2188 6.05897H13.2186Z" fill="#FAB718"/>
<path d="M23.0787 7.99657L16.4671 8.00263L13.2186 6.05897L9.78125 0L23.0785 7.99657H23.0787Z" fill="#ED6F26"/>
<path d="M13.2369 21.935V18.0418L9.78125 15.9932L9.78315 28L13.2369 21.935Z" fill="#63B22F"/>
<path d="M16.4596 20.0054L3.44731 12.1556L0 6.09473L23.065 19.9974L16.4594 20.0054H16.4596Z" fill="#1487C9"/>
<path d="M9.7832 27.9999L13.2364 21.9349L16.4589 20.0052L23.0643 19.9973L9.7832 27.9999Z" fill="#017F36"/>
<path d="M0.00390625 21.9013L9.80968 15.9933L6.51302 14.0039L3.44742 15.8524L0.00390625 21.9013Z" fill="#984995"/>
<path d="M27.1918 19.4453C27.1158 19.5405 27.016 19.6123 26.8962 19.6609C26.7732 19.7101 26.6417 19.7351 26.509 19.7346C26.377 19.7364 26.2457 19.7147 26.1216 19.6707C26.01 19.6308 25.9081 19.5687 25.8222 19.4882C25.7373 19.4076 25.6707 19.3102 25.6267 19.2026C25.579 19.0847 25.5552 18.9587 25.5567 18.8318C25.5567 18.7058 25.5788 18.5892 25.6246 18.4786C25.6684 18.3677 25.7323 18.2728 25.8122 18.193C25.8922 18.1115 25.988 18.0495 26.0957 18.0009C26.2056 17.9543 26.3254 17.9291 26.457 17.9291C26.5989 17.9291 26.7306 17.9466 26.8504 17.9813C26.9702 18.0163 27.0719 18.0747 27.1557 18.1563L27.01 18.399C26.9396 18.3362 26.8566 18.2885 26.7664 18.259C26.6806 18.2318 26.591 18.2181 26.5009 18.2184C26.4212 18.2184 26.3453 18.2338 26.2715 18.263C26.1988 18.2918 26.1324 18.334 26.0758 18.3873C26.018 18.4422 25.9724 18.5083 25.942 18.5815C25.9081 18.6571 25.8922 18.7406 25.8922 18.8337C25.8922 18.9289 25.91 19.0143 25.9439 19.088C25.978 19.1639 26.0238 19.228 26.0817 19.2822C26.1396 19.3368 26.2074 19.3774 26.2853 19.4047C26.3633 19.4338 26.4452 19.4474 26.5329 19.4474C26.6406 19.4474 26.7386 19.4259 26.8224 19.3851C26.9054 19.3456 26.9799 19.291 27.0421 19.2241L27.1918 19.4453ZM27.6029 19.6938V17.9659H27.9184V19.2532L28.9445 17.9659H29.26V19.694H28.9445V18.4067L27.9184 19.694H27.6029V19.6938ZM31.3501 19.4453C31.2724 19.5413 31.1706 19.6156 31.0547 19.6609C30.9317 19.7101 30.8001 19.7351 30.6673 19.7346C30.5354 19.7363 30.4042 19.7147 30.2801 19.6707C30.1685 19.6308 30.0665 19.5687 29.9805 19.4882C29.8956 19.4076 29.829 19.3102 29.785 19.2026C29.7373 19.0847 29.7136 18.9587 29.715 18.8318C29.715 18.7058 29.7371 18.5892 29.7829 18.4786C29.827 18.3677 29.8908 18.2728 29.9705 18.193C30.0505 18.1115 30.1463 18.0495 30.254 18.0009C30.3678 17.9517 30.491 17.9271 30.6153 17.9291C30.7572 17.9291 30.8889 17.9466 31.0087 17.9813C31.1285 18.0163 31.2303 18.0747 31.3142 18.1563L31.1683 18.399C31.098 18.3362 31.0151 18.2885 30.9249 18.259C30.8392 18.2318 30.7496 18.2181 30.6595 18.2184C30.5009 18.2189 30.3486 18.2794 30.2341 18.3873C30.1768 18.4426 30.1313 18.5086 30.1003 18.5815C30.0664 18.6571 30.0505 18.7406 30.0505 18.8337C30.0505 18.9289 30.0685 19.0143 30.1024 19.088C30.1364 19.1639 30.1821 19.228 30.24 19.2822C30.2979 19.3368 30.366 19.3774 30.4438 19.4047C30.5216 19.4317 30.6035 19.4474 30.6913 19.4474C30.7992 19.4474 30.895 19.4259 30.9807 19.3851C31.0637 19.3456 31.1382 19.291 31.2004 19.2241L31.3501 19.4453ZM31.5119 17.9659H33.1308V18.2728H32.48V19.6938H32.1645V18.2728H31.5138V17.9659H31.5119Z" fill="black"/>
<path fill-rule="evenodd" clip-rule="evenodd" d="M34.6045 19.6763C34.7243 19.6394 34.8261 19.583 34.9139 19.5055L34.818 19.2647C34.7602 19.3153 34.6823 19.358 34.5886 19.393C34.4947 19.428 34.3889 19.4453 34.2731 19.4453C34.0994 19.4453 33.9557 19.4007 33.8418 19.3095C33.7282 19.218 33.6663 19.0902 33.6523 18.9268H35.0178C35.0318 18.8666 35.0377 18.7987 35.0377 18.7192C35.0377 18.6006 35.0157 18.494 34.9718 18.3969C34.9309 18.3027 34.8712 18.2175 34.7962 18.1463C34.7202 18.0759 34.6306 18.0212 34.5326 17.9853C34.4302 17.9462 34.3211 17.9264 34.2112 17.927C34.0634 17.927 33.9336 17.9522 33.82 17.9989C33.7125 18.0433 33.6154 18.1087 33.5343 18.1911C33.4557 18.2731 33.3952 18.3703 33.3569 18.4765C33.3147 18.5896 33.2937 18.7093 33.295 18.8298C33.295 18.9658 33.3189 19.0899 33.3628 19.2008C33.4055 19.3081 33.4709 19.4054 33.5545 19.4861C33.6364 19.5655 33.736 19.6259 33.8539 19.6686C33.9801 19.7126 34.1133 19.7343 34.2473 19.7325C34.3685 19.7318 34.489 19.7129 34.6045 19.6765V19.6763ZM33.806 18.3463C33.9037 18.259 34.0335 18.2163 34.1972 18.2163C34.3509 18.2163 34.4748 18.2572 34.5647 18.3388C34.6546 18.4203 34.7023 18.533 34.7103 18.6765H33.6323C33.6476 18.5494 33.7093 18.4322 33.806 18.3465V18.3463Z" fill="black"/>
<path d="M35.4668 17.9658H35.7543L36.4371 18.8222L37.0838 17.9658H37.3633V19.6939H37.048V18.4339L36.4331 19.2356H36.421L35.7823 18.4337V19.6937H35.4668V17.9658Z" fill="black"/>
<path fill-rule="evenodd" clip-rule="evenodd" d="M38.2218 17.9717C38.126 17.9963 38.0345 18.0349 37.9504 18.0861L38.0341 18.3311C38.106 18.2961 38.1779 18.2669 38.2498 18.2417C38.3217 18.2163 38.4135 18.2046 38.5233 18.2046C38.6111 18.2046 38.6811 18.2184 38.7349 18.2454C38.7888 18.2706 38.8286 18.3096 38.8566 18.3563C38.8846 18.4029 38.9026 18.461 38.9126 18.5289C38.9226 18.5968 38.9266 18.6706 38.9266 18.7504C38.8621 18.7061 38.7885 18.6763 38.711 18.6629C38.636 18.6482 38.5599 18.6404 38.4834 18.6395C38.3895 18.6395 38.3017 18.6533 38.2177 18.6764C38.134 18.6997 38.0621 18.7347 38.0042 18.7814C37.9451 18.828 37.8974 18.887 37.8645 18.9541C37.8293 19.0275 37.8116 19.1079 37.8125 19.189C37.8125 19.358 37.8626 19.49 37.9622 19.5834C38.0621 19.6765 38.1938 19.7229 38.3575 19.7229C38.5053 19.7229 38.6232 19.6977 38.7129 19.6473C38.8028 19.5967 38.8747 19.5386 38.9266 19.4725V19.6958H39.222V18.6358C39.222 18.4104 39.1722 18.2359 39.0704 18.1134C38.9705 17.9911 38.7928 17.929 38.5413 17.929C38.4294 17.929 38.3236 17.9444 38.2218 17.9717ZM38.7492 19.3717C38.6773 19.4221 38.5833 19.4452 38.4676 19.4452C38.3658 19.4452 38.2858 19.42 38.2301 19.3715C38.1741 19.3211 38.1461 19.2551 38.1461 19.1734C38.1461 19.1251 38.1561 19.0843 38.1781 19.0474C38.2002 19.0105 38.2301 18.9814 38.264 18.958C38.3011 18.9336 38.3423 18.9159 38.3857 18.9055C38.4317 18.8939 38.4775 18.888 38.5254 18.888C38.6813 18.888 38.8149 18.9249 38.9247 19.0026V19.2219C38.873 19.279 38.8139 19.3292 38.7492 19.3715V19.3717ZM42.0072 17.3581C42.071 17.3291 42.1308 17.2806 42.1867 17.2087L42.015 16.9661C41.9711 17.0244 41.9213 17.065 41.8653 17.0865C41.8059 17.1093 41.7444 17.1262 41.6817 17.1369L41.6219 17.1474C41.5699 17.1562 41.5142 17.166 41.4542 17.1758C41.3579 17.1933 41.2641 17.222 41.1747 17.2612C41.0328 17.3214 40.9192 17.4029 40.8333 17.5058C40.7474 17.6087 40.6796 17.7251 40.6335 17.8534C40.5869 17.9834 40.5555 18.1182 40.5398 18.2552C40.5237 18.3952 40.5159 18.5289 40.5159 18.657C40.5159 18.8222 40.5377 18.9716 40.5816 19.1055C40.6257 19.2397 40.6874 19.3521 40.7692 19.4434C40.8511 19.5367 40.9491 19.6067 41.0648 19.6571C41.1806 19.7075 41.3104 19.7327 41.456 19.7327C41.5898 19.7327 41.7137 19.7075 41.8254 19.6608C41.9332 19.616 42.0309 19.5507 42.113 19.4688C42.1927 19.389 42.2567 19.2938 42.3006 19.1872C42.3464 19.0803 42.3685 18.9657 42.3685 18.8453C42.3685 18.7154 42.3485 18.5971 42.3106 18.4921C42.2756 18.392 42.2199 18.3001 42.1469 18.2223C42.0737 18.1459 41.9844 18.0861 41.8852 18.0473C41.7759 18.005 41.6594 17.9839 41.5419 17.9853C41.466 17.9853 41.3922 17.9951 41.3203 18.0144C41.2504 18.0338 41.1833 18.0619 41.1206 18.098C41.0597 18.1322 41.004 18.1746 40.955 18.224C40.9071 18.2727 40.8672 18.3271 40.8392 18.3892H40.8312C40.8373 18.3096 40.8473 18.2282 40.8651 18.1446C40.8831 18.0611 40.909 17.9813 40.9431 17.9057C40.9771 17.8301 41.021 17.762 41.0748 17.6999C41.1326 17.6372 41.2034 17.5876 41.2824 17.5543C41.3693 17.5136 41.4613 17.4842 41.5559 17.467L41.6186 17.4558C41.6809 17.4446 41.7405 17.4339 41.7974 17.4222C41.8733 17.4068 41.9431 17.3872 42.0072 17.3583V17.3581ZM40.8971 19.0182C40.8662 18.9202 40.8514 18.818 40.8532 18.7154C40.8666 18.6565 40.891 18.6005 40.9251 18.5504C40.959 18.4979 41.0029 18.4515 41.0549 18.4104C41.1721 18.3201 41.3171 18.2715 41.466 18.2727C41.6518 18.2727 41.7915 18.329 41.8892 18.4398C41.9872 18.5523 42.0351 18.692 42.0351 18.861C42.0351 18.9445 42.019 19.0203 41.9913 19.0901C41.9643 19.1589 41.9235 19.2217 41.8714 19.2747C41.8193 19.3278 41.7568 19.37 41.6878 19.3988C41.6159 19.4298 41.5379 19.4455 41.4501 19.4455C41.3623 19.4455 41.2824 19.428 41.2086 19.393C41.1353 19.3587 41.0705 19.309 41.0188 19.2474C40.9647 19.1787 40.9235 19.1011 40.8971 19.0182ZM44.7881 17.9659H44.4725V19.694H44.7881V17.9659ZM42.8235 17.9659H43.139V18.4844H43.4306C43.5682 18.4844 43.6799 18.5019 43.7698 18.5348C43.8597 18.5679 43.9316 18.6125 43.9855 18.6668C44.0393 18.7212 44.0773 18.7854 44.0994 18.857C44.1212 18.9289 44.1333 19.0026 44.1333 19.0803C44.1333 19.158 44.1212 19.232 44.0953 19.3057C44.0714 19.3794 44.0294 19.4434 43.9734 19.5017C43.9176 19.56 43.8417 19.6067 43.7459 19.6417C43.65 19.6765 43.5343 19.6958 43.3945 19.6958H42.8216V17.9659H42.8235ZM43.139 18.7735V19.4065H43.3687C43.5264 19.4065 43.6382 19.3794 43.702 19.3248C43.766 19.2705 43.7978 19.193 43.7978 19.0901C43.7978 18.9851 43.7639 18.9058 43.7001 18.8512C43.6341 18.7968 43.5243 18.7695 43.3727 18.7695H43.139V18.7735Z" fill="black"/>
<path d="M46.8734 19.4453C46.7975 19.5405 46.6976 19.6123 46.5778 19.6609C46.4549 19.7101 46.3233 19.7351 46.1906 19.7346C46.0586 19.7364 45.9274 19.7147 45.8032 19.6707C45.6916 19.6309 45.5897 19.5687 45.5038 19.4882C45.419 19.4075 45.3523 19.3102 45.3081 19.2026C45.2606 19.0846 45.2369 18.9587 45.2383 18.8318C45.2383 18.7058 45.2602 18.5892 45.3062 18.4786C45.3501 18.3677 45.4139 18.2728 45.4938 18.193C45.5738 18.1115 45.6694 18.0495 45.7773 18.0009C45.8911 17.9516 46.0144 17.9271 46.1387 17.9291C46.2803 17.9291 46.4122 17.9466 46.532 17.9813C46.6518 18.0163 46.7536 18.0747 46.8373 18.1563L46.6917 18.399C46.6212 18.3362 46.5382 18.2885 46.448 18.259C46.3623 18.2318 46.2727 18.2181 46.1826 18.2184C46.1028 18.2184 46.0269 18.2338 45.9529 18.263C45.8803 18.2918 45.8139 18.334 45.7574 18.3873C45.7 18.4425 45.6545 18.5086 45.6236 18.5815C45.5897 18.6571 45.5738 18.7406 45.5738 18.8337C45.5738 18.9289 45.5916 19.0143 45.6255 19.088C45.6594 19.1639 45.7055 19.228 45.7634 19.2822C45.8212 19.3368 45.8891 19.3774 45.9669 19.4047C46.045 19.4317 46.1268 19.4474 46.2146 19.4474C46.3223 19.4474 46.4181 19.4259 46.504 19.3851C46.587 19.3456 46.6616 19.291 46.7237 19.2241L46.8734 19.4453ZM47.035 17.9659H48.6541V18.2728H48.0031V19.6938H47.6878V18.2728H47.0371V17.9659H47.035Z" fill="black"/>
<path fill-rule="evenodd" clip-rule="evenodd" d="M49.3136 17.9661H48.998V20.4628H49.3136V19.6144C49.3774 19.6552 49.4533 19.6844 49.5411 19.7037C49.6289 19.7231 49.7207 19.7327 49.8146 19.7327C49.9544 19.7327 50.0801 19.7075 50.194 19.661C50.3032 19.6151 50.4022 19.5485 50.4853 19.465C50.5671 19.3813 50.6291 19.2842 50.673 19.1696C50.7168 19.0553 50.7389 18.9328 50.7389 18.8028C50.7389 18.6745 50.719 18.5562 50.681 18.4493C50.6453 18.3478 50.5897 18.2542 50.5173 18.1738C50.4463 18.0953 50.3583 18.0336 50.2597 17.9932C50.1519 17.9476 50.0356 17.9251 49.9183 17.9271C49.7947 17.9271 49.6789 17.9505 49.5691 17.9971C49.4592 18.0438 49.3734 18.0998 49.3136 18.1698V17.9661ZM49.5333 18.2865C49.6232 18.2398 49.7209 18.2165 49.8267 18.2165C49.9185 18.2165 50.0004 18.23 50.0744 18.2592C50.1463 18.2883 50.2061 18.3292 50.2561 18.3835C50.3059 18.4379 50.3439 18.5002 50.3679 18.5737C50.3937 18.6474 50.4058 18.7272 50.4058 18.8145C50.4058 18.9078 50.3897 18.9911 50.3619 19.0688C50.3358 19.1425 50.2942 19.21 50.24 19.2669C50.1855 19.3232 50.1195 19.3675 50.0464 19.3969C49.9649 19.4305 49.8771 19.447 49.7888 19.4454C49.7031 19.4454 49.6232 19.4359 49.5473 19.4165C49.4641 19.3943 49.3853 19.3588 49.3138 19.3115V18.4552C49.3696 18.3894 49.4436 18.3331 49.5333 18.2865ZM53.1585 17.9659H52.843V19.6939H53.1585V17.9659ZM51.192 17.9659H51.5076V18.4843H51.7989C51.9367 18.4843 52.0485 18.5018 52.1384 18.5347C52.2283 18.5679 52.3002 18.6124 52.354 18.6668C52.4079 18.7212 52.4458 18.7853 52.4677 18.857C52.4897 18.9288 52.5016 19.0026 52.5016 19.0803C52.5016 19.158 52.4897 19.2319 52.4639 19.3057C52.4399 19.3794 52.3979 19.4433 52.3419 19.5017C52.2862 19.56 52.2103 19.6067 52.1144 19.6417C52.0186 19.6764 51.9028 19.6958 51.7631 19.6958H51.1901V17.9659H51.192ZM51.5097 18.7734V19.4065H51.7393C51.8969 19.4065 52.0088 19.3794 52.0727 19.3248C52.1365 19.2704 52.1685 19.193 52.1685 19.0901C52.1685 18.9851 52.1346 18.9057 52.0708 18.8511C52.0048 18.7968 51.895 18.7695 51.7434 18.7695H51.5097V18.7734Z" fill="black"/>
<path d="M54.671 18.7988L55.3457 19.6939H54.9585L54.4373 18.9948L53.9083 19.6939H53.541L54.2117 18.8142L53.5809 17.9658H53.9683L54.4494 18.6182L54.9384 17.9658H55.3059L54.671 18.7988ZM26.9575 21.8296H25.9894V23.2702H25.6738V21.5424H27.2728V23.2702H26.9575V21.8296ZM29.0635 21.849H28.4407L28.4206 22.1402C28.3988 22.3868 28.3689 22.5849 28.3269 22.7361C28.2849 22.8878 28.2329 23.0042 28.1731 23.0856C28.1134 23.1673 28.0434 23.2235 27.9634 23.2508C27.8809 23.2802 27.7937 23.2947 27.706 23.2935L27.6821 22.9944C27.716 22.9963 27.7558 22.9886 27.7997 22.9692C27.8439 22.9498 27.8877 22.9071 27.9295 22.8432C27.9715 22.7769 28.0094 22.6838 28.0434 22.5634C28.0773 22.4412 28.0994 22.282 28.1112 22.0818L28.1432 21.544H29.379V23.2721H29.0635V21.8487V21.849Z" fill="black"/>
<path fill-rule="evenodd" clip-rule="evenodd" d="M30.2296 21.5464C30.1276 21.5734 30.0358 21.6122 29.958 21.6607L30.0419 21.9055C30.1138 21.8705 30.1857 21.8413 30.2573 21.8161C30.3292 21.7909 30.4213 21.7792 30.5309 21.7792C30.6189 21.7792 30.6886 21.7928 30.7425 21.8198C30.7966 21.8453 30.8364 21.884 30.8644 21.9307C30.8922 21.9773 30.9102 22.0357 30.9202 22.1033C30.9302 22.1715 30.9342 22.2452 30.9342 22.3248C30.8696 22.2806 30.796 22.2508 30.7185 22.2375C30.6436 22.2228 30.5674 22.215 30.491 22.2142C30.3973 22.2142 30.3093 22.2277 30.2256 22.251C30.1416 22.2744 30.0697 22.3094 30.0118 22.356C29.9527 22.4026 29.905 22.4616 29.8721 22.5287C29.837 22.6022 29.8193 22.6825 29.8204 22.7637C29.8204 22.9324 29.8702 23.0647 29.9701 23.1578C30.0697 23.2509 30.2016 23.2975 30.3653 23.2975C30.5131 23.2975 30.6308 23.2723 30.7207 23.2217C30.8104 23.1713 30.8822 23.113 30.9342 23.0469V23.2702H31.2298V22.2102C31.2298 21.985 31.1797 21.8103 31.078 21.688C30.9781 21.5655 30.8004 21.5037 30.5489 21.5037C30.441 21.5038 30.3336 21.518 30.2296 21.5461V21.5464ZM30.7586 22.9459C30.687 22.9965 30.593 23.0199 30.4773 23.0199C30.3734 23.0199 30.2955 22.9947 30.2398 22.9459C30.1838 22.8955 30.1558 22.8295 30.1558 22.748C30.1558 22.6995 30.1658 22.6587 30.1878 22.6218C30.2097 22.5849 30.2398 22.5558 30.2737 22.5324C30.3076 22.5091 30.3494 22.4916 30.3954 22.4799C30.4411 22.4683 30.488 22.4625 30.5352 22.4627C30.6908 22.4627 30.8246 22.4995 30.9344 22.577V22.7963C30.8826 22.8534 30.8235 22.9036 30.7586 22.9459Z" fill="black"/>
<path d="M31.5391 21.5425H33.1582V21.8491H32.5072V23.2703H32.1919V21.8493H31.5412V21.5425H31.5391Z" fill="black"/>
<path fill-rule="evenodd" clip-rule="evenodd" d="M34.6321 23.2529C34.7519 23.216 34.8537 23.1596 34.9415 23.0821L34.8456 22.8413C34.7877 22.8919 34.7099 22.9346 34.616 22.9696C34.5223 23.0046 34.4165 23.0219 34.3007 23.0219C34.127 23.0219 33.9833 22.9773 33.8694 22.8861C33.7555 22.7949 33.6938 22.6668 33.6798 22.5034H35.0454C35.0591 22.4435 35.0653 22.3753 35.0653 22.2958C35.0653 22.1775 35.0432 22.0706 34.9993 21.9735C34.9585 21.8793 34.8987 21.7942 34.8236 21.7232C34.7477 21.6526 34.6581 21.5978 34.5602 21.5619C34.4577 21.5229 34.3487 21.5031 34.2388 21.5036C34.091 21.5036 33.9612 21.5288 33.8476 21.5755C33.7401 21.6198 33.6429 21.6852 33.5619 21.7677C33.4833 21.8498 33.4228 21.9469 33.3842 22.0531C33.3422 22.1663 33.3212 22.2859 33.3223 22.4064C33.3223 22.5424 33.3463 22.6665 33.3902 22.7774C33.4343 22.888 33.5 22.9832 33.5818 23.0627C33.6637 23.1423 33.7636 23.2025 33.8815 23.2452C34.0076 23.2893 34.1407 23.311 34.2746 23.3094C34.3925 23.3094 34.5123 23.2898 34.6321 23.2529ZM33.8317 21.921C33.9294 21.8338 34.0592 21.7911 34.2229 21.7911C34.3787 21.7911 34.5004 21.8338 34.5903 21.9133C34.68 21.995 34.7279 22.1075 34.736 22.2512H33.658C33.6732 22.1241 33.7349 22.0067 33.8317 21.921ZM35.219 21.5426H35.6183L36.2271 22.3756L35.5763 23.2704H35.1891L35.8717 22.3753L35.219 21.5423V21.5426ZM36.3049 21.5426H36.6204V23.2704H36.3049V21.5426ZM37.7482 23.2704L37.0536 22.3753L37.7024 21.5423H37.311L36.6982 22.3753L37.357 23.2704H37.7482ZM39.1897 23.2529C39.3095 23.216 39.4113 23.1596 39.499 23.0821L39.4032 22.8413C39.3453 22.8919 39.2675 22.9346 39.1738 22.9696C39.0799 23.0046 38.974 23.0219 38.8583 23.0219C38.6846 23.0219 38.5408 22.9773 38.427 22.8861C38.3133 22.7949 38.2514 22.6668 38.2374 22.5034H39.603C39.617 22.4435 39.6229 22.3753 39.6229 22.2958C39.6229 22.1775 39.6011 22.0706 39.5569 21.9735C39.5161 21.8794 39.4564 21.7942 39.3814 21.7232C39.3054 21.6526 39.2158 21.5978 39.1178 21.5619C39.0153 21.5228 38.9063 21.503 38.7964 21.5036C38.6488 21.5036 38.519 21.5288 38.4051 21.5755C38.2977 21.6199 38.2007 21.6853 38.1197 21.7677C38.0409 21.8496 37.9804 21.9468 37.9421 22.0531C37.8999 22.1662 37.8789 22.2859 37.8801 22.4064C37.8801 22.5424 37.9041 22.6665 37.948 22.7774C37.9919 22.888 38.0578 22.9832 38.1397 23.0627C38.2215 23.1423 38.3212 23.2025 38.4391 23.2452C38.5653 23.2893 38.6985 23.311 38.8324 23.3094C38.9537 23.3085 39.0742 23.2895 39.1897 23.2529ZM38.3892 21.921C38.4872 21.8338 38.617 21.7911 38.7807 21.7911C38.9344 21.7911 39.058 21.8338 39.1479 21.9133C39.2379 21.995 39.2858 22.1075 39.2936 22.2512H38.2156C38.2308 22.1241 38.2925 22.0067 38.3892 21.921ZM40.9028 20.962C40.717 20.962 40.6153 20.861 40.5994 20.6592H40.3019C40.3019 20.7366 40.3159 20.8066 40.3417 20.8727C40.3678 20.9387 40.4058 20.9949 40.4556 21.0416C40.5054 21.0883 40.5695 21.1251 40.6433 21.1541C40.717 21.1832 40.8029 21.1968 40.9007 21.1968C40.9906 21.1968 41.0705 21.1832 41.1424 21.1541C41.2143 21.127 41.2741 21.0883 41.326 21.0416C41.3758 20.9949 41.4159 20.9387 41.4437 20.8727C41.4717 20.8066 41.4857 20.7366 41.4857 20.6592H41.1903C41.1763 20.861 41.0783 20.962 40.9028 20.962ZM40.0502 21.5423V23.2704H40.3657L41.3917 21.9831V23.2704H41.7073V21.5423H41.3917L40.3657 22.8296V21.5423H40.0502Z" fill="black"/>
</g>
<defs>
<clipPath id="clip0_645_3912">
<rect width="56.7" height="28" fill="white"/>
</clipPath>
</defs>
</svg>
