<svg width="39" height="41" viewBox="0 0 39 41" fill="none" xmlns="http://www.w3.org/2000/svg">
<path fill-rule="evenodd" clip-rule="evenodd" d="M36.8754 10.2528C16.2508 22.7556 12.7766 24.2419 4.65858 16.9021C6.67158 23.916 5.75188 29.0169 2 34.2343C11.2861 31.404 12.9801 33.9898 17.6938 37.2259C14.7923 28.0657 18.8613 25.0519 36.8754 10.2528Z" stroke="#F8B42B" stroke-width="3" stroke-miterlimit="1.5" stroke-linecap="round" stroke-linejoin="round"/>
<path d="M29.1333 28.8789C29.4279 29.8411 29.5447 30.8628 29.7341 31.8494" stroke="#F8B42B" stroke-width="3" stroke-miterlimit="1.5" stroke-linecap="round" stroke-linejoin="round"/>
<path d="M25.2546 35.0807C26.0188 34.9635 26.7906 34.7462 27.5461 34.57" stroke="#F8B42B" stroke-width="3" stroke-miterlimit="1.5" stroke-linecap="round" stroke-linejoin="round"/>
<path d="M30.6606 36.3761C30.658 37.3211 30.8274 38.5428 31.1245 39.4542" stroke="#F8B42B" stroke-width="3" stroke-miterlimit="1.5" stroke-linecap="round" stroke-linejoin="round"/>
<path d="M33.0988 33.6532C34.1178 33.7357 35.1913 33.3247 36.2097 33.1977" stroke="#F8B42B" stroke-width="3" stroke-miterlimit="1.5" stroke-linecap="round" stroke-linejoin="round"/>
<path d="M10.6245 2C10.7347 3.07932 10.9177 4.14513 11.1319 5.20693" stroke="#F8B42B" stroke-width="3" stroke-miterlimit="1.5" stroke-linecap="round" stroke-linejoin="round"/>
<path d="M6.38379 8.05398C7.19146 7.98167 7.96499 7.88139 8.76032 7.73642" stroke="#F8B42B" stroke-width="3" stroke-miterlimit="1.5" stroke-linecap="round" stroke-linejoin="round"/>
<path d="M11.986 9.68335C12.0028 10.693 12.2039 11.7661 12.4087 12.7589" stroke="#F8B42B" stroke-width="3" stroke-miterlimit="1.5" stroke-linecap="round" stroke-linejoin="round"/>
<path d="M14.5374 6.91972C15.4568 6.6905 16.3075 6.38075 17.2585 6.27194" stroke="#F8B42B" stroke-width="3" stroke-miterlimit="1.5" stroke-linecap="round" stroke-linejoin="round"/>
</svg>
