<svg width="101" height="19" viewBox="0 0 101 19" fill="none" xmlns="http://www.w3.org/2000/svg">
<path d="M18.8887 1.96533H10.8477V16.4164H18.8887V1.96533Z" fill="#FF5F00"/>
<path d="M11.3583 9.19183C11.3568 7.7999 11.672 6.42588 12.2802 5.1738C12.8883 3.92174 13.7734 2.82446 14.8683 1.96505C13.5125 0.899607 11.8844 0.237066 10.17 0.0531577C8.45557 -0.13075 6.72395 0.171393 5.17312 0.925059C3.62219 1.67873 2.31465 2.8535 1.39989 4.31513C0.485134 5.77675 0 7.46627 0 9.19055C0 10.9149 0.485134 12.6043 1.39989 14.066C2.31465 15.5276 3.62219 16.7024 5.17312 17.4561C6.72395 18.2097 8.45557 18.5118 10.17 18.3279C11.8844 18.1441 13.5125 17.4815 14.8683 16.416C13.7737 15.5569 12.8889 14.46 12.2807 13.2084C11.6727 11.9569 11.3572 10.5834 11.3583 9.19183Z" fill="#EB001B"/>
<path d="M29.7388 9.19216C29.7387 10.9165 29.2534 12.6062 28.3386 14.0679C27.4236 15.5295 26.1159 16.7043 24.5648 17.4578C23.0138 18.2114 21.282 18.5134 19.5675 18.3292C17.8529 18.145 16.2247 17.4822 14.8691 16.4164C15.9633 15.5565 16.8478 14.4593 17.4561 13.2076C18.0644 11.956 18.3805 10.5825 18.3805 9.19088C18.3805 7.79925 18.0644 6.42579 17.4561 5.17413C16.8478 3.92246 15.9633 2.82529 14.8691 1.96539C16.2247 0.899605 17.8529 0.236741 19.5675 0.0525688C21.282 -0.131604 23.0138 0.170346 24.5648 0.923904C26.1159 1.67747 27.4236 2.85222 28.3386 4.3139C29.2534 5.77558 29.7387 7.46519 29.7388 9.1896V9.19216Z" fill="#F79E1B"/>
<path d="M53.4872 7.41789C53.4697 8.78762 54.7079 9.55205 55.6405 10.0066C56.5989 10.4729 56.9208 10.772 56.9171 11.1889C56.9098 11.8272 56.1526 12.1088 55.4439 12.1197C54.2077 12.1389 53.4889 11.786 52.9175 11.519L52.4722 13.6029C53.0454 13.8672 54.1071 14.0976 55.208 14.1077C57.7921 14.1077 59.4829 12.832 59.492 10.8543C59.5021 8.34414 56.0201 8.20521 56.0438 7.08318C56.0521 6.74304 56.3766 6.38001 57.088 6.28766C57.4401 6.24108 58.4121 6.20537 59.514 6.71287L59.9465 4.69661C59.3539 4.48082 58.5923 4.27417 57.6441 4.27417C55.2117 4.27417 53.5008 5.56714 53.4872 7.41789ZM64.1025 4.44789C63.6307 4.44789 63.2328 4.72308 63.0555 5.14552L59.364 13.9595H61.9463L62.4602 12.5395H65.6158L65.9139 13.9595H68.1899L66.2038 4.44789H64.1025ZM64.4636 7.01741L65.2089 10.589H63.168L64.4636 7.01741ZM50.3562 4.44789L48.3207 13.9595H50.7814L52.8159 4.44789H50.3562ZM46.7159 4.44789L44.1547 10.9219L43.1187 5.41713C42.997 4.80271 42.517 4.44789 41.9839 4.44789H37.7968L37.7383 4.72401C38.5978 4.91055 39.5744 5.2114 40.166 5.53328C40.5281 5.72988 40.6315 5.90175 40.7503 6.36903L42.7127 13.9595H45.3132L49.3 4.44789H46.7159Z" fill="url(#paint0_linear_645_3853)"/>
<path d="M78.8934 14.0237C77.9921 14.0237 77.0943 14.0237 76.1895 14.0237C76.1895 10.8005 76.1895 7.57739 76.1895 4.35425C76.245 4.36215 76.3004 4.37415 76.3559 4.37415C77.1809 4.37415 78.0094 4.37415 78.8345 4.37415C79.5902 4.37415 80.1656 4.8715 80.3736 5.69124C80.7272 7.09195 81.0773 8.48856 81.4275 9.88927C81.4656 10.0365 81.5176 10.1081 81.6632 10.0524C81.684 9.9768 81.7083 9.89727 81.7291 9.81765C82.0757 8.43684 82.4258 7.06004 82.7725 5.67934C82.977 4.8755 83.5524 4.37805 84.2839 4.37805C85.109 4.37805 85.9375 4.37805 86.7626 4.37805C86.8181 4.37805 86.8735 4.37805 86.9428 4.37805C86.9428 4.47358 86.9428 4.5452 86.9428 4.61682C86.9428 7.68882 86.9428 10.7567 86.9428 13.8287C86.9428 13.8963 86.9394 13.9601 86.9359 14.0277C86.045 14.0277 85.1576 14.0277 84.2666 14.0277C84.2597 13.9481 84.2493 13.8724 84.2493 13.7929C84.2493 12.05 84.2493 10.3111 84.2493 8.56818C84.2493 8.49256 84.2493 8.41304 84.2493 8.34932C84.0829 8.27369 84.0551 8.38112 84.0204 8.50456C83.5247 10.3429 83.029 12.1852 82.5333 14.0237C81.8851 14.0237 81.2403 14.0237 80.592 14.0237C80.5886 13.9959 80.592 13.972 80.5851 13.9441C80.0928 12.1136 79.5971 10.2872 79.1084 8.45675C79.0702 8.31351 79.0043 8.3095 78.8934 8.33741C78.8934 10.2355 78.8934 12.1296 78.8934 14.0237Z" fill="#016848"/>
<path d="M91.8574 14.0236C91.8644 13.944 91.8748 13.8684 91.8748 13.7888C91.8748 12.2647 91.8748 10.7367 91.8748 9.21274C91.8748 9.13312 91.8748 9.0575 91.8748 8.96997C94.7208 8.96997 97.5461 8.96997 100.403 8.96997C100.032 9.94486 99.3869 10.5576 98.5376 10.9436C98.5722 11.0113 98.6034 11.067 98.6346 11.1267C99.165 12.038 99.6954 12.9491 100.226 13.8604C100.257 13.9161 100.285 13.9718 100.312 14.0276C99.2829 14.0276 98.2568 14.0276 97.2272 14.0276C96.7384 13.1044 96.2462 12.1852 95.7539 11.2659C95.7331 11.2261 95.6845 11.1864 95.6499 11.1864C95.2997 11.1784 94.9496 11.1824 94.5926 11.1824C94.5926 12.1454 94.5926 13.0885 94.5926 14.0276C93.6844 14.0236 92.7692 14.0236 91.8574 14.0236Z" fill="#016848"/>
<path d="M100.456 8.397C98.8333 8.393 97.211 8.397 95.5885 8.389C95.3355 8.389 95.079 8.36519 94.8294 8.32138C93.2174 8.0349 91.9244 6.51085 91.7267 4.66851C91.7164 4.58488 91.7199 4.49736 91.7129 4.38993C91.7823 4.38593 91.8446 4.37803 91.9035 4.37803C93.779 4.37803 95.6579 4.37402 97.5334 4.37402C97.984 4.37402 98.4173 4.47745 98.8195 4.71622C99.6341 5.20166 100.182 5.94178 100.414 6.96848C100.421 6.99629 100.438 7.0202 100.452 7.04801C100.456 7.49774 100.456 7.94737 100.456 8.397Z" fill="#1181E8"/>
<path d="M88.0801 14.0236C88.0836 13.944 88.0871 13.8645 88.0871 13.7848C88.0871 10.7327 88.0871 7.68475 88.0871 4.63266C88.0871 4.55303 88.0871 4.47751 88.0871 4.38599C88.9849 4.38599 89.8723 4.38599 90.784 4.38599C90.784 7.59713 90.784 10.8124 90.784 14.0236C89.8827 14.0236 88.9814 14.0236 88.0801 14.0236Z" fill="#016848"/>
<defs>
<linearGradient id="paint0_linear_645_3853" x1="51.7382" y1="14.305" x2="52.0227" y2="4.20573" gradientUnits="userSpaceOnUse">
<stop stop-color="#222357"/>
<stop offset="1" stop-color="#254AA5"/>
</linearGradient>
</defs>
</svg>
