<svg width="22" height="22" viewBox="0 0 22 22" fill="none" xmlns="http://www.w3.org/2000/svg">
<g clip-path="url(#clip0_73_1207)">
<path d="M14.377 0H7.62369C1.46094 0 0 1.46094 0 7.62369V14.377C0 20.5398 1.46094 22.0007 7.62369 22.0007H14.377C20.5398 22.0007 22.0007 20.5398 22.0007 14.377V7.62369C22.0007 1.46094 20.5253 0 14.377 0ZM17.7609 15.6943H16.1638C15.5588 15.6943 15.3725 15.2144 14.2842 14.1116C13.3389 13.1952 12.9202 13.0735 12.6871 13.0735C12.3578 13.0735 12.2643 13.1663 12.2643 13.618V15.0611C12.2643 15.4481 12.1426 15.6805 11.1182 15.6805C9.42425 15.6805 7.54463 14.6561 6.22669 12.7476C4.23913 9.95088 3.69531 7.85606 3.69531 7.42294C3.69531 7.18988 3.78813 6.97194 4.23569 6.97194H5.83619C6.24113 6.97194 6.39513 7.15825 6.55256 7.59138C7.34388 9.87594 8.66181 11.8773 9.20563 11.8773C9.40638 11.8773 9.49919 11.7844 9.49919 11.2723V8.91275C9.438 7.82444 8.86531 7.73094 8.86531 7.34456C8.86531 7.15825 9.01931 6.97194 9.26613 6.97194H11.7831C12.1234 6.97194 12.2485 7.15825 12.2485 7.55906V10.7422C12.2485 11.0859 12.4025 11.2076 12.4953 11.2076C12.6961 11.2076 12.8679 11.0859 13.2399 10.7133C14.3894 9.42425 15.213 7.43669 15.213 7.43669C15.3203 7.20363 15.5066 6.98569 15.9115 6.98569H17.512C17.9919 6.98569 18.0991 7.2325 17.9919 7.57625C17.7911 8.50713 15.8324 11.2716 15.8324 11.2716C15.664 11.5507 15.5994 11.6724 15.8324 11.9838C16.0043 12.2169 16.5633 12.7002 16.9352 13.1333C17.6193 13.9102 18.1452 14.5619 18.2854 15.0129C18.4429 15.4605 18.2105 15.6936 17.7588 15.6936L17.7609 15.6943Z" fill="#4682EB"/>
</g>
<defs>
<clipPath id="clip0_73_1207">
<rect width="22" height="22" fill="white"/>
</clipPath>
</defs>
</svg>
